<?xml version="1.0" encoding="utf-8"?>
<!-- Generator: Adobe Illustrator 24.0.1, SVG Export Plug-In . SVG Version: 6.00 Build 0)  -->
<svg version="1.1" id="Ebene_1" xmlns="http://www.w3.org/2000/svg" xmlns:xlink="http://www.w3.org/1999/xlink" x="0px" y="0px"
	 viewBox="0 0 446 540" style="enable-background:new 0 0 446 540;" xml:space="preserve">
<g>
	<g>
		<path d="M231,526c-6.7-2.3-13.6-4.2-20.2-7c-3-1.3-5.2-4.3-7.3-7.2c-9.2-0.8-15.9-6.6-22.3-12.8c-4-3.8-5-8.1-2.7-13.1
			c0.8-1.7,1.4-3.4,2.1-5.1c1.4-2.9,1.1-5.1-2-6.6c-4.3-2.2-5.4-5.4-3.1-9.9c2.7-5.6,3.1-10.3-2.5-15.4c-7.5-6.8-6.4-13.5,1.9-19.5
			c2.5-1.8,3.1-3.3,2.1-6.2c-3.1-7.9-6.3-15.8-8.8-23.8c-3.9-12.5-7.4-25.2-11.1-37.8c-7.7-26.7-17.9-52.2-34.1-75.1
			c-11.1-15.7-19.5-32.9-22.1-52.4c-3-22.3,1.5-43.5,10.1-63.8c8.8-21,21-39.8,38-55.1c14.4-13,32.2-19.1,51-22.4
			c23-4,46-5.8,68.9,0.3c24.8,6.6,46.2,18.6,59.9,41c12.5,20.3,19.8,42.8,23.1,66.5c5,36.4-6.2,68.7-25.4,98.9
			c-6.1,9.5-12.8,18.7-18.5,28.5c-8.2,14-12.7,29.2-12.1,45.7c0.4,10.3,0.9,20.7,0.7,31c-0.1,4.4-2.2,8.8-3.2,13.2
			c-0.4,1.6-0.3,3.2-0.5,4.8c-0.6,5-0.9,10.2-2.1,15.1c-1,4.4-0.7,8,0.8,12.4c1.9,5.8,1.5,12.3,1.7,18.6c0.1,4.6-0.6,9.2-0.5,13.8
			c0.1,5.9-0.6,11.3-5.9,15.1c-2.1,1.6-4,3.5-6,5.3c-5.5,5.1-11.7,8.1-19.5,7c-1.1-0.2-2.3,0.1-3.4,0.2c1.5,12.6,1.5,12.6-11.4,15.1
			c-0.6,0.1-1.2,0.5-1.8,0.8C240.3,526,235.7,526,231,526z M277,413.8c-5.2-7.3-5.1-7.2,0.6-14.1c1.6-2,2.7-5,2.9-7.6
			c0.4-7.8,0.4-15.7,0.2-23.5c-0.7-19.5,4.6-37.2,16-53c3.5-4.9,6.7-10,10-14.9c9.1-13.6,16.5-28.1,22.3-43.4
			c9.1-24.1,11.9-48.6,3-73.3c-4.4-12.2-9.9-23.9-15.5-35.7c-9.9-21-26.9-33.5-49-39.3c-29.1-7.7-57.4-3.3-85.3,6.6
			c-17.7,6.2-31.7,16.7-41.2,33c-3.6,6.2-7.5,12.2-10.7,18.6c-17.5,35.9-16.5,71.2,3.3,106c4.8,8.4,9.4,16.9,14.6,25
			c15.8,24.5,23.3,52.1,29.7,80.1c3.2,13.8,7.2,27.1,21.6,34.1c3.7,1.8,3.2,4.5-0.6,6.7c-1.8,1.1-3.8,2-5.7,3
			C203.5,435.7,258.6,430.3,277,413.8z M279.5,481.4c-0.6,0.1-0.9,0.1-1.2,0.3c-1.8,0.8-3.7,1.6-5.5,2.5
			c-16.2,7.8-33.4,8.3-50.8,6.6c-1.8-0.2-4.5-2.8-4.6-4.5c-0.3-3.3,2.8-3.4,5.4-3.3c0.8,0,1.7,0,2.5,0.1c18.1,1.7,35.4-2.8,52.7-6.7
			c4-0.9,6-2.7,5.6-7.3c-0.3-3.5,0.9-7,1.1-10.6c0.1-1.5-0.2-3.8-1.2-4.4c-3.8-2.5-5.3-5.6-3.6-10.5c-1.6,0.5-2.7,0.5-3.3,1.1
			c-12.4,10-27.4,12.5-42.6,13.8c-4.6,0.4-9.3,0-13.8-1c-1.7-0.4-2.7-3.6-4-5.6c1.7-0.6,3.5-1.7,5.2-1.6c9.7,0.7,19.2-0.2,28.6-3.1
			c10.9-3.4,21.2-8,29.8-15.7c1.2-1.1,1.1-3.7,1.5-5.6c-1.8-0.3-4-1.3-5.4-0.7c-4,1.6-7.8,3.8-11.5,5.9c-8.3,4.8-16.9,7.7-26.6,6.9
			c-16.4-1.4-32.8-2.7-49.2-4.4c-4.4-0.5-7.1,0.3-8.4,4.7c-1.3,4.4,0.2,8,4.6,9.5c4.6,1.5,5.5,4.4,4,8.5c-0.8,2.2-1.7,4.3-2.9,6.3
			c-2,3.3-1.8,5.9,1.8,8c3.7,2.1,4.9,5.4,4,9.4c-0.5,2.4-2.1,4.7-2.3,7.1c-0.3,2.6-0.3,5.7,1,7.7c3,4.9,7.5,8.3,13.5,9.4
			c1.8,0.3,4,1.5,4.9,2.9c2.5,4,6.2,5.4,10.5,5.7c7.8,0.5,15.6,0.9,23.5,1c5.3,0.1,9.9-3.5,10.8-8.4c0.7-3.4,2.7-3.7,5.4-3.7
			c7.8,0.2,14.2-3.1,19.8-8.1C284.1,489.1,284.2,487.1,279.5,481.4z"/>
		<path d="M215,14c1.3,2.6,3.6,5.2,3.7,7.8c0.5,10.4,0.5,20.8,0.2,31.3c-0.1,2-2.1,4-3.3,6c-1.3-1.8-3.3-3.5-3.7-5.5
			c-1.8-8.8-3.6-17.6-4.3-26.4c-0.4-4.3,1.5-8.8,2.4-13.2C211.7,14,213.3,14,215,14z"/>
		<path d="M430.2,225c0.6,5.4-1.3,8.9-6.1,9.7c-14.9,2.3-29.9,4.2-44.9,6.2c-0.6,0.1-1.5,0.2-2-0.1c-2.4-1.4-6.2-2.7-6.7-4.6
			c-0.9-4,3.1-5,6.3-5.4c13.9-1.7,27.7-3.1,41.6-4.7C422.4,225.6,426.3,225.3,430.2,225z"/>
		<path d="M61.7,91.2c1.3,0.7,3.6,1.5,5.3,3c9.1,8.5,18.1,17.2,27,25.9c1,1,1.7,2.5,1.9,3.9c0.4,3-0.8,4.6-4.1,3.3
			c-1.2-0.5-2.4-1.1-3.5-1.9c-9-6.9-18-13.7-26.8-20.7c-1.9-1.5-3.6-3.5-4.8-5.7C54.8,95.7,57.2,91.4,61.7,91.2z"/>
		<path d="M375.2,75.9c-1.3,1.6-2.3,3.4-3.8,4.8c-8.8,7.9-17.7,15.7-26.6,23.4c-2,1.7-4.3,3.4-6.8,3.9c-1.8,0.4-4.6-0.7-5.8-2.2
			c-0.7-0.9,0-4.5,1.2-5.3c12.2-8.6,24.7-16.9,37.1-25.2c1-0.7,2.6-0.4,3.9-0.6C374.8,75.1,375,75.5,375.2,75.9z"/>
		<path d="M47.4,244.4c-9-0.7-17.9-1.3-26.8-2.4c-1.9-0.2-3.6-2.2-5.4-3.3c1.9-1.5,3.9-4.4,5.8-4.3c13,0.6,25.9,1.6,38.8,2.8
			c1.3,0.1,2.5,2.5,3.7,3.8c-1.3,1-2.6,2.6-4.1,2.8c-4,0.4-8,0.1-12,0.1C47.4,244.1,47.4,244.2,47.4,244.4z"/>
		<path d="M248.6,422.9c-0.2-3.5-0.5-6.7-0.5-10c-0.2-17.5-0.4-35-0.6-52.5c-0.1-6.6-0.6-7.2-7.1-7.2c-6.2,0.1-12.3,0.5-18.5,0.7
			c-3.5,0.1-5.7,1.8-6.2,5.3c-0.5,3.4-0.8,6.9-0.8,10.4c0.1,13.3,0.4,26.7,0.5,40c0,3.4,0,6.8-5.1,6.5c-4.5-0.3-6.3-2.9-6.2-6.8
			c0.3-16.8,0.7-33.7,1.4-50.5c0.1-2.7,2.2-5.2,3.5-8.1c-10-6.5-8.6-18.4-10.8-28.5c-4.4-19.9-9.2-39.5-20.4-57
			c-4.4-6.9-4.4-14.9-3.9-22.8c0.2-3.4,2.3-4.9,5.4-4.1c6.8,1.8,13.6,3.9,20.4,6.1c1.8,0.6,3.4,1.9,5.3,3c1.5-3.2,2.5-6.2,4.1-8.8
			c4.8-7.8,12.8-7.7,17.4,0.1c1.8,3,3.1,6.2,4.9,9.9c3.9-2.9,7.3-5.7,10.9-8.3c4-2.9,8.1-5.9,12.4-8.4c4.8-2.7,8.2-0.6,8.2,4.9
			c0,2.3-0.8,4.5-1.3,6.8c-0.4,1.7-0.8,3.4-1.5,6.6c5-2.4,8.7-4.3,12.4-5.9c2.4-1,5-3.6,7.6-0.4c2.9,3.5,5.8,7.1,3.9,12.1
			c-0.1,0.2-0.1,0.3-0.2,0.4c-12.4,14.5-13.8,32.3-14.9,50.2c-0.1,2.3-0.6,4.7-1.4,6.8c-8.3,21.9-9.1,44.9-10.3,67.8
			c-0.6,11.6-1,23.3-1.2,35C255.9,420.9,253.7,422.6,248.6,422.9z M247.1,249.5c-2.6,1.8-4.8,3.6-7.3,4.9c-2.6,1.3-5.5,2.2-8.4,3
			c-4.6,1.4-8.1,0.3-10.2-4.5c-0.7-1.6-2.1-3-3.7-5.3c-1.2,2.5-2,3.9-2.5,5.5c-3.2,8.2-6.9,9.1-13.9,3.7c-2.4-1.8-4.9-3.5-7.6-4.6
			c-2-0.7-4.5-0.2-6.7-0.2c0.2,2.2-0.1,4.6,0.7,6.6c2.4,6.2,5.8,12.1,7.6,18.4c6.2,21.6,11.9,43.3,17.8,64.9c0.5,1.8,1.4,3.5,1.6,4
			c7.3-0.8,13.6-1.6,20-2c3.5-0.2,7,0,10.5,0.4c4.4,0.5,5.7-1.4,6.3-5.5c0.9-7.2,2.4-14.4,3.9-21.5c1.7-8.3,3.7-16.5,5.7-24.7
			c2.3-9.8,4.6-19.7,7.3-29.4c0.9-3.2,2.8-6.1,4.3-9.2c-0.3-0.3-0.7-0.5-1-0.8c-2,1.6-4,3.3-6.1,4.7c-7.8,5.5-16,2.2-17.4-6.8
			C247.9,250.8,247.6,250.5,247.1,249.5z"/>
		<path d="M304.3,205.3c-2-6.5-3.9-12.7-5.9-18.8c-5.7-18-15.6-33.3-29.4-46.1c-1.5-1.4-2-4-3-6.1c2.6-0.1,5.4-0.8,7.7-0.2
			c2.1,0.6,4,2.5,5.5,4.2c14.3,16.3,26.3,33.9,29.5,56.1C309.6,200.7,309.1,202.8,304.3,205.3z"/>
		<path d="M251.6,466.4c-1.6,1.5-2.9,3.7-4.8,4.3c-4.1,1.4-8.4,2.5-12.6,2.7c-10.3,0.5-20.6,0.7-30.9,0.5c-3.4-0.1-7.9-0.5-8-5.5
			c-0.1-3.2,4.1-4.8,9.5-3.6c13.8,2.9,27.7,3.5,41.6,0.5c1.4-0.3,2.9,0,4.4,0C251,465.5,251.3,465.9,251.6,466.4z"/>
		<path d="M241.2,497.6c-1.6,1-3,2.6-4.8,3c-11.8,2.8-23.7,4.3-34.9-2c-1.8-1-2.9-3.4-4.3-5.2c2.2-0.8,4.5-2.3,6.6-2.1
			c3.7,0.3,7.3,2.2,11.1,2.6c6.2,0.7,12.6,0.9,18.9,1.3c2.4,0.2,4.7,0.3,7.1,0.5C241,496.3,241.1,497,241.2,497.6z"/>
	</g>
</g>
</svg>
