<?xml version="1.0" encoding="utf-8"?>
<!-- Generator: Adobe Illustrator 23.1.1, SVG Export Plug-In . SVG Version: 6.00 Build 0)  -->
<svg version="1.1" id="Ebene_1" xmlns="http://www.w3.org/2000/svg" xmlns:xlink="http://www.w3.org/1999/xlink" x="0px" y="0px"
	 viewBox="0 0 21.45 16.15" style="enable-background:new 0 0 21.45 16.15;" xml:space="preserve">
<style type="text/css">
	.st0{fill:#93C351;}
</style>
<g>
	<g>
		<path class="st0" d="M20.39,8.14c-1.99,2.49-6.88,6.79-10.52,7.13C9.58,15.29,9.38,15,9.51,14.74c1.23-2.43,5.24-3.27,7.37-6.11
			c0.1-0.13,0.1-0.33-0.01-0.45C13.68,4.34,4.42,5.61,0.76,1.23c-0.21-0.25-0.02-0.63,0.3-0.6C7.03,1.3,14.82,3.97,20.3,7.62
			C20.48,7.74,20.52,7.98,20.39,8.14z"/>
		<path class="st0" d="M3.74,5.68c7.15,1.48,14.95,3.33,3.36,6.74c-0.27,0.08-0.48-0.28-0.33-0.51c3.09-4.76-2.66-1.96-5.02-5.6
			C1.46,5.85,2.6,5.62,2.88,5.59C3.15,5.57,3.65,5.66,3.74,5.68z"/>
	</g>
</g>
</svg>
