<?xml version="1.0" encoding="utf-8"?>
<!-- Generator: Adobe Illustrator 23.1.1, SVG Export Plug-In . SVG Version: 6.00 Build 0)  -->
<svg version="1.1" id="Ebene_1" xmlns="http://www.w3.org/2000/svg" xmlns:xlink="http://www.w3.org/1999/xlink" x="0px" y="0px"
	 viewBox="0 0 11.86 18.18" style="enable-background:new 0 0 11.86 18.18;" xml:space="preserve">
<style type="text/css">
	.st0{fill:#AED078;}
</style>
<path class="st0" d="M2,2.25c-0.22-0.22-0.15-1.1,0.11-1.39c0.26-0.29,1.1-0.44,1.39-0.26c2.41,1.72,4.86,3.36,7.05,5.29
	c1.42,1.24,0.95,2.88-0.22,4.16c-2.08,2.26-4.13,4.56-6.35,6.61c-0.73,0.66-2.81,1.33-3.18,0.91c-0.57-0.58-0.22-1.31,0.04-1.61
	c1.94-2.19,3.94-4.31,5.95-6.39c1.79-1.83,0.53-3.04-0.51-3.91S2,2.25,2,2.25z"/>
</svg>
