<?xml version="1.0" encoding="utf-8"?>
<!-- Generator: Adobe Illustrator 23.1.1, SVG Export Plug-In . SVG Version: 6.00 Build 0)  -->
<svg version="1.1" id="Ebene_1" xmlns="http://www.w3.org/2000/svg" xmlns:xlink="http://www.w3.org/1999/xlink" x="0px" y="0px"
	 viewBox="0 0 14.25 21.43" style="enable-background:new 0 0 14.25 21.43;" xml:space="preserve">
<style type="text/css">
	.st0{fill:#AED078;stroke:#AED078;stroke-miterlimit:10;}
</style>
<path class="st0" d="M2.54,2.66C2.29,2.4,2.37,1.39,2.67,1.05c0.3-0.34,1.27-0.51,1.61-0.3c2.79,1.99,5.63,3.89,8.17,6.14
	c1.65,1.44,1.1,3.34-0.25,4.82C9.78,14.34,7.41,17,4.83,19.37c-0.85,0.76-3.26,1.55-3.68,1.06c-0.66-0.67-0.25-1.52,0.04-1.86
	c2.24-2.54,4.57-4.99,6.9-7.41C10.16,9.05,8.7,7.64,7.5,6.63S2.54,2.66,2.54,2.66z"/>
</svg>
