<?xml version="1.0" encoding="utf-8"?>
<!-- Generator: Adobe Illustrator 24.0.3, SVG Export Plug-In . SVG Version: 6.00 Build 0)  -->
<svg version="1.1" xmlns="http://www.w3.org/2000/svg" xmlns:xlink="http://www.w3.org/1999/xlink" x="0px" y="0px"
	 viewBox="0 0 101.8 115.1" style="enable-background:new 0 0 101.8 115.1;" xml:space="preserve">
<style type="text/css">
	.st0{fill:none;stroke:#FFFFFF;stroke-width:0.5;stroke-miterlimit:10;stroke-dasharray: 1000;stroke-dashoffset: 1000;animation: dash 5s linear alternate infinite;}
	.st1{fill:none;stroke:#93C251;stroke-width:0.5;stroke-miterlimit:10;stroke-dasharray: 1000;stroke-dashoffset: 1000;animation: dash 5s linear alternate infinite;}
    
    @keyframes dash {
  from {
    stroke-dashoffset: 0;
  }
  to {
    stroke-dashoffset: 800;
  }
}
</style>
<g id="Ebene_2">
</g>
<g id="Ebene_1">
	<g id="Form_4_1_">
		<desc  xmlns:shape="http://adobe.com/products/shape"></desc>
		<path class="st0" d="M83.4,17.4c0.9,0.4,1.7,0.6,2.7,0.3c0.9-0.3,2.3,0.9,2.4,1.8c0,0.1-0.3,0.3-0.4,0.3c-0.7-0.1-1.3-0.3-2-0.3
			c-1-0.1-2.1,0-3.1-0.1c-0.7-0.1-1.4-0.6-2.2-0.9c-1.1-0.4-0.9-1.3-0.8-2.1c0-0.7-0.1-0.8-0.8-0.8c-2.6,0-4.2,1.7-5.7,3.4
			c-0.6,0.7-0.7,1.3-0.5,2.2c0.2,0.7,0,1.7-0.5,2.2c-1.2,1.4-2.5,2.8-3.9,3.9c-1.2,0.9-2.8,1.3-4.4,0.8c-0.4-0.1-1,0-1.4,0.2
			c-1.2,0.5-2.3,1.2-3.5,1.7c-1.9,0.8-2.1,2.4-2.2,4.1c0,0.4,0,0.8,0.1,1.1c0.4-0.2,0.7-0.4,1.1-0.6c1-0.6,2.1-1.2,3.4-1.1
			c1.2,0.1,2.5,0.1,3.7,0.2c1.5,0.1,2.4-0.9,3.3-1.8c1.3-1.3,2.4-2.8,3.5-4.3c1.3-1.9,3-3.4,5.1-4.3c0.8-0.4,1.8-0.4,2.8-0.4
			c2,0,4,0.2,6.1,0.1c1.3,0,2.6-0.4,3.9-0.7c0.2,0,0.4-0.1,0.6-0.1c2,0.5,3.8-0.5,5.7-0.9c0.1,0,0.2,0,0.3,0
			c0.6,0.2,1.1,0.3,1.6,0.5c-0.3,0.7-0.8,0.5-1.4,0.6c-1.2,0.3-2.4,0.6-3.6,1.1c-0.4,0.2-0.7,0.7-0.9,1.2C92,25.4,91.8,26,91,26.5
			c-2.2,1.3-4.3,0.7-6.5,0.1c-0.7-0.2-1.4-0.5-2.1-0.8c-0.3-0.1-0.6-0.3-0.9-0.5c-0.5-0.4-0.9-1.1-1.4-1.1c-1.3-0.2-2.5,0-3.6,0.7
			c-1.7,1.2-3,2.5-4.1,4.3c-1.5,2.4-3.4,4.3-5.9,5.7c-1.1,0.6-2.3,1.3-3.5,1.8c-0.6,0.3-0.9,0.5-0.8,1.3c0.2,2-0.2,3.7-1.6,5.3
			c-0.3,0.4-0.5,1.3-0.3,1.7c0.7,1.7,0.3,3.5,0.4,5.2c0.1,3.2-0.5,6.4-1,9.5c-0.5,2.8-0.8,5.7-1.3,8.6c-0.5,2.3-1.1,4.6-1.9,6.7
			c-1.6,4.2-3.5,8.3-5.3,12.4c-0.4,0.8-0.8,1.6-1.3,2.4c-0.3,0.6-0.4,0.9,0.5,1.3c2.3,1,4.8,1.1,7.3,1.6c1.3,0.3,1.4,0.4,1.1,1.7
			c-0.8,3.6-3.3,6.4-4.7,9.6c-0.7,1.6-1.1,3.3-1.6,5c-0.2,0.6-0.5,1.3-0.8,1.9c-0.2,0.2-0.8,0.4-1.1,0.3c-2.1-0.8-4.2-1.8-6.3-2.6
			c-0.4-0.1-1.3-0.9-1.3,0.5c0,0.7-0.5,1.4-1.4,1.1c-0.8-0.3-0.9-1.2-0.6-1.7c0.5-1.2-0.3-1.6-1-2.1c-1.8-1.2-3.8-2.2-5.6-3.4
			c-1.5-1-2.8-2.4-4.2-3.5c-0.1-0.1-0.3-0.2-0.4-0.3c0,0.1-0.1,0.3-0.1,0.5c0,0.2,0,0.5,0,0.7c0,0.2-0.2,0.5-0.3,0.7
			c-0.3-0.2-0.8-0.3-0.9-0.5c-0.2-0.4-0.3-0.9-0.2-1.3c0.3-0.9,0.2-1.5-0.6-2.1c-0.9-0.8-1.8-1.5-2.6-2.4c-1.4-1.7-1.3-3.5,0.3-5.3
			c1.8-2.1,3.7-4.1,5.5-6.2c0.8-0.8,1.5-0.9,2.5-0.3c0.1,0.1,0.2,0.2,0.3,0.3c1.7,1.1,2.1,1,2.9-0.8c1.1-2.5,2.5-4.9,3.4-7.5
			c1.1-3.1,2-6.3,2.8-9.4c0.7-2.9,0.7-5.9,0.7-8.9c0-1.1,0.2-2.3,0.2-3.4c-0.1-1.8-0.3-3.5-0.4-5.2c-0.1-1.1-0.1-2.1-0.2-3.2
			c0-0.4-0.1-1-0.3-1.3c-0.9-1.7-1.9-3.4-2.8-5.1c-0.1-0.3-0.5-0.6-0.7-0.6c-1.4,0-2.4-0.9-3.4-1.8c-1.7-1.4-4.5-1.3-6.3-0.2
			c-1.8,1.1-3.5,2.5-5.5,3.2c-0.7,0.2-1.3,0.9-1.8,1.5c-0.5,0.7,0.1,1.9,1,2.5c0.7,0.4,1.3,0.9,1.9,1.4c0.7,0.6,0.6,1.3,0.1,2
			c-0.2,0.3-0.1,0.7-0.1,1.1c0,0.7,0.2,1.6-0.1,2.1c-0.3,0.4-1.3,0.6-1.9,0.5c-0.8-0.2-0.8,0-1,0.7c-0.2,1.4-1.1,2.1-2.3,2.1
			c-1,0-1.7-0.6-1.7-1.7c0-0.8,0.2-1.5-1-1.8c-0.8-0.2-0.6-2,0.3-2.6c0.2-0.1,0.3-0.3,0.5-0.5c-0.2,0-0.4-0.1-0.6-0.1
			c-0.7-0.2-1-1.4-0.6-2.2c0.6-1.1,1.6-1.7,2.8-2c0.7-0.2,1-0.4,1.1-1.1c0-0.4,0.3-0.7,0.5-1c0.1-0.2,0.3-0.4,0.5-0.5
			c-0.3,0-0.6-0.1-0.8-0.1c-2.1,0.4-4.1-0.4-6.1-0.7c-1.3-0.2-2.6-0.3-3.9-0.4c-0.1,0-0.3,0.1-0.4,0.1c0.1,0.1,0.1,0.3,0.3,0.4
			c0.3,0.3,0.7,0.4,1,0.7c0.5,0.5,1,1,1.3,1.6c0.2,0.6,0.1,1.3-0.7,1.6c-0.8,0.3-0.8,0.3-0.1,0.8c0.3,0.3,0.7,0.6,0.8,0.9
			c0.1,0.5,0.1,1.2-0.2,1.7c-0.3,0.6-0.9,0.6-1.4,0.4c-0.7-0.3-1-0.3-1.2,0.6c-0.1,0.4-0.4,0.8-0.6,1.2c-0.4,0.8-1.5,1.3-2.2,1
			c-0.5-0.2-1.1-1.6-0.9-2.2c0.1-0.3,0.3-0.5,0.4-0.8c0-0.2-0.2-0.5-0.3-0.5C4.7,44.9,4.6,44.1,6,43c0.1-0.1,0.3-0.1,0.4-0.2
			c0.3-0.2,0.7-0.4,1-0.6c-0.3-0.1-0.7-0.3-1-0.4c-0.3-0.1-0.7-0.4-0.6-0.6c0.1-0.6,0.3-1.3,0.7-1.7c0.5-0.6,1.3-0.9,1.7-1.4
			c0.2-0.3,0.1-0.9,0-1.3c0-0.1-0.4-0.1-0.6-0.1c-0.7,0.1-1.4,0.5-2,0.4c-0.6-0.1-1.3-0.5-1.5-1c-0.3-0.7-0.2-1.6,0.7-2.1
			c0.2-0.1,0.3-0.3,0.5-0.5c-0.2,0-0.4-0.1-0.7-0.1c-0.4,0-1,0.1-1.2-0.1c-0.4-0.4-0.8-0.9-0.8-1.4c0-0.3,0.6-0.8,1.1-1
			c1-0.3,1.3-0.9,1.2-1.8c-0.2-1.5,0.3-2.3,1.5-2.6c0.8-0.2,2.2,0.6,2.4,1.7c0.1,1,0.5,0.9,1.3,0.8c1.7-0.2,2.5,0.6,2.2,1.9
			c-0.1,0.5-0.4,1-0.7,1.4c-0.1,0.1-0.2,0.2-0.4,0.4c0.1,0,0.3,0,0.5,0.1c0.4,0.3,1.2,0.5,1.3,0.9c0.1,0.5,0,1.3-0.3,1.8
			c-0.3,0.5-1,0.7-1.4,1.1c-0.1,0.1-0.2,0.3-0.2,0.4c0.1,0,0.3,0.1,0.4,0.1c0.3,0,0.6,0.1,0.8-0.1c1.5-1.1,3-0.5,4.5-0.1
			c2.8,0.9,5,0,7.2-1.6c0.8-0.6,1.5-1.3,2.2-2c0.1-0.1,0.2-0.7,0.1-0.8c-1-0.7-1.2-1.8-1.5-2.9c-0.5-1.7-0.7-1.7-2.4-1.5
			c-1.4,0.1-2.8,0-4.2,0c-1.4,0-1.5-1.2-1.9-2.1c-0.1-0.3-0.3-0.6-0.4-0.9c-0.1,0.3-0.3,0.6-0.5,0.8c-0.5,0.6-1,1.5-1.7,1.7
			c-1,0.4-2-0.2-2.6-1c-0.3-0.4-0.6-0.6-1.1-0.6c-1.3,0.1-2.3-0.4-3.1-1.6c-0.2-0.4-1.1-0.3-1.6-0.5c-0.5-0.1-1.2,0-1.5-0.3
			c-0.4-0.4-0.8-1.1-0.7-1.5c0.1-0.4,0.7-1,1.2-1.2c0.6-0.3,1.3-0.1,2-0.3c0.5-0.2,1-0.5,1.2-1c0.4-0.7,1.1-1.2,1.8-1
			c0.8,0.2,1.8,0.5,1.8,1.7c0,0.3,0.2,0.6,0.3,0.8c0.2-0.2,0.3-0.3,0.5-0.5c1.1-1.3,2.4-1.3,3.7,0.1c0.2,0.2,0.6,0.2,0.8,0.2
			c0.2,0,0.4-0.2,0.6-0.2c0.8,0.1,1.1,0,0.9-1c-0.3-1,0.6-1.8,1.7-1.8c0.2,0,0.4,0,0.5,0c0.9,0.1,1.5,0,1.9-1c0.2-0.5,0.8-1,1.3-1.3
			c1-0.7,1.7-0.5,2.3,0.2c0.5,0.7,0.4,2.1-0.3,2.6c-0.7,0.4-0.7,0.9-0.6,1.4c0.1,1.7,0.1,1.9-2,2.1c-0.6,0-1,0.2-1,0.9
			c0,1.1-1,2-2.1,2c-0.3,0-0.6,0-1,0c-0.4,0-0.8,0.1-1.1,0.2c0.1,0.3,0.1,0.6,0.2,0.7c0.4,0.3,0.9,0.6,1.3,0.5
			c0.9-0.1,1.7-0.5,2.5-0.8c1.1-0.3,2.1-0.3,3.2,0.1c1.8,0.7,2.5,2,2.7,3.8c0.1,0.6,0.1,1.2,0.5,1.6c0.2,0.3,1,0.3,1.4,0.1
			c1.5-0.7,2.9-1.7,4.6-1.4c2.2,0.4,4.3,1.1,6.5,1.8c0.8,0.3,1.4,0.4,2.2-0.2c1.1-0.9,2.1-0.9,2.9,0.5c0.6,1,1.2,1.2,2.1,1
			c2.4-0.6,4.8-1.1,7.2-1.8c0.4-0.1,0.8-0.7,1-1.2c0.4-1.1,1.4-1.9,2.3-1.8c0.2,0,0.4,0.1,0.6,0.2c0.5,0.5,0.9,0.5,1.5,0.2
			c3.3-1.5,6.5-3,9-5.7c1.9-2.1,3.5-4.4,5.3-6.6c0.7-0.9,1.6-1.8,2.9-1.7c0.2,0,0.4-0.2,0.6-0.3c-0.1-0.2-0.1-0.4-0.3-0.6
			c-0.2-0.2-0.4-0.4-0.6-0.6c-1.5-1.2-2-0.8-2.7,0.5c-1.1,1.8-2.3,2.2-4.2,1.1c-0.3-0.1-0.8,0-1.1,0.1c-0.1,0-0.3,0.2-0.4,0.4
			c-1,0.9-2.1,0.7-2.6-0.6c-0.1-0.2-0.2-0.4-0.4-0.6c-0.1,0.2-0.3,0.4-0.2,0.6c0,0.6,0,1.3,0.3,1.7c1.3,1.7,1.2,2.5-0.7,3.3
			c0,0,0,0.2,0,0.3c0.1,0.4,0.4,0.8,0.4,1.3c0.1,0.9-0.8,1.5-1.9,1.1c-0.6-0.2-1.3-0.7-1.8-0.5c-0.5,0.1-0.9,0.9-1.3,1.4
			c-0.6,0.7-1.7,1.1-2.5,0.7c-0.6-0.4-0.8-1.5-0.4-2.4c0.1-0.3,0.2-0.6,0.4-0.9c0.7-0.8,0.7-1.4-0.1-2.1c-0.3-0.3-0.4-1.2-0.2-1.7
			c0.1-0.3,0.8-0.4,1.3-0.5c0.4-0.1,0.8,0,1.3,0c0.2,0,0.5-0.1,0.7-0.2c-0.1-0.2-0.3-0.4-0.4-0.6c-1.1-0.9-1.4-1.6-1-2.4
			c0.3-0.6,1.8-1.1,2.7-0.8c0.2,0,0.3,0.1,0.5,0.1c0.2,0,0.5,0,0.7,0c-0.2-0.1-0.4-0.3-0.5-0.5c-0.3-0.4-0.7-1.1-0.6-1.3
			C62.6,9.9,63.3,9,63.9,9c1.4-0.1,2.1-0.7,2.6-2c0.3-0.8,1.1-1.2,2-1.1c0.8,0.1,1.3,0.6,1.5,1.4c0.1,0.5,0.3,0.9,0.5,1.4
			c0.3-0.4,0.7-0.7,1-1.1c0.8-1,2.3-1.1,3-0.3c0.2,0.3,0.1,0.7,0.3,0.9c0.1,0.3-0.1,1.1,0.8,0.5c0.6-0.4,1.1-0.4,0.4-1.3
			c-0.4-0.4-0.9-1.3-0.2-1.8c0.6-0.4,1.5-0.5,2.2-0.3c0.7,0.2,0.9,0,1.2-0.5c0.4-1,1-1.8,2.2-1.7C82.3,3.2,83,3.9,83,4.7
			c0,0.6,0,1.1-0.2,1.6c-0.5,1,0.3,1.2,0.8,1.5c0.6,0.3,1.3,0.5,1,1.2c-0.2,0.5-0.8,0.9-1.3,1.3c-0.1,0.1-0.3,0.2-0.4,0.2
			c-0.8,0.2-0.8,0.2-0.6,1.1c0.2,0.9-0.5,1.2-1.1,1.4c-0.6,0.2-1.2,0.3-1.8,0.4c-0.2,0.1-0.3,0.2-0.5,0.3c0.2,0.1,0.3,0.3,0.5,0.4
			c1.8,0.6,3.6,1.1,5.3,1.7c0.4,0.1,0.7,0.4,1.1,0.7c-0.4,0.1-0.9,0.1-1.3,0.2C84.1,16.8,83.4,16.3,83.4,17.4
			c-0.4-0.1-0.8-0.3-1.1-0.4c-0.2,0-0.4,0-0.6,0c0.1,0.2,0.1,0.5,0.2,0.6c0.2,0.2,0.5,0.4,0.7,0.5c0.3,0.1,0.7,0,1.1,0
			C83.6,17.9,83.5,17.6,83.4,17.4 M44.1,64.8c0,0.3,0,0.6-0.1,0.9c-0.9,3-1.7,6-2.8,8.9c-1.1,2.9-2.5,5.7-3.8,8.5
			c-0.6,1.4-0.6,1.6,0.7,2.4c0.1,0.1,0.3,0.2,0.5,0.3c2.9,1.4,5.8,2.7,8.7,4.1c0.7,0.3,1.2,0.4,1.6-0.6c0.6-1.3,1.3-2.6,1.9-3.9
			c1.4-3.1,2.8-6.1,3.9-9.3c0.9-2.5,1.5-5.1,2.2-7.7c0.4-1.4,0.6-2.9,0.8-4.4c0.4-2.2,0.7-4.5,1.1-6.7c0.3-1.7,0.7-3.3,0.8-5
			c0.1-1.2,0.4-2.6-0.7-3.6C58.1,48,58.1,47,58.3,46c0.1-0.5,0.1-1.1-0.1-1.6c-0.5-1.5-1.1-3-1.7-4.5c-0.4-1.1-0.8-1.5-1.9-1.1
			c-1.8,0.6-3.6,0.6-5.5,0.6c-1.3,0-2.5-0.1-2.7,1.6c0,0.2-0.4,0.3-0.5,0.5c-0.4,0.6-0.9,1.3-1.1,2c-0.2,0.6,0,1.4-0.3,1.9
			c-0.6,1-0.4,1.4,0.6,1.7c0.2,0,0.3,0.2,0.5,0.3c-0.2,0.1-0.3,0.3-0.5,0.3c-0.6,0.1-0.8,0.5-0.8,1.1c0.1,0.9,0.2,1.8,0.2,2.8
			C44.5,56,44.4,60.3,44.1,64.8 M36.7,85.8c-1.1,0.1-1.1,1.3-1.6,1.8c-0.2,0.3-0.4,0.6-0.7,0.7C33,89,33,89.6,33.4,90.8
			c0,0.1-0.1,0.3-0.2,0.3c-0.5,0.1-2.1-1.3-2.1-1.8c0-0.1,0.2-0.2,0.4-0.3c0.4-0.3,1.1-0.5,1.2-0.9c0.3-0.7,0.5-1.1,1.3-1.2
			c0.4-0.1,0.7-0.7,0.9-1.1c0.1-0.2,0-0.8-0.3-0.9c-0.8-0.4-1.6-1-2.4-1.1c-0.4,0-0.9,0.9-1.4,1.4c-0.2,0.2-0.3,0.3-0.5,0.5
			c-1.4,1.5-2.8,3-4.1,4.6c-0.3,0.4-0.4,1.4-0.2,1.6c2,2,4,3.9,6.2,5.6c2.4,1.8,5.1,3.3,7.7,4.9c2.8,1.7,5.6,3.2,8.8,3.9
			c0.9,0.2,0.7-0.4,1-0.6c0.1-0.1,0.1-0.5,0.2-0.8c0.6-2.4,2-4.3,3.5-6.2c1.1-1.5,2.4-2.9,3.7-4.3c0.1-0.2,0.4-0.3,0.6-0.4
			c-0.3-0.1-0.5-0.3-0.7-0.3c-2.6-0.1-5.1-0.7-7.5-1.7c-0.2-0.1-0.7,0.2-0.7,0.4c-0.5,1-1.5,1.7-1.3,3c0,0.1-0.3,0.3-0.4,0.4
			c-0.6,0.6-1.6,1.1-1.3,2.2c0.1,0.3,0.1,0.6,0.1,0.9c-0.4-0.1-0.8-0.2-1.2-0.4c-0.3-0.1-0.5-0.4-0.7-0.7c-0.3-0.3-0.6-0.7-1-1
			c0.4-0.1,1-0.1,1.3-0.3c0.4-0.2,0.7-0.6,1-1c0.1-0.1-0.3-0.5-0.5-0.7c-0.1-0.1-0.2-0.2-0.3-0.3c0.2-0.1,0.4-0.4,0.5-0.4
			c1.8,0.3,1.9-1.4,2.6-2.4c0.1-0.1-0.1-0.8-0.4-0.9c-0.8-0.5-1.6-0.8-2.5-1.2C42.1,88.6,39.4,87.2,36.7,85.8 M52.6,38.1
			c0.6-0.1,1.3-0.2,1.9-0.4c0.6-0.2,1.4-0.2,1.1-1.2c-0.4-1.2-0.6-2.3-0.3-3.6c0.1-0.2-0.3-0.6-0.4-0.9c-0.1,0.2-0.2,0.5-0.4,0.7
			c-0.4,0.5-0.8,1.1-1.4,1.4c-2.1,1-4.2,1.7-6.6,1.3c-1.1-0.1-2.1-0.2-3.2-0.2c-0.4,0-0.9,0.1-1.1,0.3c-0.5,0.9,0.2,2.4,1.2,2.6
			c0.7,0.1,1.4,0.2,2.1,0.2C47.9,38.3,50.2,38.2,52.6,38.1 M69.6,10.6c1-0.1,2-0.2,3-0.2c1.2-0.1,1.5-0.4,1.3-1.6
			c-0.1-0.3-0.3-0.6-0.5-1c-0.3,0.2-0.7,0.4-1,0.6c-0.5,0.3-0.9,1-1.4,1c-1.6,0.2-1.6-0.1-2-1.7c-0.1-0.3-0.3-0.6-0.5-0.8
			c-0.3,0.2-0.7,0.4-1,0.6c-0.1,0.1-0.1,0.4-0.2,0.6c-0.7,1.1-1.4,1.8-2.8,1.8c-0.4,0-0.8,0.5-1.2,0.8c0.3,0.2,0.6,0.6,1,0.7
			c1.7,0.4,2.1,0.9,2.4,2.5c0,0.3,0.3,0.5,0.4,0.7c0.2-0.1,0.5-0.3,0.6-0.5c0.9-1.4,1.7-1.6,2.9-0.3c0.6,0.6,1.1,0.6,1.7,0
			c0.7-0.7,1.3-1.4,2-2.2c0.1-0.1,0.2-0.2,0.2-0.3c-0.1,0-0.3-0.1-0.4-0.1c-0.2,0-0.4,0.1-0.6,0.1c-1.6,0.1-3.2,0.2-4.8,0.3
			c-0.1,0-0.4-0.2-0.5-0.3c0-0.1,0.1-0.4,0.3-0.5C68.7,10.7,69,10.7,69.6,10.6 M14.8,21.9c-0.7-1.6-1.2-1.8-2.2-0.9
			c-0.1,0-0.1,0.1-0.2,0.1c-1.3,1.4-1.9,1.2-2.6-0.7c-0.1-0.3-0.5-0.8-0.8-0.7c-0.3,0-0.8,0.4-0.9,0.7c-0.3,0.7-0.7,1-1.5,1
			c-0.6,0-1.2,0.1-1.8,0.2c-0.4,0.1-0.9,0.3-0.7,0.8c0.1,0.2,0.6,0.2,1,0.3c0.9,0,1.8-0.1,2.4,0.9c0.5,0.8,1.1,1.5,2.4,1
			c0.7-0.3,1.5,0,2,0.9c0.2,0.4,0.8,0.6,1.3,0.7c0.5,0.1,2.3-2.2,2.2-2.7c0,0-0.1,0-0.2,0c-0.2,0-0.3,0.2-0.5,0.2
			c-1.9,0-3.8,0-5.6-0.1c-0.4,0-0.7-0.3-1.1-0.5c0.3-0.1,0.7-0.4,1-0.4c1.7,0,3.5,0,5.2,0c0.1,0,0.1,0.2,0.2,0.2
			c0.2,0.1,0.5,0.1,0.7,0.1C14.9,22.7,14.8,22.4,14.8,21.9 M7.8,28.5c-0.3-0.3-0.4-0.8-0.7-0.9c-0.8-0.3-1.4,0.6-1.1,1.6
			c0.3,1.1-0.1,1.8-1.2,2.2c-0.2,0.1-0.5,0.1-0.7,0.3c-0.2,0.1-0.3,0.3-0.5,0.4c0.2,0.1,0.4,0.4,0.6,0.4c0.4,0.1,0.8,0,1.3,0
			c0.3,0.1,0.8,0.3,0.9,0.6c0.1,0.3,0.1,0.8-0.1,1.1c-0.2,0.4-0.7,0.7-0.9,1C5.1,35.2,5,35.6,5,35.7C5.2,35.9,5.5,36,5.7,36
			c0.7-0.2,1.5-0.3,2-0.8c0.2-0.3-0.1-1.1-0.2-1.7c0,0-0.1,0-0.1-0.1C7.2,32.6,7,31.8,6.9,31c0-0.2,0.2-0.4,0.3-0.7
			c0.2,0.2,0.4,0.3,0.5,0.6c0.2,0.4,0.3,0.8,0.4,1.3c0.4,1.5,0.7,3,1.1,4.4c0,0.1,0.4,0.2,0.4,0.1c0.6-0.6,1.1-1.2,1.6-1.8
			c0.2-0.3,0.3-0.7,0.5-1.1c-0.3-0.1-0.7-0.2-1-0.3c-0.3-0.1-0.6-0.2-0.9-0.2c-0.8-0.1-0.6-0.6-0.4-1c0.3-0.5,0.7-0.8,1-1.3
			c0.2-0.3,0.4-0.7,0.6-1c-0.4,0-0.9-0.1-1.3,0C8.6,30.3,8,30,7.8,28.5 M21,49.6c0.2-0.5-0.1-1.5,1-1.3c0.3,0.1,0.4,0.5,0.7,0.6
			c0.3,0.1,0.7,0.2,1.1,0.2c0-0.3,0.2-0.6,0.1-0.8c-0.1-0.4-0.3-0.9-0.6-1.2c-0.4-0.4-0.7-0.7,0.1-1c1.1-0.5,1.1-0.9,0-1.7
			c-0.3-0.2-0.5-0.4-0.8-0.6c-0.3-0.1-0.6-0.4-0.6,0.3c0,0.8-0.1,1.6-0.3,2.4c0,0.1-0.3,0.2-0.4,0.3c0-0.1-0.1-0.3-0.1-0.4
			C21,45.2,21,44,20.9,42.9c0-0.1-0.2-0.4-0.2-0.3c-0.8,0.4-1.6,0.7-2.3,1.3c-0.4,0.3-0.6,1-0.8,1.4c0.5-0.1,1-0.2,1.5-0.3
			c0.3-0.1,0.7-0.1,1-0.1c-0.1,0.4-0.1,0.9-0.2,1.3c-0.1,0.2-0.4,0.4-0.6,0.5c-0.5,0.5-1.1,1-1.6,1.5c-0.1,0.1-0.1,0.4-0.1,0.6
			c0.2,0,0.3-0.1,0.5-0.1c0.4-0.1,0.7-0.3,1.1-0.4c0.2-0.1,0.5,0,0.7-0.1c0,0.2,0,0.5-0.1,0.7c-0.6,0.8-0.6,1.7-0.6,2.6
			c0,0.2,0.1,0.6,0.2,0.6c0.2,0,0.7,0,0.7-0.2C20.4,51.1,20.7,50.4,21,49.6 M78.5,9.3c0.4-0.4,0.7-0.8,1.1-1.1
			C79.7,8,80,7.9,80.2,7.8c0,0.2,0.1,0.5,0.1,0.7c0,0.3-0.1,0.6-0.3,0.7c-0.9,0.8-1.5,2-2.8,2.2c-0.1,0-0.1,0.5-0.1,0.5
			c1,0.4,2,1.1,3.1,0.5c0.4-0.2,0.7-0.5,1.1-0.8c-0.4-0.2-0.7-0.4-1.1-0.6c-0.1-0.1-0.3-0.2-0.4-0.3c0.1-0.1,0.2-0.3,0.3-0.4
			c0.7-0.3,1.5-0.6,2.3-0.8c0.4-0.2,0.8-0.4,1.2-0.6c-0.3-0.2-0.7-0.4-1-0.4c-0.7-0.2-1.2-0.6-1.1-1.3c0-0.6,0.2-1.2,0.2-1.8
			c0-0.4-0.1-0.7-0.2-1.1c-0.4,0.3-0.7,0.5-1,0.8c-0.1,0.1-0.2,0.4-0.2,0.6c-0.2,0.7-0.6,1.1-1.4,1c-0.5-0.1-1-0.1-1.5-0.2
			c-0.2,0-0.4,0.1-0.7,0.1C76.8,6.6,76.9,6.9,77,7c1,1,1.1,1.6-0.6,2.5c-0.1,0.1-0.3,0.1-0.4,0.2c-0.1,0.1-0.3,0.2-0.4,0.3
			c0.2,0.1,0.3,0.3,0.5,0.3C77.1,10.5,77.7,10,78.5,9.3 M61.9,18.4c-0.3-0.1-1.1,0.3-0.6-0.6c0.1-0.1-0.3-0.8-0.5-0.8
			c-0.5-0.1-1.1,0.1-1.6,0.1c-0.3,0-0.5,0.1-0.8,0.2c0.2,0.2,0.3,0.4,0.5,0.6c0.7,0.6,1,1.2,0.4,2.1c-0.4,0.6-0.8,1.3-1.1,2
			c-0.1,0.2,0,0.5,0,0.8c0.2-0.1,0.5-0.1,0.7-0.3c0.3-0.3,0.6-0.7,0.8-1c0.6-1.2,1.7-1.7,3.3-0.7c0.2,0.1,0.5,0.2,0.7,0.3
			c0-0.3,0.1-0.6,0.1-0.9c0-0.2-0.2-0.4-0.3-0.6c-0.5-1-0.4-1.2,0.7-1.3c0.9-0.1,1.1-0.4,0.6-1.2c-0.3-0.5-0.5-1.1-0.8-1.7
			c-0.1-0.2-0.3-0.4-0.4-0.5c-0.1,0.2-0.3,0.3-0.4,0.5C62.9,16.5,62.5,17.5,61.9,18.4 M9.9,41.6c-0.2,0.7-0.4,1.3-0.7,2
			c0,0.1-0.3,0-0.5,0.1c0-0.1,0-0.1,0-0.2c0-0.9,0.1-1.9,0.1-2.8c0-0.5-0.1-0.9-0.1-1.4c-0.3,0.3-0.6,0.5-1,0.8
			c-0.2,0.1-0.4,0.2-0.6,0.3c-0.1,0.1-0.3,0.3-0.4,0.4c0.1,0.1,0.3,0.1,0.5,0.2c0.2,0.1,0.4,0.2,0.7,0.2c0.9,0.1,1.1,0.5,0.5,1.2
			c-0.6,0.6-1.3,1.1-1.9,1.7c-0.1,0.1-0.3,0.3-0.4,0.4c0.2,0,0.4,0.1,0.6,0.1c1,0,1.5,0.6,1.3,1.3c-0.1,0.3-0.3,0.7-0.3,1
			c0,0.5,0,1,0,1.5c0.4-0.4,0.8-0.8,1.1-1.2c0.1-0.1,0-0.2,0-0.3c0.6-1.7,0.3-1.9,2.4-1.5c0.5,0.1,0.7-0.1,0.5-0.5
			c-0.1-0.3-0.4-0.5-0.6-0.7c-0.8-0.6-0.9-1.9-0.1-2.3c1-0.5,0.4-1,0.1-1.4c-0.4-0.4-0.9-0.6-1.4-1c0,0.5,0.1,1,0.1,1.5
			C9.9,41.1,9.9,41.2,9.9,41.6 M39.6,35.9c0.1-0.5,0.3-1.1,0.4-1.6c0.4-1.2,0.4-1.2-0.8-1.3c-0.5,0-1-0.3-1.5-0.3
			c-0.4,0-0.9,0.1-1.4,0.1c-0.5,0-1,0-1.4,0c-0.8,0-1.5,0.1-2.3,0.2c-0.3,0-0.5,0.4-0.7,0.6c0.3,0.1,0.6,0.3,0.9,0.3
			c1.3-0.1,2.4,0.3,3.4,1.1c0.8,0.6,1.6,1.1,2.4,1.6C38.9,36.8,39.4,36.8,39.6,35.9 M23.6,18c0.1-0.1,0.4-0.3,0.4-0.4
			c0.1-0.5,0.2-1,0.2-1.4c-0.3,0.2-0.7,0.3-1,0.5c-0.2,0.2-0.5,0.4-0.6,0.6c-0.3,1.7-1.5,1.7-2.8,1.6c-0.1,0-0.2,0-0.3,0
			c-0.3,0.1-0.6,0.3-0.7,0.5c-0.1,0.3,0,0.7,0,1.1c0.2-0.2,0.4-0.4,0.7-0.6c0.1-0.1,0.2-0.1,0.4-0.1c0.3-0.1,0.7-0.1,1-0.2
			c-0.1,0.3-0.2,0.7-0.4,0.9c-0.9,0.9-1.9,1.8-2.9,2.7c-0.1,0.1-0.3,0.5-0.2,0.6c0.6,0.5,2.5-0.2,2.7-1c0.4-1.8,0.9-1.9,2.3-1.9
			c0.9,0,1.1-0.6,0.8-1.1C22.9,19,23.1,18.6,23.6,18 M53.8,102.2c1.2-2,2.5-4,3.7-6c0.1-0.2,0-0.4,0.1-0.7c-0.2,0.1-0.4,0.1-0.5,0.3
			c-1,1.2-2,2.4-2.8,3.7c-1.1,1.8-2.1,3.7-3,5.5c-0.3,0.6-0.4,1.4,0.1,2c0.1,0.1,0.3,0.2,0.5,0.3c0-0.1,0.1-0.2,0.1-0.3
			C52.2,105.4,52.7,103.8,53.8,102.2 M60.9,40.7c0.1-0.3,0.2-0.6,0.2-0.8c0-0.6-0.1-1.2-0.1-1.8c-0.4,0-0.8,0.1-1.2,0.1
			c-0.1,0-0.2,0-0.3,0c-1,0.1-1.2,0.3-0.8,1.3c0.3,0.7,0.6,1.4,0.9,2.2c0.1,0.3,0.2,0.6,0.3,0.9c0.2-0.3,0.5-0.5,0.7-0.8
			C60.6,41.4,60.7,41.1,60.9,40.7 M88.8,24.1c-1.7,0.2-3.5-0.4-5.1,0.4c-0.1,0.1-0.4-0.1-0.7-0.2c-0.3-0.1-0.6-0.2-0.8-0.2
			c-0.1,0-0.3,0-0.5,0.1c0.1,0.1,0.1,0.3,0.2,0.4c0.6,0.7,1.5,0.7,2.2,0.2c0.1-0.1,0.4-0.1,0.6-0.1c1.7,0.1,3.3,0.2,5,0.2
			c0.5,0,1-0.2,1.4-0.4c0.2-0.1,0.3-0.4,0.4-0.6c-0.2-0.1-0.4-0.2-0.6-0.2C90.3,23.8,89.7,24,88.8,24.1 M33.3,100.7
			c0.6,0.4,1.2,0.9,1.8,1.3c0.6,0.4,1,1.5,1.9,0.6c0,0,0.4,0.2,0.4,0.3c-0.1,0.9,0.5,1.1,1.1,1.6c0.6,0.4,0.9,0.7,0.9-0.3
			c0-0.3-0.2-0.8-0.4-1c-1.5-1-2.9-2-4.5-3C34,99.9,33.4,99.7,33.3,100.7 M61.3,34.3c-0.4,0.1-0.9,0.2-1.3,0.4
			c-0.9,0.5-2.1,0.8-2.4,2c-0.1,0.3,0.1,0.6,0.2,0.8c0.2-0.2,0.4-0.3,0.6-0.5c0.6-0.5,1-1.3,1.7-1.5c1-0.3,2.1-0.1,3.1-0.2
			c0.5,0,1-0.1,1.5-0.3c0.1,0,0.2-0.3,0.3-0.4c-0.1-0.1-0.3-0.2-0.4-0.2C63.6,34.5,62.5,34.4,61.3,34.3 M40.8,105.6
			c0.2,0.1,0.4,0.3,0.6,0.3c1.1,0.1,2.1,0.7,2.9,1.4c0.2,0.2,0.6,0.3,0.9,0.4c0-0.4,0-0.9-0.2-1.3c0-0.2-0.4-0.3-0.6-0.4
			c-1.3-0.7-2.5-1.3-3.7-2c-0.1,0-0.4,0.1-0.4,0.1C40.5,104.7,40.6,105.1,40.8,105.6 M49.1,108.4c-0.1,1,0.3,1.3,1.3,1.4
			c0.4,0.1,0.6,0,0.4-0.3c-0.3-1-0.6-2.1-2.1-2.2c-0.5,0-1-0.2-1.6-0.3c-0.3,0-0.5,0-0.8,0c0.1,0.5,0.1,1,0.3,1.4
			c0.1,0.3,0.6,0.3,1,0.4c0.1,0,0.3-0.1,0.4-0.2c0.1-0.3,0.1-0.6,0.2-0.8C48.5,108,48.7,108.2,49.1,108.4 M29.8,96.7
			c-0.4-0.3-0.8-0.7-1.3-1c-0.8-0.7-1.6-1.3-2.4-2c-0.1-0.1-0.3-0.1-0.4-0.2c0,0.2,0,0.4,0,0.5c0.1,0.2,0.3,0.3,0.4,0.5
			c1.4,1.3,2.7,2.6,4.1,3.9c0.5,0.5,1.1,1,1.6,1.4c0.1,0.1,0.4,0.1,0.6,0.1c0-0.3,0.1-0.5,0-0.7c0-0.1-0.2-0.3-0.4-0.4
			C31.5,98.1,30.7,97.5,29.8,96.7 M62.3,13.1c-0.7-0.1-1.6,0-1.9,0.7c-0.1,0.3,0.6,0.9,1,1.4c0,0,0,0.1,0.1,0.1c0.2,0,0.6,0,0.6-0.1
			c0.4-0.9,1.2-1.2,2.1-1.2c0.1,0,0.2-0.1,0.4-0.1c-0.1-0.1-0.1-0.4-0.2-0.4C63.7,13.3,63.2,13.2,62.3,13.1 M49.6,33.7
			c-0.6,0.1-1.1,0.4-1.7,0.4c-1.5-0.1-3-0.3-4.5-0.4c-0.2,0-0.4,0.1-0.7,0.2c0.2,0.1,0.4,0.4,0.6,0.4c2.3,0.3,4.6,0.6,6.8-0.2
			c0.4-0.2,0.8-0.5,1.3-0.7c-0.4,0-0.8,0.1-1.2,0.1C50.1,33.5,49.9,33.6,49.6,33.7 M72.2,21.5c-0.1-0.2-0.1-0.4-0.2-0.6
			c-0.2,0.1-0.4,0.2-0.5,0.3c-1,1.1-2.1,2.2-3.1,3.3c-0.1,0.1-0.1,0.3-0.2,0.4c0.1,0,0.4,0.1,0.5,0.1C70.1,24.1,71.5,23.3,72.2,21.5
			 M43.5,40.5c0.1,0.1,0.2,0.1,0.2,0.2c0.4,1.1,0.4,1.1,1.3,0.1c0.1-0.1,0.1-0.3,0.3-0.4c0.5-0.6,0.7-1.1-0.5-1
			c-0.4,0-0.9-0.3-1.3-0.4c-0.3,0-0.6,0-0.9,0c0.1,0.3,0.2,0.6,0.4,0.9C43,40.1,43.2,40.2,43.5,40.5 M31.9,32.7
			c0.2-0.2,0.4-0.4,0.6-0.7c-0.4,0-0.8-0.1-1.2,0c-0.8,0.3-1.6,0.7-2.4,1.1c-0.2,0.1-0.4,0.1-0.6,0.2c0.3,0.2,0.5,0.4,0.8,0.5
			c0.2,0.1,0.5,0,0.8-0.1C30.5,33.4,31.2,33.1,31.9,32.7 M25.7,35.4c0.1,0.2,0.4,0.6,0.4,0.6c0.9-0.3,1.7-0.7,2.6-1.1
			c0.1-0.1,0.2-0.3,0.3-0.4c-0.2-0.1-0.4-0.2-0.5-0.1C27.5,34.6,26.7,34.9,25.7,35.4 M88.8,26.3c0.2-0.1,0.5-0.2,0.7-0.3
			c-0.2-0.1-0.4-0.3-0.7-0.3c-0.5,0-1,0.1-1.5,0.2c-0.6,0.1-1.1,0.1-1.6,0.1c0.6,0.2,1.1,0.4,1.7,0.5C87.8,26.5,88.2,26.3,88.8,26.3
			 M16.5,21.7c-0.1,0.5-0.3,1-0.4,1.5c0.3-0.2,0.6-0.4,1-0.6c0.1,0,0.1-0.1,0.1-0.1c0.3-0.4,0.7-0.7,1-1
			C17.6,21.5,17.1,21.5,16.5,21.7 M66.6,27.1c0.4-0.2,0.9-0.5,1.4-0.7c0.1,0,0.1-0.1,0.2-0.2c-0.1,0-0.2-0.1-0.3-0.1
			c-0.6,0.1-1.2,0.1-1.8,0.3c-0.4,0.1-0.7,0.4-1.1,0.7c0.4,0,0.8,0.1,1.1,0.1C66.2,27.1,66.3,27.1,66.6,27.1 M41.5,34.6
			c-0.1-0.1-0.4-0.2-0.4-0.2c-0.4,0.3-0.7,2.3-0.4,2.7c0,0.1,0.1,0.1,0.2,0.1c0.1-0.1,0.1-0.3,0.2-0.4
			C41.2,36.2,41.3,35.5,41.5,34.6 M57.9,29.4c0-0.2,0-0.4,0-0.6c-0.4,0.3-0.9,0.6-1.3,0.9c-0.1,0.1,0,0.4,0.1,0.6
			c0.3-0.2,0.7-0.4,1-0.6C57.7,29.6,57.7,29.6,57.9,29.4 M60.9,36.9c0.2-0.2,0.3-0.3,0.5-0.5c-0.2,0-0.5-0.2-0.7-0.1
			c-0.4,0.1-0.7,0.4-1,0.6C60,36.9,60.3,36.9,60.9,36.9 M34.8,32.2c0.3-0.1,0.6-0.2,0.9-0.3c-0.1,0-0.2-0.1-0.3-0.1
			C35.2,31.9,34.9,32,34.8,32.2 M56.2,31.1c0,0.2,0,0.4,0,0.6c0.1,0,0.2,0,0.3,0C56.4,31.5,56.3,31.3,56.2,31.1 M64.3,12.7
			c0.1,0,0.2,0.1,0.3,0.1c0-0.1,0-0.2-0.1-0.4C64.3,12.6,64.2,12.6,64.3,12.7 M81.6,16.7c0,0,0-0.1,0.1-0.1
			C81.7,16.6,81.6,16.6,81.6,16.7"/>
		<path class="st0" d="M40,96c-0.7-0.3-1.2-0.5-1.8-0.8c-0.1-0.1-0.2-0.4-0.3-0.6c0.2-0.1,0.4-0.3,0.6-0.3c1,0.4,1.9,0.8,2.8,1.2
			c0.1,0.1,0.1,0.3,0.2,0.5c-0.2,0.1-0.4,0.2-0.5,0.2C40.7,96.2,40.4,96.1,40,96"/>
		<path class="st0" d="M47.4,100.9c-0.2-0.1-0.4-0.1-0.4-0.2c-0.1-0.2-0.3-0.4-0.4-0.6c0.2-0.1,0.5-0.3,0.7-0.2
			c0.8,0.5,1.6,1.1,2.3,1.6c0.1,0.1,0.1,0.4,0.1,0.6c-0.2,0-0.5,0-0.6-0.1C48.5,101.6,48,101.2,47.4,100.9"/>
	</g>
	<g id="Form_4_2_">
		<desc  xmlns:shape="http://adobe.com/products/shape"></desc>
		<path class="st1" d="M16,25.9c-0.1-0.3-0.3-0.6-0.4-0.9c-0.1,0.3-0.3,0.6-0.5,0.8c-0.5,0.6-1,1.5-1.7,1.7c-1,0.4-2-0.2-2.6-1
			c-0.3-0.4-0.6-0.6-1.1-0.6c-1.3,0.1-2.3-0.4-3.1-1.6c-0.2-0.4-1.1-0.3-1.6-0.5c-0.5-0.1-1.2,0-1.5-0.3c-0.4-0.4-0.8-1.1-0.7-1.5
			c0.1-0.4,0.7-1,1.2-1.2c0.6-0.3,1.3-0.1,2-0.3c0.5-0.2,1-0.5,1.2-1c0.4-0.7,1.1-1.2,1.8-1c0.8,0.2,1.8,0.5,1.8,1.7
			c0,0.3,0.2,0.6,0.3,0.8c0.2-0.2,0.3-0.3,0.5-0.5c1.1-1.3,2.4-1.3,3.7,0.1c0.2,0.2,0.6,0.2,0.8,0.2c0.2,0,0.4-0.2,0.6-0.2
			c0.8,0.1,1.1,0,0.9-1c-0.3-1,0.6-1.8,1.7-1.8c0.2,0,0.4,0,0.5,0c0.9,0.1,1.5,0,1.9-1c0.2-0.5,0.8-1,1.3-1.3c1-0.7,1.7-0.5,2.3,0.2
			c0.5,0.7,0.4,2.1-0.3,2.6c-0.7,0.4-0.7,0.9-0.6,1.4c0.1,1.7,0.1,1.9-2,2.1c-0.6,0-1,0.2-1,0.9c0,1.1-1,2-2.1,2c-0.3,0-0.6,0-1,0
			c-0.4,0-0.8,0.1-1.1,0.2c0.1,0.3,0.1,0.6,0.2,0.7L16,25.9z M10.7,38.1c-0.1,0-0.3,0.1-0.4,0.1c0.1,0.1,0.1,0.3,0.3,0.4
			c0.3,0.3,0.7,0.4,1,0.7c0.5,0.5,1,1,1.3,1.6c0.2,0.6,0.1,1.3-0.7,1.6c-0.8,0.3-0.8,0.3-0.1,0.8c0.3,0.3,0.7,0.6,0.8,0.9
			c0.1,0.5,0.1,1.2-0.2,1.7c-0.3,0.6-0.9,0.6-1.4,0.4c-0.7-0.3-1-0.3-1.2,0.6c-0.1,0.4-0.4,0.8-0.6,1.2c-0.4,0.8-1.5,1.3-2.2,1
			c-0.5-0.2-1.1-1.6-0.9-2.2c0.1-0.3,0.3-0.5,0.4-0.8c0-0.2-0.2-0.5-0.3-0.5C4.7,44.9,4.6,44.1,6,43c0.1-0.1,0.3-0.1,0.4-0.2
			c0.3-0.2,0.7-0.4,1-0.6c-0.3-0.1-0.7-0.3-1-0.4c-0.3-0.1-0.7-0.4-0.6-0.6c0.1-0.6,0.3-1.3,0.7-1.7c0.5-0.6,1.3-0.9,1.7-1.4
			c0.2-0.3,0.1-0.9,0-1.3c0-0.1-0.4-0.1-0.6-0.1c-0.7,0.1-1.4,0.5-2,0.4c-0.6-0.1-1.3-0.5-1.5-1c-0.3-0.7-0.2-1.6,0.7-2.1
			c0.2-0.1,0.3-0.3,0.5-0.5c-0.2,0-0.4-0.1-0.7-0.1c-0.4,0-1,0.1-1.2-0.1c-0.4-0.4-0.8-0.9-0.8-1.4c0-0.3,0.6-0.8,1.1-1
			c1-0.3,1.3-0.9,1.2-1.8c-0.2-1.5,0.3-2.3,1.5-2.6c0.8-0.2,2.2,0.6,2.4,1.7c0.1,1,0.5,0.9,1.3,0.8c1.7-0.2,2.5,0.6,2.2,1.9
			c-0.1,0.5-0.4,1-0.7,1.4c-0.1,0.1-0.2,0.2-0.4,0.4c0.1,0,0.3,0,0.5,0.1c0.4,0.3,1.2,0.5,1.3,0.9c0.1,0.5,0,1.3-0.3,1.8
			c-0.3,0.5-1,0.7-1.4,1.1c-0.1,0.1-0.2,0.3-0.2,0.4c0.1,0,0.3,0.1,0.4,0.1c0.3,0,0.6,0.1,0.8-0.1L10.7,38.1z M22.1,40.5
			c-0.5,0.7,0.1,1.9,1,2.5c0.7,0.4,1.3,0.9,1.9,1.4c0.7,0.6,0.6,1.3,0.1,2c-0.2,0.3-0.1,0.7-0.1,1.1c0,0.7,0.2,1.6-0.1,2.1
			c-0.3,0.4-1.3,0.6-1.9,0.5c-0.8-0.2-0.8,0-1,0.7c-0.2,1.4-1.1,2.1-2.3,2.1c-1,0-1.7-0.6-1.7-1.7c0-0.8,0.2-1.5-1-1.8
			c-0.8-0.2-0.6-2,0.3-2.6c0.2-0.1,0.3-0.3,0.5-0.5c-0.2,0-0.4-0.1-0.6-0.1c-0.7-0.2-1-1.4-0.6-2.2c0.6-1.1,1.6-1.7,2.8-2
			c0.7-0.2,1-0.4,1.1-1.1L22.1,40.5z M14.8,21.9c-0.7-1.6-1.2-1.8-2.2-0.9c-0.1,0-0.1,0.1-0.2,0.1c-1.3,1.4-1.9,1.2-2.6-0.7
			c-0.1-0.3-0.5-0.8-0.8-0.7c-0.3,0-0.8,0.4-0.9,0.7c-0.3,0.7-0.7,1-1.5,1c-0.6,0-1.2,0.1-1.8,0.2c-0.4,0.1-0.9,0.3-0.7,0.8
			c0.1,0.2,0.6,0.2,1,0.3c0.9,0,1.8-0.1,2.4,0.9c0.5,0.8,1.1,1.5,2.4,1c0.7-0.3,1.5,0,2,0.9c0.2,0.4,0.8,0.6,1.3,0.7
			c0.5,0.1,2.3-2.2,2.2-2.7c0,0-0.1,0-0.2,0c-0.2,0-0.3,0.2-0.5,0.2c-1.9,0-3.8,0-5.6-0.1c-0.4,0-0.7-0.3-1.1-0.5
			c0.3-0.1,0.7-0.4,1-0.4c1.7,0,3.5,0,5.2,0c0.1,0,0.1,0.2,0.2,0.2c0.2,0.1,0.5,0.1,0.7,0.1C14.9,22.7,14.8,22.4,14.8,21.9
			 M7.8,28.5c-0.3-0.3-0.4-0.8-0.7-0.9c-0.8-0.3-1.4,0.6-1.1,1.6c0.3,1.1-0.1,1.8-1.2,2.2c-0.2,0.1-0.5,0.1-0.7,0.3
			c-0.2,0.1-0.3,0.3-0.5,0.4c0.2,0.1,0.4,0.4,0.6,0.4c0.4,0.1,0.8,0,1.3,0c0.3,0.1,0.8,0.3,0.9,0.6c0.1,0.3,0.1,0.8-0.1,1.1
			c-0.2,0.4-0.7,0.7-0.9,1C5.1,35.2,5,35.6,5,35.7C5.2,35.9,5.5,36,5.7,36c0.7-0.2,1.5-0.3,2-0.8c0.2-0.3-0.1-1.1-0.2-1.7
			c0,0-0.1,0-0.1-0.1C7.2,32.6,7,31.8,6.9,31c0-0.2,0.2-0.4,0.3-0.7c0.2,0.2,0.4,0.3,0.5,0.6c0.2,0.4,0.3,0.8,0.4,1.3
			c0.4,1.5,0.7,3,1.1,4.4c0,0.1,0.4,0.2,0.4,0.1c0.6-0.6,1.1-1.2,1.6-1.8c0.2-0.3,0.3-0.7,0.5-1.1c-0.3-0.1-0.7-0.2-1-0.3
			c-0.3-0.1-0.6-0.2-0.9-0.2c-0.8-0.1-0.6-0.6-0.4-1c0.3-0.5,0.7-0.8,1-1.3c0.2-0.3,0.4-0.7,0.6-1c-0.4,0-0.9-0.1-1.3,0
			C8.6,30.3,8,30,7.8,28.5 M21,49.6c0.2-0.5-0.1-1.5,1-1.3c0.3,0.1,0.4,0.5,0.7,0.6c0.3,0.1,0.7,0.2,1.1,0.2c0-0.3,0.2-0.6,0.1-0.8
			c-0.1-0.4-0.3-0.9-0.6-1.2c-0.4-0.4-0.7-0.7,0.1-1c1.1-0.5,1.1-0.9,0-1.7c-0.3-0.2-0.5-0.4-0.8-0.6c-0.3-0.1-0.6-0.4-0.6,0.3
			c0,0.8-0.1,1.6-0.3,2.4c0,0.1-0.3,0.2-0.4,0.3c0-0.1-0.1-0.3-0.1-0.4C21,45.2,21,44,20.9,42.9c0-0.1-0.2-0.4-0.2-0.3
			c-0.8,0.4-1.6,0.7-2.3,1.3c-0.4,0.3-0.6,1-0.8,1.4c0.5-0.1,1-0.2,1.5-0.3c0.3-0.1,0.7-0.1,1-0.1c-0.1,0.4-0.1,0.9-0.2,1.3
			c-0.1,0.2-0.4,0.4-0.6,0.5c-0.5,0.5-1.1,1-1.6,1.5c-0.1,0.1-0.1,0.4-0.1,0.6c0.2,0,0.3-0.1,0.5-0.1c0.4-0.1,0.7-0.3,1.1-0.4
			c0.2-0.1,0.5,0,0.7-0.1c0,0.2,0,0.5-0.1,0.7c-0.6,0.8-0.6,1.7-0.6,2.6c0,0.2,0.1,0.6,0.2,0.6c0.2,0,0.7,0,0.7-0.2
			C20.4,51.1,20.7,50.4,21,49.6 M9.9,41.6c-0.2,0.7-0.4,1.3-0.7,2c0,0.1-0.3,0-0.5,0.1c0-0.1,0-0.1,0-0.2c0-0.9,0.1-1.9,0.1-2.8
			c0-0.5-0.1-0.9-0.1-1.4c-0.3,0.3-0.6,0.5-1,0.8c-0.2,0.1-0.4,0.2-0.6,0.3c-0.1,0.1-0.3,0.3-0.4,0.4c0.1,0.1,0.3,0.1,0.5,0.2
			c0.2,0.1,0.4,0.2,0.7,0.2c0.9,0.1,1.1,0.5,0.5,1.2c-0.6,0.6-1.3,1.1-1.9,1.7c-0.1,0.1-0.3,0.3-0.4,0.4c0.2,0,0.4,0.1,0.6,0.1
			c1,0,1.5,0.6,1.3,1.3c-0.1,0.3-0.3,0.7-0.3,1c0,0.5,0,1,0,1.5c0.4-0.4,0.8-0.8,1.1-1.2c0.1-0.1,0-0.2,0-0.3
			c0.6-1.7,0.3-1.9,2.4-1.5c0.5,0.1,0.7-0.1,0.5-0.5c-0.1-0.3-0.4-0.5-0.6-0.7c-0.8-0.6-0.9-1.9-0.1-2.3c1-0.5,0.4-1,0.1-1.4
			c-0.4-0.4-0.9-0.6-1.4-1c0,0.5,0.1,1,0.1,1.5C9.9,41.1,9.9,41.2,9.9,41.6 M23.6,18c0.1-0.1,0.4-0.3,0.4-0.4c0.1-0.5,0.2-1,0.2-1.4
			c-0.3,0.2-0.7,0.3-1,0.5c-0.2,0.2-0.5,0.4-0.6,0.6c-0.3,1.7-1.5,1.7-2.8,1.6c-0.1,0-0.2,0-0.3,0c-0.3,0.1-0.6,0.3-0.7,0.5
			c-0.1,0.3,0,0.7,0,1.1c0.2-0.2,0.4-0.4,0.7-0.6c0.1-0.1,0.2-0.1,0.4-0.1c0.3-0.1,0.7-0.1,1-0.2c-0.1,0.3-0.2,0.7-0.4,0.9
			c-0.9,0.9-1.9,1.8-2.9,2.7c-0.1,0.1-0.3,0.5-0.2,0.6c0.6,0.5,2.5-0.2,2.7-1c0.4-1.8,0.9-1.9,2.3-1.9c0.9,0,1.1-0.6,0.8-1.1
			C22.9,19,23.1,18.6,23.6,18 M16.5,21.7c-0.1,0.5-0.3,1-0.4,1.5c0.3-0.2,0.6-0.4,1-0.6c0.1,0,0.1-0.1,0.1-0.1c0.3-0.4,0.7-0.7,1-1
			C17.6,21.5,17.1,21.5,16.5,21.7"/>
	</g>
	<g id="Form_4_3_">
		<desc  xmlns:shape="http://adobe.com/products/shape"></desc>
		<path class="st1" d="M77.7,14.1c-0.1-0.2-0.1-0.4-0.3-0.6c-0.2-0.2-0.4-0.4-0.6-0.6c-1.5-1.2-2-0.8-2.7,0.5
			c-1.1,1.8-2.3,2.2-4.2,1.1c-0.3-0.1-0.8,0-1.1,0.1c-0.1,0-0.3,0.2-0.4,0.4c-1,0.9-2.1,0.7-2.6-0.6c-0.1-0.2-0.2-0.4-0.4-0.6
			c-0.1,0.2-0.3,0.4-0.2,0.6c0,0.6,0,1.3,0.3,1.7c1.3,1.7,1.2,2.5-0.7,3.3c0,0,0,0.2,0,0.3c0.1,0.4,0.4,0.8,0.4,1.3
			c0.1,0.9-0.8,1.5-1.9,1.1c-0.6-0.2-1.3-0.7-1.8-0.5c-0.5,0.1-0.9,0.9-1.3,1.4c-0.6,0.7-1.7,1.1-2.5,0.7c-0.6-0.4-0.8-1.5-0.4-2.4
			c0.1-0.3,0.2-0.6,0.4-0.9c0.7-0.8,0.7-1.4-0.1-2.1c-0.3-0.3-0.4-1.2-0.2-1.7c0.1-0.3,0.8-0.4,1.3-0.5c0.4-0.1,0.8,0,1.3,0
			c0.2,0,0.5-0.1,0.7-0.2c-0.1-0.2-0.3-0.4-0.4-0.6c-1.1-0.9-1.4-1.6-1-2.4c0.3-0.6,1.8-1.1,2.7-0.8c0.2,0,0.3,0.1,0.5,0.1
			c0.2,0,0.5,0,0.7,0c-0.2-0.1-0.4-0.3-0.5-0.5c-0.3-0.4-0.7-1.1-0.6-1.3C62.6,9.9,63.3,9,63.9,9c1.4-0.1,2.1-0.7,2.6-2
			c0.3-0.8,1.1-1.2,2-1.1c0.8,0.1,1.3,0.6,1.5,1.4c0.1,0.5,0.3,0.9,0.5,1.4c0.3-0.4,0.7-0.7,1-1.1c0.8-1,2.3-1.1,3-0.3
			c0.2,0.3,0.1,0.7,0.3,0.9c0.1,0.3-0.1,1.1,0.8,0.5c0.6-0.4,1.1-0.4,0.4-1.3c-0.4-0.4-0.9-1.3-0.2-1.8c0.6-0.4,1.5-0.5,2.2-0.3
			c0.7,0.2,0.9,0,1.2-0.5c0.4-1,1-1.8,2.2-1.7C82.3,3.2,83,3.9,83,4.7c0,0.6,0,1.1-0.2,1.6c-0.5,1,0.3,1.2,0.8,1.5
			c0.6,0.3,1.3,0.5,1,1.2c-0.2,0.5-0.8,0.9-1.3,1.3c-0.1,0.1-0.3,0.2-0.4,0.2c-0.8,0.2-0.8,0.2-0.6,1.1c0.2,0.9-0.5,1.2-1.1,1.4
			c-0.6,0.2-1.2,0.3-1.8,0.4c-0.2,0.1-0.3,0.2-0.5,0.3C78.8,13.8,78.4,14.1,77.7,14.1z M69.6,10.6c1-0.1,2-0.2,3-0.2
			c1.2-0.1,1.5-0.4,1.3-1.6c-0.1-0.3-0.3-0.6-0.5-1c-0.3,0.2-0.7,0.4-1,0.6c-0.5,0.3-0.9,1-1.4,1c-1.6,0.2-1.6-0.1-2-1.7
			c-0.1-0.3-0.3-0.6-0.5-0.8c-0.3,0.2-0.7,0.4-1,0.6c-0.1,0.1-0.1,0.4-0.2,0.6c-0.7,1.1-1.4,1.8-2.8,1.8c-0.4,0-0.8,0.5-1.2,0.8
			c0.3,0.2,0.6,0.6,1,0.7c1.7,0.4,2.1,0.9,2.4,2.5c0,0.3,0.3,0.5,0.4,0.7c0.2-0.1,0.5-0.3,0.6-0.5c0.9-1.4,1.7-1.6,2.9-0.3
			c0.6,0.6,1.1,0.6,1.7,0c0.7-0.7,1.3-1.4,2-2.2c0.1-0.1,0.2-0.2,0.2-0.3c-0.1,0-0.3-0.1-0.4-0.1c-0.2,0-0.4,0.1-0.6,0.1
			c-1.6,0.1-3.2,0.2-4.8,0.3c-0.1,0-0.4-0.2-0.5-0.3c0-0.1,0.1-0.4,0.3-0.5C68.7,10.7,69,10.7,69.6,10.6 M78.5,9.3
			c0.4-0.4,0.7-0.8,1.1-1.1C79.7,8,80,7.9,80.2,7.8c0,0.2,0.1,0.5,0.1,0.7c0,0.3-0.1,0.6-0.3,0.7c-0.9,0.8-1.5,2-2.8,2.2
			c-0.1,0-0.1,0.5-0.1,0.5c1,0.4,2,1.1,3.1,0.5c0.4-0.2,0.7-0.5,1.1-0.8c-0.4-0.2-0.7-0.4-1.1-0.6c-0.1-0.1-0.3-0.2-0.4-0.3
			c0.1-0.1,0.2-0.3,0.3-0.4c0.7-0.3,1.5-0.6,2.3-0.8c0.4-0.2,0.8-0.4,1.2-0.6c-0.3-0.2-0.7-0.4-1-0.4c-0.7-0.2-1.2-0.6-1.1-1.3
			c0-0.6,0.2-1.2,0.2-1.8c0-0.4-0.1-0.7-0.2-1.1c-0.4,0.3-0.7,0.5-1,0.8c-0.1,0.1-0.2,0.4-0.2,0.6c-0.2,0.7-0.6,1.1-1.4,1
			c-0.5-0.1-1-0.1-1.5-0.2c-0.2,0-0.4,0.1-0.7,0.1C76.8,6.6,76.9,6.9,77,7c1,1,1.1,1.6-0.6,2.5c-0.1,0.1-0.3,0.1-0.4,0.2
			c-0.1,0.1-0.3,0.2-0.4,0.3c0.2,0.1,0.3,0.3,0.5,0.3C77.1,10.5,77.7,10,78.5,9.3 M61.9,18.4c-0.3-0.1-1.1,0.3-0.6-0.6
			c0.1-0.1-0.3-0.8-0.5-0.8c-0.5-0.1-1.1,0.1-1.6,0.1c-0.3,0-0.5,0.1-0.8,0.2c0.2,0.2,0.3,0.4,0.5,0.6c0.7,0.6,1,1.2,0.4,2.1
			c-0.4,0.6-0.8,1.3-1.1,2c-0.1,0.2,0,0.5,0,0.8c0.2-0.1,0.5-0.1,0.7-0.3c0.3-0.3,0.6-0.7,0.8-1c0.6-1.2,1.7-1.7,3.3-0.7
			c0.2,0.1,0.5,0.2,0.7,0.3c0-0.3,0.1-0.6,0.1-0.9c0-0.2-0.2-0.4-0.3-0.6c-0.5-1-0.4-1.2,0.7-1.3c0.9-0.1,1.1-0.4,0.6-1.2
			c-0.3-0.5-0.5-1.1-0.8-1.7c-0.1-0.2-0.3-0.4-0.4-0.5c-0.1,0.2-0.3,0.3-0.4,0.5C62.9,16.5,62.5,17.5,61.9,18.4 M62.3,13.1
			c-0.7-0.1-1.6,0-1.9,0.7c-0.1,0.3,0.6,0.9,1,1.4c0,0,0,0.1,0.1,0.1c0.2,0,0.6,0,0.6-0.1c0.4-0.9,1.2-1.2,2.1-1.2
			c0.1,0,0.2-0.1,0.4-0.1c-0.1-0.1-0.1-0.4-0.2-0.4C63.7,13.3,63.2,13.2,62.3,13.1 M64.3,12.7c0.1,0,0.2,0.1,0.3,0.1
			c0-0.1,0-0.2-0.1-0.4C64.3,12.6,64.2,12.6,64.3,12.7"/>
	</g>
</g>
</svg>
