<?xml version="1.0" encoding="utf-8"?>
<!-- Generator: Adobe Illustrator 24.0.0, SVG Export Plug-In . SVG Version: 6.00 Build 0)  -->
<svg version="1.1" id="Ebene_1" xmlns="http://www.w3.org/2000/svg" xmlns:xlink="http://www.w3.org/1999/xlink" x="0px" y="0px"
	 viewBox="0 0 125.7 139.9" style="enable-background:new 0 0 125.7 139.9;" xml:space="preserve">
<style type="text/css">
	.st0{fill:#FFFFFF;}
	.st1{fill:#93C251;}
</style>
<g id="Ebene_1_1_">
	<g>
		<g>
			<path class="st0" d="M74.9,52.4c-0.4,0-0.8,0.1-1.1,0.1c-0.8-0.1-1.4-0.6-1.4-1.3s0.4-1.3,1.2-1.4c0.5-0.1,1-0.1,1.5,0.1
				c0.4,0.1,0.6,0,0.6-0.4c0.1-1.8,0.3-3.7,0.2-5.5c0-2.1-0.5-4.2-1.1-6.2c-0.3-1.2-0.6-2.4-1.1-3.5c-1.3-2.8-2.9-5.3-5.1-7.4
				c-2.3-2.3-4.9-4.2-7.9-5.6c-2.5-1.1-5-2.1-7.8-2.4c-1.6-0.2-3.3-0.5-4.9-0.2c-0.8,0.2-1.3,0.6-1.3,1.5s-0.4,1.3-1.2,1
				c-0.5-0.2-0.9-0.1-1.2,0.3c-0.2,0.3-0.5,0.6-0.8,0.8c-0.3,0.2-0.6,0.5-0.9,0.6c-0.2,0-0.4-0.3-0.7-0.4c-0.2-0.1-0.6-0.2-0.8,0
				c-0.2,0.1-0.4,0.5-0.4,0.7c0,0.3,0.2,0.6,0.3,0.8c0.4,0.6,0.4,0.7-0.2,1c-0.4,0.2-0.6,0.3-0.3,0.8c0.4,0.6,0.3,1.2-0.1,1.7
				c-0.4,0.5-0.9,0.8-1.6,0.7c-1.2-0.3-1.1-0.2-1.3,1.1c-0.1,0.5,0.1,0.8,0.5,1.1c0.7,0.4,0.8,1.1,0,1.5c-0.7,0.4-1.4,0.7-2.2,0.9
				C35,33.1,34.9,33.2,35,34c0.1,0.5,0.1,1-0.2,1.5c-0.2,0.4-0.1,0.7,0.4,0.5c0.1,0,0.3,0.2,0.3,0.2c-0.3,0.6,0.2,1.6-0.8,2
				c-0.1,0-0.1,0.2-0.2,0.3c-0.4,0.8-0.7,1.7-0.7,2.6c0,0.9,0.2,1.8,1.1,2.4c0.8,0.6,0.8,0.6,0.3,1.4c-0.6,0.9-0.6,2.3,0.2,2.8
				c0.6,0.4,0.6,0.7,0.7,1.3c0.1,0.7,0.5,1.2-0.3,1.7c0,0.7-0.1,1.3,0,2c0.1,0.4,0.2,0.7,0,1.2s0.3,1.7,0.8,1.6
				c0.6-0.1,0.6,0.3,0.8,0.6c0.1,0.3,0.3,0.5,0.5,0.8c0.3,0.6-0.1,1.4,0.6,1.9c0,0,0,0.2,0,0.3c0,0.4,0,0.7,0,1.1
				c-0.1,0.5,0,0.8,0.5,1c0.4,0.2,0.6-0.2,0.9-0.3c0.4-0.2,0.9-0.4,1.4-0.5c0.1,0,0.3,0.6,0.4,0.9c0,0,0,0.1,0.1,0.1
				c0.5,0.4,0.2,0.7-0.1,1c-0.2,0.2-0.5,0.3-0.7,0.4c-0.6,0.3-0.8,0.6-0.5,1.2c0.2,0.3,0.5,0.6,0.8,0.7c0.6,0.3,0.7,0.4,0.3,0.9
				c-0.3,0.4-0.4,0.9-0.1,1.2c0.3,0.3,0.7,0.4,1.2,0.1c0.1-0.1,0.4-0.1,0.5-0.1c0.3,0.2,0.7,0.5,0.8,0.8c0.2,0.6,0.7,0.8,1.3,0.9
				s0.9,0.5,0.9,1.1c0,0.2,0.1,0.5,0.3,0.6c0.5,0.5,1.1,0.9,1.7,1.4c0.2,0.1,0.4,0.2,0.7,0.3c1,0.5,2,0.3,3,0.3c0.5,0,1.1,0,1.6-0.2
				c1.4-0.4,2.7-0.8,4.1-1.2c1.6-0.4,3.1-0.9,4.5-1.9c1.8-1.4,4.1-2.2,5.5-4.2c0.1-0.1,0.2-0.2,0.2-0.2c0.8-0.7,1.6-1.5,2.3-2.2
				c0.2-0.2,0.3-0.4,0.4-0.6c0.5-0.8,0.9-1.7,1.4-2.5C73.5,57.1,74.3,54.8,74.9,52.4z M71.7,67.6c0.2-1,0.1-2.1,0.6-3.4
				c0.5-1.8,1-3.7,1.5-5.4c-0.9,1.2-1.8,2.5-2.7,3.8c-1.2,1.6-2.5,3.1-4.2,4.3c-0.8,0.6-1.6,1.2-2.5,1.8c-1.9,1.3-3.9,2.4-6.1,3
				c-1.6,0.5-3.3,0.7-4.9,1.1c-2.4,0.6-4.9,0.3-7.3,0c-1.9-0.2-3.7-0.7-5.5-1.3c-1-0.4-2.1-0.7-3.1-1.2s-2-1.1-3-1.7
				c-0.8-0.5-1.5-1.1-2.2-1.7c-0.4-0.3-0.7-0.8-1.2-1.1c-1.2-0.9-2.3-2-3.3-3.2c-0.9-1.1-1.6-2.3-2.4-3.4c-0.2-0.2-0.3-0.5-0.5-0.7
				c-0.1,0.4,0,0.6,0.1,0.9c0.4,1.7,0.9,3.4,1.4,5c0.6,2.3,1.3,4.6,1.9,6.8l-0.4,0.1c-0.1-0.4-0.2-0.7-0.3-1.1
				c-0.2-0.9-0.4-1.9-0.7-2.8c-1.2-4.5-2.5-9-3.8-13.5c-0.1-0.3-0.2-0.5-0.4-0.7c0,0.2,0,0.3-0.1,0.5c0,0.2-0.1,0.4-0.2,0.7
				c-0.1-0.2-0.2-0.5-0.2-0.7c-0.1-0.4,0-0.8-0.1-1.2c0-0.1,0-0.3-0.2-0.4c-0.4,0.9-0.7,1.8-1.1,2.6c-0.2,0.3-0.1,0.8-0.6,0.9
				c0.1-0.4,0.1-0.7,0.3-1.1c0.5-1.2,1-2.3,1.5-3.6C21.7,51,21.5,51,21.3,51c-0.4,0.1-0.7,0.2-1.1,0.3c-0.7,0.1-1.2-0.2-1.3-0.8
				c-0.2-0.6,0.2-1.2,0.7-1.5c0.5-0.2,1-0.2,1.4,0c0.3,0.1,0.6,0.3,0.9,0.5c0-0.5,0-0.9,0-1.3c-0.2-2.5-0.2-5.1,0.3-7.6
				c0.4-2,0.6-4,1.5-5.8c0.5-1.2,1.1-2.4,2-3.4c0.4-0.5,0.5-1.2,0.9-1.7c0.3-0.3,0-1.3,0.9-1.1l0.1-0.1c0.3-0.3,0.6-0.7,0.9-1
				c0.7-1.3,1.7-2.3,2.9-3.2c0.1-0.1,0.2-0.2,0.3-0.3c0.9-1.5,2.5-2,3.9-2.7c1.7-0.8,3.4-1.4,5.2-2.1c0.7-0.3,1.5-0.3,2.3-0.5
				s1.7-0.5,2.5-0.7c1.1-0.3,2.1-0.2,3.2-0.1c1.3,0.1,2.7,0.2,4,0.3c0.9,0.1,1.8,0.3,2.7,0.5c0.4,0.1,0.8,0.1,1.1,0.2
				c1.4,0.1,2.6,0.7,3.8,1.3c1.3,0.7,2.7,1.3,4,2c1,0.6,1.9,1.3,2.8,2c1.9,1.4,3.5,3.2,4.9,5.1c1.3,1.7,2.2,3.6,3,5.6
				c1.5,3.8,2.1,7.6,1.9,11.7c0,0.7,0,1.4,0,2.2c0.7-0.2,1.4-0.5,2,0.3c0.2,0.3,0.3,0.7,0.1,1.1C78.6,51,77.9,51,77,50.9
				c0.4,0.7,0.7,1.3,1.1,1.9c0.1,0.2,0.2,0.5,0.3,0.8C78,53.7,78,53.3,77.8,53c-0.4-0.6-0.7-1.2-1-1.8c-0.1,0-0.1,0-0.2,0.1
				c0,0.9,0.1,1.8,0.1,2.8c0,0.4,0,0.9,0,1.3c0,0.1-0.1,0.2-0.2,0.3c-0.1-0.1-0.1-0.2-0.2-0.3C76,54.8,76,54.2,76,53.6
				c0-0.1,0-0.2-0.1-0.5c-0.4,1-0.7,1.9-0.9,2.8c-0.6,2.3-1.2,4.6-1.9,6.9c-0.3,1.2-0.7,2.3-1,3.5L71.7,67.6z M74,52.1
				c0.8-0.1,1.2-0.4,1.6-1c0.2-0.3,0.2-0.7-0.3-0.7c-0.5-0.1-1-0.2-1.5-0.1c-0.6,0.1-1,0.5-0.9,1C72.9,51.7,73.5,52.1,74,52.1z
				 M19.9,51c0.6-0.2,1.1-0.3,1.6-0.5c0.1,0,0.2-0.3,0.2-0.4c-0.3-0.6-1.4-0.9-2-0.7c-0.4,0.2-0.7,0.7-0.6,1
				C19.3,50.6,19.6,50.8,19.9,51z M77.3,50.5c0.3,0,0.5,0,0.6-0.1c0.4-0.1,0.7-0.5,0.6-0.8S78,49,77.6,49c-0.1,0-0.3,0.1-0.4,0.1
				c-0.4,0.2-0.8,0.5-0.6,0.9C76.7,50.4,77.1,50.4,77.3,50.5z"/>
			<path class="st0" d="M56.4,4.8c-0.8,0.4-1.6,0.6-2.3,1s-1.3,1-1.9,1.5c-0.2,0.2-0.4,0.3-0.6,0c-0.7-1.2-1.8-1.8-3.1-2.1
				c-0.1,0-0.2-0.1-0.3-0.1c1-0.6,2.3-0.4,3.2,0.5c0.5,0.5,0.5,0.5,1,0C53.5,4.5,55,4.2,56.4,4.8z"/>
			<path class="st0" d="M22.3,11.4c-0.7,0.3-1.4,0.5-1.9,0.8c-0.6,0.3-1.1,0.8-1.6,1.2c-0.2,0.1-0.3,0.4-0.5,0.1
				c-0.7-1-1.6-1.6-2.9-1.8c0.8-0.6,1.9-0.5,2.5,0.3c0.4,0.5,0.6,0.4,1.1,0C19.9,11.2,20.9,11,22.3,11.4z"/>
			<path class="st0" d="M84.1,22.3c-0.5,0.2-1,0.3-1.4,0.6c-0.7,0.4-1.3,0.9-2,1.4c-0.2,0.1-0.3,0.3-0.5,0c-0.6-1-1.5-1.5-2.6-1.8
				c-0.1,0-0.1-0.1-0.2-0.1c0.9-0.5,1.8-0.3,2.5,0.4c0.4,0.4,0.6,0.4,1,0c0.9-0.8,2-1.1,3.2-0.7C84.1,22.2,84.1,22.2,84.1,22.3z"/>
			<path class="st0" d="M9.2,24.8c-0.3,0.1-0.7,0.2-1,0.4C7.3,25.5,6.6,26,6,26.7c-0.2,0.2-0.3,0.3-0.5,0c-0.6-0.9-1.4-1.4-2.4-1.6
				C3,25.1,2.9,25,2.9,25c0.8-0.4,1.7-0.3,2.4,0.4c0.4,0.4,0.6,0.3,1,0c0.9-0.7,1.9-1,3-0.6C9.2,24.7,9.2,24.8,9.2,24.8z"/>
			<path class="st0" d="M57.5,12.1c-0.6-1.1-1.5-1.6-2.6-1.9c0.6-0.5,1.5-0.4,2.1,0.2c0.4,0.4,0.7,0.4,1.1,0
				c0.8-0.7,1.7-0.9,2.7-0.5C59.5,10.5,58.3,10.9,57.5,12.1z"/>
			<path class="st0" d="M92.1,13c-0.8,0.6-1.6,1.1-2.4,1.6c-0.1,0.1-0.3,0-0.4-0.1c-0.5-0.7-1.1-1-1.9-1.2c0.6-0.4,1.1-0.4,1.7,0.1
				c0.4,0.4,0.6,0.3,1,0C90.7,12.9,91.4,12.8,92.1,13z"/>
			<path class="st0" d="M32.2,17.7c-0.8,0.6-1.6,1.1-2.4,1.6c-0.1,0.1-0.4,0.1-0.4,0c-0.4-0.7-1.2-1-2-1.3c0.7-0.3,1.3-0.2,1.8,0.2
				c0.3,0.3,0.5,0.3,0.9,0C30.6,17.6,31.4,17.5,32.2,17.7z"/>
			<path class="st0" d="M39,40.8c-0.1,1.2-0.3,2-0.9,2.8c-0.2,0.3-0.6,0.5-1,0.6c-0.3,0.1-0.6-0.2-0.4-0.6c0.1-0.2,0.2-0.3,0.3-0.5
				c1.4-1.3,1.1-3.2-0.2-4.5c-0.1-0.1-0.3-0.3-0.4-0.4c-0.1-0.2-0.1-0.5,0-0.7c0-0.1,0.4-0.1,0.6-0.1c0.6,0.2,1.2,0.6,1.4,1.3
				C38.7,39.6,38.9,40.3,39,40.8z"/>
			<path class="st0" d="M45.2,63.8c-0.2,0.4-0.3,0.9-0.5,1.3c-0.3,0.5-0.7,0.5-1.1,0.3c-0.5-0.3-0.6-0.6-0.3-1.1
				c0.2-0.4,0.3-0.8,0.1-1.3c-0.1-0.3-0.1-0.7,0.2-0.9c0.4-0.3,0.7-0.1,1,0.1C45,62.6,45,63.2,45.2,63.8z"/>
			<path class="st0" d="M40.4,58.7c0,0.2,0,0.4-0.1,0.5c-0.2,0.2-0.5,0.4-0.7,0.4s-0.5-0.3-0.5-0.5c0-0.6,0-1.2-0.3-1.8
				c-0.2-0.3,0.1-0.6,0.4-0.5c0.3,0.1,0.7,0.3,0.8,0.6C40.3,57.8,40.3,58.3,40.4,58.7z"/>
			<path class="st0" d="M39.6,48.9c0,0.1,0,0.2,0,0.3C39.5,49.6,39.4,50,39,50s-0.4-0.5-0.4-0.8s-0.1-0.6-0.2-0.9
				c-0.1-0.3-0.3-0.5-0.3-0.8c0-0.2,0.2-0.4,0.3-0.5s0.4,0,0.5,0.1c0.3,0.6,0.6,1.2,0.9,1.7C39.7,48.9,39.7,48.9,39.6,48.9z"/>
			<path class="st0" d="M42,44.3c0.1,0.7-0.3,1.2-0.7,1.6c0,0.1-0.3,0.1-0.4,0.1c0-0.1,0-0.3,0-0.4c0.4-0.6,0.3-1.3,0.1-2
				c0-0.2,0-0.6,0.1-0.8c0.1-0.1,0.7,0.3,0.8,0.7C42,43.7,42,44,42,44.3z"/>
			<path class="st0" d="M45.8,66.8c-0.1-0.2-0.2-0.5-0.2-0.7c0-0.1,0-0.4,0-0.4c0.2-0.1,0.4-0.1,0.6,0c0.4,0.2,0.6,1.4,0.3,1.8
				c-0.2,0.2-0.4,0.3-0.6,0c-0.1-0.2-0.2-0.4-0.3-0.6C45.7,66.9,45.8,66.9,45.8,66.8z"/>
			<path class="st0" d="M39.6,34.1c-0.1,0-0.2,0-0.2-0.1s0-0.2,0-0.2C40,33.5,40,33,40,32.5c0-0.1,0.1-0.3,0.2-0.4
				c0.1,0.1,0.3,0.1,0.4,0.2C40.9,32.8,40.2,34.1,39.6,34.1z"/>
			<path class="st0" d="M46.6,23.8c0,0.6-0.7,1.2-1.2,1c-0.1,0-0.1-0.3-0.1-0.3c0.4-0.2,0.7-0.6,0.8-1c0,0,0.3-0.1,0.3,0
				C46.5,23.5,46.5,23.7,46.6,23.8z"/>
			<path class="st0" d="M40,37.6c0.1-0.6,0.2-1.1,0.3-1.6c0-0.1,0.1-0.2,0.1-0.3c0.1,0.1,0.2,0.1,0.3,0.2
				C41.1,36.5,40.8,37.1,40,37.6z"/>
			<path class="st0" d="M47.5,61.1c-0.3,0.2-0.5,0.5-0.6,0.4c-0.2-0.1-0.5-0.4-0.5-0.6c0-0.2,0.3-0.4,0.4-0.6
				C47,60.6,47.2,60.8,47.5,61.1z"/>
			<path class="st0" d="M41.4,55.2c-0.2-0.3-0.4-0.5-0.4-0.7c0-0.3,0.2-0.5,0.5-0.4c0.2,0.1,0.3,0.3,0.3,0.5S41.6,55,41.4,55.2z"/>
			<path class="st0" d="M42.5,26C42.5,26,42.4,26,42.5,26c-0.1-0.1-0.2-0.2-0.2-0.3c0.2-0.3,0.4-0.5,0.6-0.8c0,0,0.3,0.1,0.3,0.2
				C43.4,25.5,42.9,26,42.5,26z"/>
		</g>
	</g>
	<path class="st0" d="M28.2,71.2c0.9,3.2,8.4,35.1,9.3,38.3c0.6,2.2,1.4,4.2,2,6.4c1,3.2,2.1,6.5,3.1,9.7c0.1,0.4,0.3,0.6,0.7,0.6
		c1.4,0,2.8,0,4.1,0c0.4,0,0.8-0.1,1.3-0.1c1.3,0,2.5,0,3.8,0c0.5,0,1.2,0,1.4-0.4c0.5-0.8,0.9-1.7,1.2-2.5c0.9-2.7,1.7-5.3,3-7.9
		c0.7-1.3,1.3-2.7,1.8-4.1c1.4-3.9,2.8-7.8,4.2-11.8c1-3,1.9-6.1,2.7-9.2c0.8-3,1.5-6.1,2.2-9.2c0.4-2.2,1.1-4.9,1.3-7.1
		c0.1-1.1,1.5-7.2,1.7-8.3l0.8-1.4c-0.1,1-1.7,7.7-1.8,8.7c-0.6,2.8-1,6-1.6,8.9c-0.8,4.6-1.9,8.9-3.1,13.4c-1.2,4.7-3,9.2-4.5,13.8
		c-0.9,2.7-2.1,5.2-3.2,7.8c-0.9,2.1-1.6,4.3-2.3,6.5c-0.3,0.7-0.6,1.4-0.9,2.1c0,0.1-0.1,0.3-0.1,0.4c0.8,1.3,1.6,2.7,2.3,4
		c0.6,1.1,1.5,2,1.3,3.4c-0.1,0.6-0.2,1.1-1,1c-0.7,0-1.5,0.1-2.2,0.1c-0.6,0-0.6,0.5-0.8,0.9c-0.1,0.2-0.3,0.5-0.5,0.5
		c-0.3,0.1-0.8,0.1-0.9-0.4c-0.1-0.7-0.5-1.1-1.3-0.7c0,0-0.1,0-0.2,0c-2.3,0.1-4.6,0.1-6.9,0.2c-0.4,0-0.8,0.1-1.2,0.2
		c-0.1,0-0.2,0.3-0.3,0.4c-0.1,0.8-0.9,0.8-1.2,0.5c-0.9-1.2-2.1-0.7-3.2-0.6c-1.1,0.1-1.7-0.3-1.7-1.5c-0.1-1.9,0.9-3.4,1.6-5
		c0.3-0.6,0.7-1.1,1-1.7c0.3-0.5,0.5-0.8,1.2-0.7c0.5,0.1,0.3-0.2,0.2-0.5c-0.7-2-1.4-3.9-2-5.9s-1.1-4-1.7-5.9
		c-0.4-1.2-0.9-2.4-1.3-3.7c-0.6-1.9-1-3.8-1.5-5.8c-0.4-1.4-7-31.7-7.4-33.2L28.2,71.2z M42,130.3c-0.2-0.1-0.4-0.1-0.6-0.2
		c0.1-0.3,0.1-0.7,0.3-0.8c0.5-0.3,0.7-0.6,0.5-1.2c-0.1-0.3-0.3-0.6-0.5-1c-0.3,0.2-0.7,0.4-0.8,0.6c-0.7,1.3-1.3,2.7-2,4
		c-0.3,0.5-0.1,0.5,0.3,0.4c1.1-0.1,2.2-0.2,3.2-0.3c1.8-0.1,3.6-0.2,5.3-0.3c2.8-0.1,5.7-0.2,8.5-0.3c0.3,0,0.6-0.1,0.9-0.2
		c-0.1-0.3-0.2-0.6-0.4-0.9c-0.6-0.9-1.2-1.9-1.8-2.8c-0.2-0.2-0.3-0.5-0.4-0.8c-0.2,0.3-0.4,0.7-0.5,1s-0.1,0.6,0,0.9
		c0.2,0.8-0.1,1.2-0.9,1.2c-0.4,0-0.7,0-1.1,0c-0.2,0-0.4-0.2-0.6-0.2c0.1-0.2,0.2-0.4,0.4-0.5c0.7-0.3,0.8-1,1.2-1.6
		c0.3-0.6-0.2-0.6-0.4-0.6c-1.2,0-2.4-0.2-3.5,0c-1.7,0.4-3.4,0.2-5.1,0.1c-0.4,0-0.8,0.1-1.1,0.2c0,0,0.1,0.5,0.1,0.8
		c-0.1,0.7,0.3,1,0.9,1.3c0.2,0.1,0.3,0.3,0.5,0.5c-0.2,0-0.4,0.1-0.6,0.1C43.4,130.1,42.8,130.2,42,130.3 M39.1,133.2
		c-0.5,0-0.6,0.3-0.5,0.6c0,0.3,0.1,0.7,0.6,0.5c0.3-0.1,0.6-0.1,0.8-0.2c2.1-0.1,4.3-0.2,6.4-0.3c0.1,0,0.3-0.1,0.3-0.2
		c0.1-0.7-0.4-1-1.1-1.1c-1.3-0.2-2.5,1.1-3.9,0.3c0,0,0,0-0.1,0C40.9,133.3,40.1,133.5,39.1,133.2 M50.4,132.8
		c-0.8-0.1-1.6-0.2-2.5-0.2c-0.5,0-0.6,0.5-0.5,0.9c0,0.1,0.4,0.2,0.7,0.2c0.5,0,0.9-0.2,1.4-0.2c1.4,0,2.7,0,4.1,0
		c0.6,0,1.2-0.1,1.8-0.2c0.2,0,0.4-0.3,0.4-0.5c0-0.1-0.2-0.5-0.2-0.5c-0.4,0.1-1-0.3-1.2,0.3c-0.1,0.2-0.1,0.3-0.2,0.5
		c-0.1-0.1-0.3-0.3-0.4-0.4c-0.3-0.2-0.6-0.4-0.9-0.4C52,132.2,51.2,132.6,50.4,132.8 M57.7,133.1c0-0.3,0.2-0.6,0-0.8
		c-0.1-0.1-0.6-0.3-0.7-0.2c-0.2,0.2-0.3,0.6-0.4,0.9c0.2,0,0.4,0,0.6,0C57.4,133.1,57.5,133.1,57.7,133.1"/>
	<path class="st0" d="M50.7,129.9c-0.5,0.1-1,0.2-1.5,0.2c-0.3,0-0.6-0.2-1-0.4c0.2-0.2,0.4-0.5,0.7-0.5c0.6-0.1,1.1-0.1,1.7,0
		c0.1,0,0.4,0.2,0.4,0.3C51,129.6,50.8,129.7,50.7,129.9"/>
	<path class="st0" d="M117.6,76.5c-1.3,0.3-2.5,0.6-3.7,0.8c-1.7,0.3-3.2-0.6-4.5-1.4c-1.6-1-3.1-0.9-4.8,0c-1.6,0.9-3.3,1.6-5.1,2
		c-2.5,0.5-5,0.3-7-1.6c-0.3-0.3-0.5-0.6-0.8-0.9c-1-1-2.1-1.2-3.5-1c-1.3,0.1-2.7,0.4-4-0.4c-0.3-0.2-0.7-0.1-1-0.2
		c-0.6-0.2-1.5-0.1-1.3-1.2c0-0.2-0.2-0.5-0.3-0.7c-0.9-1.6-0.7-4.4,0.9-5.6c0.9-0.7,2.4-0.8,3.4-0.3c0.7,0.4,1.4,1,2.4,1
		c0.9,0,1.4-0.4,1.6-1.4c0.3-1.9,1.3-3.3,3.2-4c1.1-0.4,2.3-0.6,3.4,0c0.6,0.4,1.1,1.2,1.5,1.8c0.6,0.9,1,2,2,2.6
		c0.8,0.6,1.6,0.5,2.4,0.1c1.1-0.6,2.1-1.3,3.2-2c1.8-1.1,3.6-1.3,5.5-0.5c1.5,0.6,2,2,1.6,3.5c-0.4,1.8,0.2,2.5,2,2.2
		c0.8-0.2,1.6-0.3,2.3-0.3c1.6,0,3.6,1.7,3.7,3.2c0,0.7-0.2,1.6-0.7,2.2C119.3,75.1,118.4,75.7,117.6,76.5 M119.7,72.8
		c0-1.1-1.1-2.8-2-2.9c-1,0-2.1,0.1-3.1,0.2c-1,0.2-1.9,0-2.6-0.6s-0.7-1.5-0.4-2.3c0.4-1.4,0.2-2.3-0.9-2.7c-1.5-0.6-3-0.5-4.4,0.3
		c-1,0.6-2,1.3-3,2c-1.5,1-3.3,0.8-4.4-0.5c-0.7-0.8-1.2-1.8-1.9-2.6c-0.4-0.5-0.7-1.3-1.3-1.4c-1.1-0.3-3.4,0-4.3,1.6
		c-0.4,0.7-0.7,1.5-0.9,2.3c-0.2,0.8-0.8,1.6-1.5,1.6c-1.1,0.1-2.1,0-3-0.7c-1.4-1.1-2.7-0.7-3.4,0.3c-0.8,1-0.9,2.2-0.6,3.4
		c0.2,0.8,0.5,1.6,1.4,2c0.9,0.3,1.8,0.7,2.7,0.6c1-0.1,2.1-0.1,3.1,0c0.7,0.1,1.5,0.3,2.1,0.7c0.7,0.5,1.1,1.4,1.8,1.9
		c1.6,1.2,3.5,1.5,5.4,1.2c2.2-0.3,4.2-1.5,6.3-2.4c1.3-0.6,2.5-0.6,3.8,0c2.1,1,4,2.1,6.5,1.6C117.2,75.7,118.7,74.8,119.7,72.8"/>
	<path class="st0" d="M115.9,48.3c-0.8,0.3-1.5,0.6-2.3,0.9c-1.1,0.4-2.1,0-3-0.4c-1.1-0.4-2-0.3-3,0.5c-0.9,0.7-1.9,1.3-3,1.8
		c-1.5,0.6-3.1,0.7-4.6-0.3c-0.2-0.1-0.4-0.3-0.6-0.5c-0.7-0.5-1.4-0.5-2.3-0.3c-0.8,0.2-1.7,0.5-2.6,0.2c-0.2-0.1-0.4,0-0.6-0.1
		c-0.4-0.1-0.9,0.1-1-0.6c0-0.1-0.2-0.3-0.3-0.4c-0.8-0.9-0.9-2.7,0-3.6c0.5-0.5,1.4-0.8,2.1-0.5c0.5,0.2,1,0.5,1.6,0.4
		s0.8-0.4,0.9-1c0-1.2,0.5-2.2,1.6-2.8c0.7-0.3,1.4-0.6,2.1-0.3c0.4,0.2,0.8,0.6,1.1,1c0.5,0.5,0.9,1.1,1.5,1.5
		c0.6,0.3,1.1,0.2,1.5-0.1c0.6-0.5,1.2-1,1.8-1.6c1-0.9,2.1-1.2,3.4-0.9c1,0.3,1.5,1,1.4,2.1c-0.1,1.2,0.4,1.6,1.5,1.2
		c0.5-0.2,0.9-0.3,1.4-0.4c1-0.2,2.4,0.7,2.6,1.6c0.1,0.4,0,1-0.2,1.4C116.9,47.4,116.4,47.8,115.9,48.3 M116.9,45.9
		c-0.1-0.7-1-1.7-1.5-1.6c-0.7,0.1-1.3,0.3-1.9,0.5s-1.2,0.2-1.7-0.1s-0.6-0.8-0.5-1.4c0.1-1-0.1-1.5-0.8-1.6c-1-0.2-1.9,0-2.7,0.6
		c-0.6,0.5-1.1,1-1.7,1.5c-0.9,0.8-2,0.8-2.8,0.1c-0.5-0.4-0.9-1-1.4-1.4c-0.3-0.3-0.6-0.7-0.9-0.8c-0.7-0.1-2.2,0.4-2.5,1.4
		c-0.2,0.5-0.3,1-0.3,1.6c-0.1,0.5-0.4,1.1-0.8,1.2c-0.7,0.1-1.3,0.2-2-0.1c-1-0.5-1.8-0.1-2.1,0.5c-0.4,0.7-0.3,1.5,0,2.2
		c0.2,0.5,0.5,1,1.1,1.1s1.2,0.2,1.8,0.1c0.6-0.2,1.3-0.3,2-0.3c0.5,0,1,0,1.4,0.2c0.5,0.2,0.8,0.7,1.3,1c1.1,0.6,2.3,0.6,3.5,0.2
		c1.4-0.4,2.5-1.3,3.7-2.2c0.7-0.5,1.5-0.6,2.4-0.4c1.4,0.5,2.7,0.9,4.3,0.3C115.6,47.9,116.5,47.2,116.9,45.9"/>
	<g>
		<path class="st1" d="M100.9,12.7c2.2-2.4,4.7-4.4,7.8-5.4c1.5-0.5,2.9-1,4.4-1.5c0.7-0.2,1.4-0.5,2.2-0.7c0.1,0,0.4,0.2,0.4,0.2
			c0,0.2-0.1,0.5-0.3,0.6c-0.6,0.4-1.2,0.7-1.8,0.9c-1.7,0.7-2.6,2-3.2,3.7c-0.7,2.3-1.6,4.5-1.9,6.8c-0.2,1.6,0.2,3.5,0.7,5.1
			c0.4,1,1.5,1.8,2.5,2.3c1.3,0.6,2.8,0.9,4.2,1c1.3,0.2,2.7-0.1,4-0.2c0.2,0,0.6,0.1,0.6,0.2c0,0.3,0,0.6-0.2,0.8
			c-2.5,2.1-4.6,4.8-8,5.7c-1.4,0.4-2.6,1-4.1,1.1c-2.5,0.2-4.7-0.5-6.6-2c-1.9-1.6-3.6-3.2-4.4-5.7c-0.8-2.8-0.5-5.4,0.6-7.9
			C98.6,16,99.8,14.4,100.9,12.7 M113.4,26.6c-0.6-0.3-1.2-0.3-1.8,0.2c-1.6,1.2-3.4,2.3-5.4,2c-2.1-0.4-4-1.4-5.9-2.2
			c-0.2-0.1-0.2-0.6-0.3-0.9c0.2,0,0.5,0,0.7,0c0.5,0.1,1,0.2,1.6,0.3c2.3,0.2,4.5-1.7,5.4-3.5c0.2-0.4,0.1-0.9,0-1.3
			c-0.1-1.5-0.6-3.1-0.2-4.5c0.6-2.6,1.7-5.1,2.5-7.6c0.1-0.2,0-0.5,0-0.8c-0.2,0-0.4,0-0.6,0c-2.1,1-4.2,2-5.9,3.7
			c-2.6,2.5-4.6,5.2-5.2,8.8C98,22,98,23.2,98.1,24.4c0.3,2.6,1.9,4.5,4,6c1.5,1,3,2,4.8,2c4.1-0.1,7.5-2,10.5-4.7
			c0.1-0.1,0.2-0.2,0.3-0.3c-0.2,0-0.3-0.1-0.5-0.1C116,27.1,114.8,26.8,113.4,26.6 M105.9,26.3c-0.4,0.1-0.8,0.2-1.2,0.4
			c-0.3,0.1-0.6,0.3-0.8,0.5c0.3,0.1,0.6,0.3,0.9,0.4c1.6,0.2,3.1,0,4.5-0.9c0.5-0.3,1-0.5,1.4-0.8c-0.4-0.3-0.8-0.7-1.2-1
			c-0.2-0.2-0.4-0.5-0.6-0.6c-0.3-0.1-0.8-0.1-1,0.1C107.3,24.9,106.7,25.6,105.9,26.3"/>
		<path class="st1" d="M102.4,18.9c-0.4,0.4-0.7,0.7-1,1c0-0.5-0.2-1.1-0.1-1.6c0.5-1.6,2.5-2.6,3.7-1.9c0.3,0.2,0.5,0.6,0.7,0.9
			c-0.3,0-0.7,0.2-1,0.2C103.5,17.2,103,18.1,102.4,18.9"/>
	</g>
</g>
</svg>
