<?xml version="1.0" encoding="utf-8"?>
<!-- Generator: Adobe Illustrator 24.0.1, SVG Export Plug-In . SVG Version: 6.00 Build 0)  -->
<svg version="1.1" xmlns="http://www.w3.org/2000/svg" xmlns:xlink="http://www.w3.org/1999/xlink" x="0px" y="0px"
	 viewBox="0 0 198.4 129.2" style="enable-background:new 0 0 198.4 129.2;" xml:space="preserve">
<style type="text/css">
	.st0{fill:none;stroke:#fff;stroke-linecap:round;stroke-linejoin:round;stroke-miterlimit:10;stroke-dasharray: 1000;stroke-dashoffset: 1000;animation: dash 5s linear alternate infinite;}
	.st1{fill:none;stroke:#EE6340;stroke-linecap:round;stroke-linejoin:round;stroke-miterlimit:10;stroke-dasharray: 1000;stroke-dashoffset: 1000;animation: dash 5s linear alternate infinite;}
	.st2{fill:none;stroke:#F6E20D;stroke-linecap:round;stroke-linejoin:round;stroke-miterlimit:10;stroke-dasharray: 1000;stroke-dashoffset: 1000;animation: dash 5s linear alternate infinite;}
	.st3{fill:none;stroke:#FAC9BC;stroke-linecap:round;stroke-linejoin:round;stroke-miterlimit:10;stroke-dasharray: 1000;stroke-dashoffset: 1000;animation: dash 5s linear alternate infinite;}
	.st4{fill:none;stroke:#F6E20C;stroke-width:0.75;stroke-linecap:round;stroke-linejoin:round;stroke-miterlimit:10;stroke-dasharray: 1000;stroke-dashoffset: 1000;animation: dash 5s linear alternate infinite;}
	.st5{fill:#F6E20C;}
	.st6{fill:none;stroke:#F6E20C;stroke-linecap:round;stroke-miterlimit:10;stroke-dasharray: 1000;stroke-dashoffset: 1000;animation: dash 5s linear alternate infinite;}
    
    @keyframes dash {
  from {
    stroke-dashoffset: 600;
  }
  to {
    stroke-dashoffset: 20;
  }
}
</style>
    
<g id="kita">
	<g>
		<path class="st0" d="M68.9,109.4c1.2,0.2,2.4,0.3,3.6,0.3c1.6,0.1,2-0.3,1.7-1.9c-1-4.6-1.1-9.2-0.9-13.8c0.2-4.5,0.8-9,0.5-13.4
			c-0.3-5.5-1-11.1-0.9-16.6c0.1-3.4-0.4-6.9-0.6-10.3c-0.2-3.7-0.2-7.5-0.3-11.2c-0.1-1.9-0.1-3.8-0.4-5.7
			c-0.1-0.8-0.7-1.8-1.3-2.2c-2.5-1.7-3.8-4.2-5.3-6.6c-1.2-2.1-2.6-4.1-3.9-6.1c-0.1-0.2-0.9-0.1-1,0.1
			c-4.4,6.1-9.8,11.3-15.1,16.7c-0.9,0.9-2.1,1.8-2.6,3c-0.5,1.4-0.6,3.1-0.5,4.6c0.1,2.1,0.7,4.3,0.9,6.4c0.3,4.4,0.6,8.8,0.6,13.2
			c0,6.9-0.1,13.8-0.3,20.7c-0.1,3.6-0.3,7.2-0.6,10.8c-0.4,3.7-1,7.3-1.6,11c-0.1,0.5-0.2,1-0.5,1.3c-0.4,0.5-1,0.8-1.5,1.2
			c-0.1-0.6-0.2-1.1-0.2-1.7c0.4-2.7,1-5.4,1.2-8.2c0.3-4,0.5-8,0.6-12c0.2-5,0.2-10,0.3-15c0.1-2.1,0.3-4.2,0.3-6.2
			c-0.1-3.9-0.4-7.7-0.6-11.6c-0.2-2.9-0.4-5.7-0.6-8.6c0-0.3,0.1-0.5,0-0.8c-0.3-0.9-0.5-1.4-1.7-0.7c-2.2,1.3-4.6,2.2-6.3,4.2
			c-2.1,2.4-4.4,4.5-6,7.4c-0.3,0.5-1.4,0.9-2,0.7c-1.2-0.4-2.4-1.1-3.5-1.8c-1.2-0.7-1-1.7-0.2-2.6c1.8-2.1,3.7-4.1,5.4-6.1
			c2-2.4,4-4.9,6-7.2c0.6-0.7,1.4-1.1,2-1.7c3.5-3.7,7-7.6,10.6-11.2c2.8-2.8,6-5.3,8.9-8c1.9-1.8,3.7-3.6,5.5-5.4
			c0.4-0.4,0.8-0.9,1.2-1.3c0.8-0.9,1.5-0.8,2.4,0c2,1.8,3,4.2,4.1,6.5c1,2.2,2.4,4.2,3.7,6.2c0.1,0.2,0.3,0.2,0.5,0.3
			c0.1-0.2,0.2-0.3,0.2-0.5c0.3-2,0-2.8-1.9-3.9c-1-0.6-1.7-2.8-1.2-3.8c0.1-0.2,0.4-0.3,0.6-0.3c1.8,0.3,3.2-0.6,4.6-1.6
			c0.2-0.1,0.3-0.3,0.4-0.5c-0.2-0.1-0.4-0.3-0.6-0.4c-0.3-0.1-0.5-0.2-0.8-0.3c-2-0.6-2.2-1.8-0.9-3.1c1-1,1.1-1.7,0-2.7
			c-0.3-0.3-0.3-1.1-0.2-1.6c0.2-0.9,0.6-1.6,1-2.4c0.2-0.3,0.5-0.6,0.7-1c0.3,0.3,0.7,0.6,1,0.9c0.2,0.2,0.3,0.7,0.2,0.9
			c-1.1,1.6-0.8,3,0.3,4.5c0.2,0.3-0.8,1.4-1.2,2c-0.4,0.5-1.3,1.1,0.3,1.1c0.1,0,0.1,0.2,0.2,0.2c2.6,1.2,2.7,2,0.4,3.7
			c-0.6,0.4-0.4,0.5,0.1,0.6c1.2,0.1,2.4,0.1,3.6,0.2c0.1,0,0.2-0.1,0.3-0.2c-1.5-1.6,2.2-3.5-0.3-5.1c-0.2-0.1,0.1-0.9,0.2-1.4
			c0.2-0.9,0.3-1.8,0.7-2.5c0.3-0.6,1.1-1,1.7-1.5c0.1-0.1,0.5,0.1,0.5,0.2c-0.1,1.2,0,2.5-0.5,3.6c-0.5,1.2-0.6,1.8,0.6,2.4
			c0.3,0.1,0.5,0.3,0.8,0.4c0.3,0.3,0.7,0.5,1.1,0.8c-0.4,0.2-0.8,0.3-1.1,0.6c-0.5,0.4-1.2,0.7-1.5,1.2c-0.3,0.4-0.7,1.3,0.5,1.2
			c1.4-0.1,2.7,0.2,3.4,1.7c0.1,0.2,0.3,0.3,0.4,0.4c0.4,0.4,0.8,0.7,1.2,1.1c-0.6,0.2-1.2,0.5-1.8,0.6c-2.3,0.3-2.3,0.3-2.3,2.7
			c-0.1,3.7,0.1,7.4-0.4,11c-0.4,2.6,0.6,4,2.2,5.5c2.3,2.3,4.6,4.6,6.7,7c1.3,1.4,2.1,3.2,3.3,4.8c0.4,0.6,1.2,0.9,1.8,1.4
			c0.3,0.2,0.5,0.4,0.7,0.7c-0.3,0.2-0.5,0.4-0.8,0.6c-0.8,0.4-1.7,0.8-2.5,1.2c-1.4,0.8-2.3,0.2-3.1-0.9c-1.8-2.2-3.7-4.3-5.5-6.5
			c-2.7-3.2-5.3-6.5-7.9-9.8c-0.1-0.1-0.2-0.2-0.2-0.2c-0.3-0.3-0.6-0.5-0.9-0.8c0,0.4-0.1,0.8-0.1,1.2c0.1,2.1,0.2,4.3,0.3,6.4
			c0.1,3.7,0.2,7.4,0.3,11c0.1,1.8,0.5,3.2,2.6,4.1c3.1,1.3,5.8,3.4,8.8,4.8c2.4,1.2,5.2,1.8,7.6,3c3.1,1.6,6,3.7,9,5.4
			c1.5,0.9,3.3,1.4,4.9,2.1c2,1,2.4,1.9,1.7,4.1c-0.6,1.9-1,3.8-0.3,5.7c0.1,0.3,0,0.8,0,1.1c0.2,7.2,0.4,14.4,0.6,21.6
			c0.1,2,1.8,1.5,2.7,1.7c3.7,0.6,7.4,0.9,11.1,1.3c4.5,0.5,9.1,1,13.7,1.6c5.1,0.7,10.2,1.4,15.3,2.2c4,0.6,8.1,1.2,12.1,1.9
			c4.7,0.8,9.4,1.7,14.1,2.5c4.2,0.8,8.4,1.5,12.6,2.2c0.6,0.1,1.5,0.2,1.1,1.1c-0.1,0.4-0.9,0.8-1.4,0.8c-2.9-0.4-5.7-0.8-8.6-1.3
			c-2.6-0.4-5.1-1-7.7-1.5c-3.7-0.7-7.5-1.3-11.2-1.9c-3-0.5-6-0.9-9.1-1.3c-3.4-0.5-6.8-1.1-10.2-1.5c-2.6-0.4-5.3-0.7-8-1
			c-3.3-0.4-6.7-0.9-10-1.3c-3-0.3-6-0.6-9.1-0.9c-2.4-0.3-4.7-0.8-7.1-1.2c-1.2-0.2-2.4-0.3-3.6-0.4c-4.4-0.2-8.8-0.3-13.3-0.3
			c-4.8-0.1-9.7,0-14.5,0c-4.5-0.1-9-0.3-13.4-0.3c-4.8,0-9.6-0.1-14.4,0.3c-7.2,0.7-14.4,1.4-21.4,3.3c-5.3,1.5-10.8,2.3-16.2,3.6
			c-1.7,0.4-3.3,1.1-5,1.6c-0.5,0.2-1.1,0.3-1.6,0.1c-0.4-0.1-0.7-0.6-1-0.9c0.3-0.3,0.7-0.7,1-0.8c4.4-1.2,8.9-2.4,13.4-3.5
			c5.4-1.3,10.7-2.6,16.1-3.8c2.6-0.5,5.2-0.6,7.8-1c6.8-0.9,13.7-1.1,20.6-0.9L68.9,109.4z M76.1,82.7c-0.2,3.4-0.5,6.7-0.6,10.1
			c-0.2,5.3-0.1,10.7,1,15.9c0.1,0.4,1,0.8,1.5,0.9c0.4,0.1,0.9-0.1,1.4-0.1c4.3,0,8.6,0,12.8,0c3.5,0,7,0,10.5,0
			c0.4,0,0.9,0.1,1.4,0.2c2.7,0.8,3.3,0.3,2.8-2.4c0-0.2,0-0.3,0-0.5c-0.1-5.9-0.2-11.9-0.3-17.8c0-1.5-0.2-3-0.3-4.4
			c0-0.3-0.4-0.7-0.7-0.8c-2.3-1.1-4.6-2-6.9-3.1c-4.2-2.1-8.3-4.3-12.4-6.4c-3.1-1.5-6.3-2.9-9.5-4.3c-0.4-0.2-1-0.2-1.4-0.3
			c-0.1,0.5-0.2,1-0.2,1.5C75.5,74.9,75.8,78.7,76.1,82.7 M105.6,78.2c-2.2-0.9-4.5-1.7-6.6-2.8c-2.9-1.6-5.6-3.7-8.5-5.2
			c-2.2-1.2-4.8-1.6-7-2.7s-4.2-2.6-6.3-3.8c-0.7-0.4-1.5-0.5-2.3-0.8c0.1,0.7,0.2,1.4,0.3,2c0,0.5,0.1,1.1,0,1.6
			c-0.2,1,0.5,1.4,1.2,1.6c1.5,0.5,3.1,0.9,4.5,1.6c4.6,2.2,9.2,4.5,13.8,6.8c3.6,1.7,7.2,3.4,10.8,5.1c0.4,0.2,1.4-0.1,1.4-0.2
			C107,80.2,107.4,78.8,105.6,78.2 M72.8,28.7c1.4,1.9,2.8,3.8,4.3,5.6c0.4,0.5,0.9,0.9,1.4,1.3c0-0.4-0.1-0.9-0.1-1.4
			c0-0.3,0-0.5,0-0.8c0.2-2.6,0.5-5.3,0.6-7.9c0.2-4.3-0.5-3.4-3.4-3.5c-1.7-0.1-2.7,0.3-2.8,2C72.7,25.6,72.7,27.1,72.8,28.7
			 M78.8,20.8c0.7-0.1,1.5-0.2,2.2-0.3c0.3-0.1,0.5-0.3,0.8-0.4c-0.3-0.2-0.6-0.5-0.9-0.5c-3.8-0.1-7.6-0.3-11.3-0.3
			c-0.3,0-0.5,0.2-0.7,0.3c0.2,0.3,0.4,0.9,0.6,0.9c1.7,0.1,3.4,0.1,5.1,0.2C75.9,20.7,77.2,20.8,78.8,20.8"/>
		<path class="st0" d="M176.3,86.4c0.9-1.5,2.6-6.7,3.5-8.1c0.2-0.3,0.5-0.5,0.7-0.7c0.4-0.3,1.9-0.7,2.8-0.3
			c1.6,0.8,0.7,2.2,0.4,2.9c-1.3,3-5.9,6.1-6.3,6.6c1.1,2.5,0.7,4.2,0.9,4.7c0.3,0.9-0.7,3-1.8,3.6c-0.4,0.3-0.6,1.3-0.4,1.8
			c1.2,3.4,3.7,4.5,7.2,3.6c0.3-0.1,0.6-0.1,0.9,0c0.3,0,0.6,0.2,0.9,0.3c-0.2,0.3-0.3,0.8-0.6,0.9c-2,1-4.1,1.6-6.3,0.4
			c-0.3-0.2-0.6-0.2-0.9-0.3c0.1,0.3,0.2,0.6,0.3,0.9c0.4,1.4,1,2.8,1.4,4.3c0.2,0.9,0.1,1.7-1.2,1.6c-1.8-0.2-3.7-0.3-5.5-0.3
			c-0.2,0-0.4,0.1-0.6,0.2c0.1,0.1,0.3,0.2,0.3,0.3c0.4,0.7,0.9,1.3,1,2c0.2,1.6,0.2,3.2,0.2,4.8c0,0.3-0.5,0.8-0.8,0.8
			s-0.9-0.3-1-0.6c-0.3-1-0.5-2.1-0.7-3.2s-0.4-2.2-0.7-3.3c-0.1-0.3-0.5-0.6-0.8-0.6s-0.7,0.4-0.7,0.7c-0.6,2-1,4-1.6,5.9
			c-0.1,0.3-0.8,0.9-0.9,0.8c-0.5-0.2-1.2-0.7-1.2-1.1c0.1-1.4,0.4-2.8,0.6-4.1c0.1-0.7,0.3-1.3,0.4-1.9c-0.7,0-1.4-0.1-2.2,0
			c-0.9,0-1.7,0.3-2.6,0.3c-0.5,0-1.3-0.3-1.4-0.5c-0.1-0.6,0-1.3,0.3-1.9c0.7-1.1,1.5-2.1,2.2-3.2c0.1-0.2,0.1-0.6,0.2-0.9
			c-0.3,0.1-0.7,0-0.9,0.2c-1.1,0.5-2.2,1-3.4,0.3c-0.3-0.2-0.5-0.4-0.8-0.6c0.3-0.2,0.6-0.5,0.9-0.6c3.5-0.9,5.6-3.3,6.9-6.5
			c0.3-0.7,0.9-1.5,0.5-2.2c-1.1-2.5-1.4-4.2-0.5-5.3c0.8-1.1,1.1-1.9,1.7-3.1c0.4-0.7-1.1-5.6-0.9-7.3c0.3-1.5,1.5-4.7,4.2-3.1
			c1.1,0.6,0.9,2.3,1,2.8c0,1.2-0.6,2.4-0.9,3.4c-0.4,0.8-2,4-2,4.4C170.7,83,176.3,86.4,176.3,86.4z M176.6,106
			c-0.9-3-1.7-6-2.7-8.9c-0.1-0.4-1-0.8-1.6-0.9c-1.1-0.3-2.2-0.4-3.4-0.6c-0.8-0.2-1.3,0.1-1.6,0.9c-1.5,3.4-3,6.7-4.6,10
			c-0.3,0.6-0.3,0.8,0.4,0.7c1.2-0.2,2.3-0.5,3.5-0.6c3.3-0.2,6.6-0.2,10-0.2c0.1,0,0.2,0,0.3,0C176.8,106.3,176.7,106.3,176.6,106"
			/>
		<path class="st0" d="M49.8,47.1c0.6-3,2.9-4.3,5.3-5.1c2.4-0.8,5-1.4,7.5-1.5c3.2-0.2,5.4,2.1,4.6,5.6c-0.3,1.5-0.8,3-1,4.6
			c-0.2,1.4-1.1,2.1-2.3,2.3c-3,0.5-6,0.9-9.1,1.2c-1.1,0.1-2.4-0.1-3.4-0.5c-2.4-0.9-2.7-1.9-1.8-5.4
			C49.6,47.9,49.6,47.6,49.8,47.1 M53.6,45.1c-1.7,1.5-2.3,3.5-2.4,5.6c-0.1,1.2,0.5,1.8,1.6,1.6c3.2-0.3,6.5-0.5,9.7-1
			c0.6-0.1,1.3-1,1.5-1.7c0.5-1.1,0.7-2.3,1-3.5c0.7-2.7-0.6-4.4-3-3.8C59.3,43,56.6,44.1,53.6,45.1"/>
		<path class="st0" d="M82.4,102.8c0-2.1,0-4.1,0.1-6c0.1-2.4,0.1-4.8,0.3-7.1c0.2-2.4,0.7-2.8,3.1-3c2.1-0.2,4.3-0.2,6.5-0.3
			c2.8-0.2,5.5-0.5,8.3-0.6c1.7-0.1,2.1,0.7,2,2.3c-0.1,2.7,0.1,5.4,0,8c0,1.5-0.1,3.1-0.4,4.5c-0.1,0.5-0.8,1.1-1.3,1.2
			c-4.1,0.2-8,1.4-11.9,2.3c-1.8,0.4-3.8,1.2-5.6-0.1C83,103.7,82.8,103.3,82.4,102.8 M89.7,89.7c0.1-1.2-0.6-1.6-1.7-1.4
			c-1.1,0.3-2.7,0-3,1.7c-0.3,1.5-0.3,3-0.3,4.4c0,1,0,2,0,3.1c-0.1,1.2-0.3,2.4-0.3,3.6c0,1.1,0.3,2,1.8,1.7c2-0.5,3.9-0.9,5.8-1.5
			c0.3-0.1,0.6-0.5,0.6-0.6c-0.5-2.1,0.1-4.5-1.8-6.2c-0.2-0.2-0.3-0.6-0.4-0.9C90.1,92.3,89.9,91.1,89.7,89.7 M100.9,98.3
			c0-0.1,0.2-0.2,0.2-0.3c-0.2-3.3-0.4-6.6-0.7-9.9c0-0.2-1-0.5-1.5-0.5c-1.1,0.1-2.2,0.5-3.4,0.6c-2.6,0.2-2.6,0.1-2,2.6
			c0.2,0.9,0.3,1.8,0.3,2.7c0.1,1.4,0,2.8,0.4,4.2c0.3,1-0.3,2.8,1.5,2.8c1.4,0,2.8-0.3,4.1-0.7C100.2,99.7,100.4,98.9,100.9,98.3"
			/>
	</g>
	<path class="st0" d="M172.3,89.1c0.1-0.5,0.7-0.7,1-0.9c0.4-0.1,1,0.1,1.3,0.3c0.2,0.2,0.4,0.9,0.3,1.1"/>
	<path class="st0" d="M169,91.2c0.4,1.9,2.2,2.5,3.8,1.2c0.3-0.2,0.4-0.5,0.6-0.7c-0.3-0.1-0.6-0.3-0.9-0.2
		c-1.2,0.2-2.2-0.2-3.5-0.4L169,91.2z"/>
	<path class="st0" d="M168.2,88.2c0.1-0.5,0.7-0.7,1-0.9c0.4-0.1,1,0.1,1.3,0.3c0.2,0.2,0.4,0.9,0.3,1.1"/>
	<path class="st1" d="M49.2,80.1c0.4-1.5,0.8-2.9,1.1-4.3c0.5-2.2,2.2-3.2,4.2-3.7c1.2-0.3,2.6-0.3,3.8-0.3c1.6-0.1,3.3-0.3,4.9-0.3
		c4.4-0.2,5.3,1.9,5.4,5.3c0.1,5.3-0.3,10.6-0.5,16c-0.1,3.5-0.3,10.1-0.3,13.6c0,1-1.4,1.3-1.9-0.1s0.4-21.6,0.6-26.6
		c0-1.5,0.1-3.1,0-4.6c-0.1-1.6-1.3-2.5-2.9-2.3c-1.6,0.1-3.3,0.2-4.9,0.3c-1.2,0.1-2.4,0.2-3.6,0.5c-2.3,0.6-2.7,2.6-3.1,4.5
		c-0.8,4.4-1.5,8.8-1.9,13.2c-0.4,4.9-0.4,9.9-0.7,14.9c0,0.5-0.1,1.1-0.3,1.6c-0.2,0.3-0.7,0.6-1.1,0.5c-0.3,0-0.7-0.5-0.8-0.9
		c-0.1-1.7-0.2-3.3-0.2-5c0.1-2.4,0.4-4.7,0.4-7.1C47.3,90.4,48.1,85.3,49.2,80.1"/>
	<path class="st1" d="M51.4,94.8c0.3-1.7,1.8-2.6,2.9-1.8c0.3,0.2,0.4,1.3,0.2,1.7c-0.3,0.6-1,1.1-1.6,1.3
		C52,96.4,51.5,95.9,51.4,94.8"/>
	<path class="st2" d="M139.5,70.4c-2.2-4.2,1-9,3.8-11.2s5.7-1.3,8.5,0c3.4,1.5,6.8,2,9.9-0.7c0.6-0.5,1-1.4,1.4-2.1
		c0.3-0.6,0.3-1.9,1.4-1.3c0.6,0.3,1.1,1.2,1.1,1.8c-0.1,1.4-0.4,3-1,4.3c-1.3,3-2.8,5.9-6,7.2c-1.4,0.6-3,0.9-4.4,1
		c-2.6,0.2-6.7,0.9-9.2,0.7C145,70.1,140.1,70.5,139.5,70.4z"/>
	<path class="st2" d="M148.6,63.3c1.6,0.3,3.1,0.9,4.5,0.9c1.9-0.1,3.7-0.6,5.5-1c0.3-0.1,0.6-0.1,0.9-0.1c-0.2,0.3-0.3,0.6-0.5,0.9
		c-2,2.2-4.7,2.1-7.3,1.7c-1.5-0.3-3-0.9-4.6-1c-0.8-0.1-1.6,0.4-2.4,0.7c-0.3,0.1-0.5,0.6-0.8,0.7c-0.4,0.1-0.9,0-1.4,0
		c0.1-0.4,0.2-0.8,0.4-1.2C144.2,63.1,146.4,62.5,148.6,63.3"/>
	<path class="st3" d="M135.7,71.7c5.1-1.5,8.7,2,8.7,2c1.5,1.9,1,4.4,0.5,6.1c-0.8,2.2-1.2,3.4-3.2,4.2c-1,0.3-0.3,3.4,0.4,4.5
		c0.8,1.2,1.2,2.6,2,3.7c0.3,0.5,1.3,0.8,1.8,0.8c2-0.3,4-0.9,6-1.2c1-0.2,2.1-0.3,3.2-0.3c0.4,0,0.8,0.5,1.2,0.8
		c-0.3,0.2-0.6,0.6-0.9,0.6c-2.7,0.6-5.5,1.3-8.3,1.7c-1.5,0.3-1.7,0.4-1.1,1.7c0.6,1.2,1.2,2.3,1.9,3.5c0.6,1,0.4,1.4-0.9,1.4
		c-2.3,0-4.5,0-6.8,0c-1.6,0-2.2,0.6-1.8,2.1c0.7,2.2,1.5,4.3,2.6,6.3c0.5,0.9,1.9,1.2,2.8,1.7c0.3,0.2,0.5,0.4,0.8,0.6
		c-0.3,0.2-0.5,0.5-0.7,0.6c-1.4,0.8-4.3-0.4-5.3-2.3c-1.2-2.1-2.7-4.2-2.6-6.8c0-0.5-0.3-0.7-0.9-0.2c-2.1,1.8-3.1,4.2-3.8,6.8
		c-0.2,0.9-0.7,1.2-1.3,1c-0.4-0.2-0.9-0.9-0.9-1.2c0.4-2.9,0.9-5.7,3.7-7.4c0.4-0.2,0.6-0.7,0.9-1c-0.4-0.1-0.8-0.1-1.2-0.1
		c-1.5-0.2-3-0.3-4.4-0.7c-1.4-0.4-2.1-1-1.2-2.7c0.7-1.4,1.2-2.9,2.1-4.2c0.9-1.2,0.2-1.4-0.7-1.5c-1.7-0.2-2.9-1-3.8-2.3
		c-0.3-0.4-0.2-1.2-0.3-1.9c0.7,0.3,1.4,0.4,1.9,0.7c0.6,0.4,1.1,1.1,1.7,1.4c1.5,0.8,2.2,0.5,2.9-0.9c0.2-0.3,1-0.9,1.2-1.2
		c0.7-1.1,2.4-2.3,1.2-3.3c-2.7-2.3-4.5-4.7-3.6-7.7C130.6,74.3,132.9,72.8,135.7,71.7 M135.7,71.7"/>
	<path class="st1" d="M142.3,93c-0.1-0.2-0.2-0.5-0.3-0.7c-0.5-0.7-1.2-1.4-1.5-2.2c-0.9-1.9-1.7-3.3-4.3-2.6
		c-1.3,0.3-2.2,0.7-2.8,1.9c-1.2,2.4-2.4,4.8-3.5,7.5"/>
	<path class="st1" d="M129.9,96.9c-0.2,0.5-0.5,1-0.6,1.5c0,0.3,0.3,0.9,0.5,0.9c4,0.2,8.1,0.3,12.1,0.3c0.9,0,1.8-0.2,2.7-0.3
		c-0.3-0.9-1.2-3.9-1.6-4.8"/>
	<path class="st0" d="M137.9,77c0-0.7,0.7-1.1,1.1-1.3c0.4-0.2,1.3-0.1,1.7,0.1c0.3,0.2,0.7,1,0.7,1.3"/>
	<path class="st0" d="M134.2,80.5c1,2.3,3.5,2.6,5.1,0.6c0.3-0.3,0.4-0.7,0.6-1c-0.4,0-0.8-0.3-1.2-0.1c-1.5,0.5-2.9,0.3-4.5,0.3
		L134.2,80.5z"/>
	<path class="st0" d="M132.5,77c0-0.7,0.7-1.1,1.1-1.3c0.4-0.2,1.3-0.1,1.7,0.1c0.3,0.2,0.7,1,0.7,1.3"/>
</g>
<g id="Ebene_2">
	<path class="st4" d="M31.1,20.8l-9.4,5.3c0,0-5-6.4-0.3-9.1C27.7,13.4,31.1,20.8,31.1,20.8z"/>
	<g>
		<path class="st5" d="M37.6,16.1c-1,0.8-2,1.6-3.1,2.3c-0.5,0.4-1,0.8-1.6,1.1c-0.6,0.3-1.2,0.5-1.9,0.6c0,0-0.1,0-0.1,0
			c0,0,0,0,0,0c0.4-0.6,0.9-1,1.4-1.4c0.5-0.4,1.1-0.6,1.7-0.9C35.2,17.1,36.4,16.5,37.6,16.1C37.6,16,37.6,16,37.6,16.1
			C37.6,16,37.6,16.1,37.6,16.1z"/>
	</g>
	<g>
		<path class="st5" d="M33.5,14.7c-0.6,0.6-1.2,1.2-1.8,1.8c-0.3,0.3-0.6,0.7-0.9,0.9c-0.4,0.2-0.8,0.4-1.3,0.4c0,0-0.1,0-0.1-0.1
			c0,0,0,0,0,0c0.2-0.5,0.4-0.8,0.7-1.1c0.3-0.3,0.7-0.5,1.1-0.7C31.9,15.4,32.7,15,33.5,14.7C33.4,14.6,33.5,14.6,33.5,14.7
			C33.5,14.7,33.5,14.7,33.5,14.7z"/>
	</g>
	<g>
		<path class="st5" d="M30.4,9.2c-0.5,1.3-1,2.5-1.6,3.7c-0.3,0.6-0.5,1.3-0.9,1.8c-0.4,0.6-0.8,1.1-1.4,1.6c0,0-0.1,0-0.1,0
			c0,0,0,0,0,0c0.1-0.7,0.3-1.4,0.6-2c0.3-0.6,0.7-1.2,1-1.7C28.8,11.4,29.5,10.3,30.4,9.2C30.3,9.1,30.3,9.1,30.4,9.2
			C30.4,9.1,30.4,9.2,30.4,9.2z"/>
	</g>
	<g>
		<path class="st5" d="M23.1,9.8c0.1,1,0.2,2.1,0.3,3.1c0,0.5,0.2,1,0.1,1.6c-0.1,0.5-0.2,1-0.5,1.5c0,0,0,0-0.1,0c0,0,0,0,0,0
			c-0.3-0.5-0.4-1-0.4-1.6c-0.1-0.5,0.1-1,0.1-1.6C22.8,11.9,22.9,10.9,23.1,9.8C23,9.8,23.1,9.8,23.1,9.8
			C23.1,9.8,23.1,9.8,23.1,9.8z"/>
	</g>
	<g>
		<path class="st5" d="M14.2,8.4c1.2,1.4,2.3,2.8,3.4,4.2c0.6,0.7,1.2,1.4,1.6,2.1c0.5,0.8,0.9,1.6,1.2,2.5c0,0,0,0.1,0,0.1
			c0,0,0,0,0,0c-0.7-0.6-1.4-1.2-1.9-1.9c-0.6-0.7-1-1.5-1.5-2.3C16,11.6,15.1,10,14.2,8.4C14.1,8.4,14.2,8.4,14.2,8.4
			C14.2,8.4,14.2,8.4,14.2,8.4z"/>
	</g>
	<g>
		<path class="st5" d="M12.8,18.9c1.1,0,2.1,0,3.2,0.1c0.5,0,1.1,0,1.6,0.1c0.5,0.1,1,0.3,1.5,0.7c0,0,0,0.1,0,0.1c0,0,0,0,0,0
			c-0.6,0.2-1.1,0.2-1.6,0.2c-0.5,0-1-0.2-1.6-0.3C14.8,19.5,13.8,19.3,12.8,18.9C12.7,19,12.7,19,12.8,18.9
			C12.7,18.9,12.7,18.9,12.8,18.9z"/>
	</g>
	<g>
		<path class="st5" d="M7.6,25.9c1.9-0.6,3.9-1.2,5.9-1.8c1-0.3,1.9-0.7,2.9-0.8c1-0.2,2-0.3,3.1-0.3c0,0,0.1,0,0.1,0.1c0,0,0,0,0,0
			c-0.9,0.5-1.9,0.9-2.9,1.2c-1,0.3-2,0.4-3,0.6C11.6,25.3,9.6,25.6,7.6,25.9C7.6,26,7.5,26,7.6,25.9C7.5,25.9,7.5,25.9,7.6,25.9z"
			/>
	</g>
	<g>
		<path class="st5" d="M15.3,27.4c0.9-0.6,1.7-1.1,2.6-1.7c0.4-0.3,0.9-0.6,1.3-0.8c0.5-0.2,1-0.3,1.6-0.3c0,0,0.1,0,0.1,0.1
			c0,0,0,0,0,0c-0.3,0.5-0.8,0.8-1.2,1.1c-0.4,0.3-1,0.4-1.4,0.6C17.3,26.8,16.3,27.2,15.3,27.4C15.3,27.5,15.3,27.5,15.3,27.4
			C15.2,27.4,15.3,27.4,15.3,27.4z"/>
	</g>
	<path class="st6" d="M24.8,27.1c0,0,4.6,1.5,5.7-3.5"/>
	<g>
		<path class="st5" d="M26.1,18.1c0.2,0.3,0.3,0.5,0.4,0.7c0.1,0.2,0.2,0.5,0.3,0.7c0.2,0.5,0.2,1.1,0,1.5c-0.1-0.5-0.4-0.8-0.7-1.1
			c-0.2-0.2-0.3-0.3-0.5-0.4c-0.2-0.1-0.4-0.2-0.5-0.3c-0.4-0.2-0.6-0.6-0.5-1c0.2-0.4,0.6-0.6,1-0.5C25.8,17.8,26,17.9,26.1,18.1
			L26.1,18.1z"/>
	</g>
	<g>
		<path class="st5" d="M22.9,19.5c0.2,0.2,0.3,0.5,0.4,0.7c0.1,0.2,0.2,0.5,0.3,0.7c0.2,0.5,0.2,1.1,0,1.5c0-0.5-0.3-0.8-0.6-1.1
			c-0.2-0.1-0.3-0.3-0.5-0.4c-0.2-0.1-0.4-0.2-0.5-0.3c-0.4-0.1-0.6-0.6-0.5-1c0.1-0.4,0.6-0.6,1-0.5C22.7,19.2,22.8,19.3,22.9,19.5
			L22.9,19.5z"/>
	</g>
</g>
</svg>
