<?xml version="1.0" encoding="utf-8"?>
<!-- Generator: Adobe Illustrator 24.0.0, SVG Export Plug-In . SVG Version: 6.00 Build 0)  -->
<svg version="1.1" id="Ebene_1" xmlns="http://www.w3.org/2000/svg" xmlns:xlink="http://www.w3.org/1999/xlink" x="0px" y="0px"
	 viewBox="0 0 143.2 102" style="enable-background:new 0 0 143.2 102;" xml:space="preserve">
<style type="text/css">
	.st0{fill:#FFFFFF;}
	.st1{fill:#ED6D4F;}
	.st2{fill:#ED6C4D;}
	.st3{fill:#F5E318;}
	.st4{fill:#EE7255;}
	.st5{fill:#F5E112;}
	.st6{fill:#F6E328;}
	.st7{fill:#F2937C;}
	.st8{fill:#F1876D;}
	.st9{fill:#F6E250;}
	.st10{fill:#94C251;}
</style>
<g id="Ebene_1_1_">
	<g>
		<path class="st0" d="M51.1,89.5c-0.6,0.1-1.2,0.3-1.8,0.4c-0.9,0.2-0.8-0.4-0.7-1c0-0.1,0.1-0.2,0.2-0.3c0.8-1.7,0.2-2.6-1.3-3.6
			c-1.2-0.8-2-2.1-3.1-3c-0.5-0.4-1.2-0.7-1.9-0.8C41,81.1,39.5,81,38,81c-2.6,0.1-5.1,0.4-7.7,0.7c-0.3,0-0.7,0.5-1,0.8
			c-1.1,1.5-2.1,3.1-3.8,4.1c-0.7,0.4-0.8,1-0.4,1.8c0.6,0.9,0.4,1.2-0.7,1.3c-1.3,0.1-2.5,0.3-3.7,0.4c-1.4,0.1-2.4-1.2-2-2.6
			c0.1-0.4,0-0.8,0.1-1.1c0.4-1.5,2.2-2.2,3.8-1.6c0.1,0,0.1,0,0.2,0c0.7,0.3,1.5,1,1.9,0.8c0.9-0.4,1.5-1.3,2.3-2
			c0.1-0.1,0.2-0.3,0.3-0.5c0.3-0.4,0.6-0.8,0.9-1.2c-0.5,0-1-0.1-1.5-0.1c-2,0-3.9,0.2-5.9,0.2c-1.4,0-2.8-0.3-4.2-0.4
			c-0.2,0-0.3-0.2-0.5-0.3c0.1-0.2,0.2-0.4,0.4-0.5c0.9-0.5,1.8-1,2.7-1.5c0.3-0.1,0.5-0.3,0.7-0.5c-0.3-0.1-0.7-0.2-1-0.3
			c-1.6-0.1-3.2-0.1-4.8-0.2c-0.8,0-1.5,0-2.3-0.1c-0.4,0-0.8-0.1-1-0.3c-0.6-0.6,0-3,0.7-3.5c1.7-1.3,3.5-1.6,5.6-1.5
			c0.3,0,0.9,0.4,0.5-0.6c-0.7-2-1.2-4.1-1.8-6.1c-0.7-2.5-1.5-5-1.7-7.7c-0.1-1.6-0.4-3.3-0.6-4.9c0-0.3-0.4-0.6-0.6-0.8
			c-0.5-0.7-1-1.3-1.4-2.1s-0.3-1.6,0.5-2.2c0.8-0.6,0.4-1.5,0.4-2.2c-0.1-2.5-0.4-5-0.4-7.5c0.1-2.6,0.5-5.1,0.8-7.7
			c0-0.1,0-0.1,0-0.2c0.1-0.5,0.3-1,0.4-1.5c-0.7,0-1.5-0.1-2.2,0c-0.6,0.1-1.1,0.2-1.3-0.4c-0.1-0.3,0.5-0.9,0.9-0.9
			c1.6-0.2,3.3-0.4,4.9-0.4c0.6,0,1.2,0.2,1.8,0.4c0.2,0,0.3,0.3,0.4,0.4c-0.2,0.1-0.4,0.3-0.6,0.4c-0.1,0-0.2,0-0.3,0
			C14.5,29,14.4,29,14.1,31c-0.3,1.8-0.5,3.6-0.6,5.5c-0.1,1.9-0.3,3.8-0.2,5.8s0.4,4,0.6,6c0,0.2,0.3,0.4,0.4,0.6
			c0.2-0.2,0.4-0.4,0.6-0.6c0.7-0.6,1.2-1.4,2-1.7c1.5-0.5,2.7,1.3,2.4,3.1c-0.1,0.5-0.2,1.1-0.5,1.5c-1.2,1.5-0.7,2.8,0.3,4.2
			c1.8,2.5,3.9,4.7,6.4,6.7c1.6,1.3,3.3,2.3,5.1,3.3c0.6,0.3,1.2,0.5,1.8,0.8c0.7,0.3,1.3,0.1,1.6-0.6c1.3-2.5,2.5-5,2.8-7.9
			c0.1-0.9-0.4-1.4-1.1-1.6c-2.1-0.6-3.8-1.9-4.6-3.9c-0.8-2-1.2-4.2-0.2-6.3c0.5-1,0.3-1.6-0.7-2c-0.8-0.3-1.3-0.9-1.1-1.8
			c0.1-0.6-0.3-0.8-0.8-1.1c-2.1-1.1-4.4-1.9-6.1-3.8c-1.3-1.5-2.1-3.2-2.2-5.1c0-0.1,0-0.1,0-0.2c0-0.5-0.1-1-0.1-1.4
			c0.5,0.3,1,0.6,1.4,0.8c0.5,0.3,1.1,0.6,1.7,0.6c2.3,0.2,4.6-0.1,6.9-0.7c3-0.7,5.9,0.9,6.2,4.3c0.1,0.6,0.2,1,0.9,1.1
			c1.1,0.1,1.6,0.7,1.6,1.9c0,0.6,0,0.7,0.7,0.5c2.3-0.8,4.7-1.1,7,0.1c0.4,0.2,0.8,0.6,0.8-0.4c0-1.6,1.9-3.7,4-2.8
			c0.5,0.2,0.6,0.1,0.9-0.3c1.4-1.6,2.8-3.2,4.8-3.8c1.7-0.6,3.4-0.5,5,0.5c1.2,0.8,2.5,1.3,3.9,1.3c0.3,0,0.6-0.1,0.9,0
			c0.4,0.1,0.7,0.3,1.1,0.4c-0.2,0.3-0.3,0.7-0.6,1c-1.7,1.9-3.5,3.8-5.3,5.7c-1.5,1.6-3.5,2-5.5,2.4c-0.6,0.1-1.2,0-1.7,0.3
			c-0.4,0.2-0.8,0.7-1,1.1c-0.5,1.6-2,2.2-3.3,1c-0.1-0.1-0.2-0.1-0.3-0.2c0,0.1-0.1,0.2,0,0.3c0.2,1.8-0.4,3.4-1.1,5
			c-1.2,2.6-2.6,5.1-5.6,6c-1.8,0.5-1.8,0.6-1.3,2.9c0.3,1.4,0.6,2.8,1.4,4.2c0.5,0.8,0.9,0.9,1.6,0.6c1.9-0.8,3.8-1.5,5.6-2.5
			c2.2-1.2,4.3-2.6,6.5-3.8c2.2-1.3,3.6-3.2,5.1-5.2c0.3-0.3,0.3-0.9,0.2-1.4c0-1.5,0.3-3,1.1-4.3c0.8-1.4,1.8-1.6,2.9-0.5
			c0.8,0.7,2,0.6,2.4-0.4c0.8-2,1.4-4.1,2.3-6c1.3-2.6,1-5.5,1.5-8.3c0.1-0.4,0.1-0.7,0.2-1.1c0.1-1.1-0.2-1.2-1.3-1.1
			c-1,0.1-2,0-2.9-0.1c-0.2,0-0.5-0.5-0.4-0.7s0.4-0.5,0.7-0.5c2.5-0.2,4.9-0.4,7.4-0.6c0.3,0,0.6,0,0.8,0.2c0.6,0.4,0.4,0.8-0.1,1
			c-0.8,0.2-1.6,0.4-2.5,0.5c-0.6,0-0.6,0.2-0.7,0.7c-0.3,3-0.3,6-0.9,8.9c0.1,1.9-0.9,3.9-1.7,6c-0.2,0.5-0.4,1-0.6,1.4
			c-0.1,0.3-0.1,0.7,0.1,1c1,2,0.8,3.7-1.1,4.6c-2.7,1.3-3.6,3.8-4.7,6.2c-1,2-1.9,4-2.8,5.9c-0.8,1.6-1.6,3.3-2.5,4.9
			c-0.9,1.8-1.5,3.7-3.1,5.1c-0.2,0.2-0.4,0.5-0.5,0.7c0.3,0,0.5,0.1,0.8,0.1c0.3,0.1,0.7,0,0.9,0.2c0.9,1,1.9,1.9,2.6,2.9
			c0.6,0.9-0.4,2.4-1.5,2.3c-1.6-0.1-3.2-0.3-4.8-0.4c-0.3,0-1.1-0.3-0.6,0.6c0.1,0.1,0,0.4,0.1,0.6c0.1,0.4,0.1,0.9,0.2,1.4
			c-0.5,0-1,0-1.5-0.1c-2.2-0.4-4.3-0.8-6.5-1.2c-0.2,0-0.3,0-0.5,0.1c0.1,0.1,0.2,0.3,0.3,0.4c1.1,1,2.1,2,3.3,2.8
			c0.5,0.4,1.2,0.7,1.7-0.2c0.6-1,1.6-1,2.5-0.7c0.8,0.2,1.1,1.1,1.1,1.9c0,0.9,0.7,1.9-0.3,2.6c-0.7,0.5-1.5,0.7-2.3,1.1
			C51.3,89.4,51.2,89.5,51.1,89.5 M46.5,71.3c-0.9-1.5-2-2.9-2.6-4.5c-0.9-2.4-2.6-4.5-2.4-7.3c0-0.1-0.1-0.3-0.2-0.4
			c-0.1,0.1-0.1,0.2-0.2,0.3c-0.6,0.6-1.2,0.6-1.8,0c-0.2-0.2-0.5-0.4-0.7-0.6c-0.1,0.3-0.1,0.6-0.2,1c-0.5,1.7-0.7,3.6-1.6,5.1
			c-1.2,2-2.9,3.9-4.5,5.6c-1.3,1.4-2.7,2.7-4.2,4c-2.6,2.2-5.2,4.3-8.3,5.8c-0.3,0.1-0.4,0.4-0.7,0.6c0.3,0.1,0.6,0.2,0.9,0.2
			c2.5-0.1,5-0.3,7.4-0.4c0.1,0,0.2-0.1,0.3-0.1c1.5-0.1,3.1-0.2,4.7-0.3c1.2-0.1,2.4-0.2,3.6-0.3c1.2-0.1,2.4-0.3,3.6-0.3
			c1.5,0,2.9,0.4,4.4,0.4c2.6,0,5.1,0.3,7.6,1.1c0.1,0,0.3,0,0.4,0.1c0-0.2,0-0.4,0-0.5c-0.4-0.8-0.7-1.5-1.2-2.2
			c-1-1.6-2.1-3.2-3.1-4.9C47.3,73,47,72.2,46.5,71.3 M48.2,50.5c1.3-2.2,1.5-4.7,0.9-7.2c-0.4-1.6-1.4-2.7-3.1-3.5
			c-2.6-1.2-5-0.3-7.4,0.6c-2.6,0.9-4.1,3.2-5.9,5c-0.1,0.1-0.3,0.3-0.3,0.5c-0.1,1.2-0.4,2.4-0.4,3.5c0.1,1.6,0.6,3.2,1.8,4.2
			c2.9,2.1,6,3,9.6,1.8C45.8,54.7,47.2,52.9,48.2,50.5 M64.2,56.5c0.4-0.7,0.8-1.5,1.3-2.2c0.1-0.1,0.1-0.3,0.1-0.4
			c-0.3-0.4-2-0.3-2.3,0.1c-1.3,1.9-2.9,3.7-4.9,4.9c-1.4,0.8-3,1.6-4.4,2.5c-2.5,1.7-5.2,3.1-8.1,3.9c-1.1,0.3-1.1,0.6-0.5,1.5
			c1.2,2,2.2,4,3.4,6c0.4,0.7,0.3,2,1.5,2.1c1.3,0.1,2.5,0.2,3.8,0.2c0.2,0,0.6-0.2,0.7-0.4c1.4-2.5,2.8-5,4.2-7.5
			c0.9-1.6,1.8-3.3,2.6-4.9C62.5,60.4,63.3,58.6,64.2,56.5 M24.8,62.7c-0.3-0.3-0.6-0.7-0.9-0.9c-2.6-1.4-3.9-3.9-5.6-6.1
			c-0.7-0.9-0.9-2-2.5-2.1c-1-0.1-0.8,0.3-0.7,0.7c0.1,1.3,0.5,2.6,0.6,3.9c0.2,2.4,0.8,4.8,1.5,7.1c0.7,2.3,1.3,4.7,1.9,7
			c0.2,0.6,0.5,1.1,1.4,1.1c2,0,4,0.1,6,0.2c0.4,0,1-0.2,1.4-0.5c1.5-1.5,3.1-3.2,4.6-4.7c0.9-1,0.9-1-0.3-1.4
			C29.4,65.9,26.9,64.7,24.8,62.7 M65.8,35.4c0.2-0.2,0.3-0.5,0.5-0.7c-0.1,0-0.3-0.1-0.4-0.1c-1.5,0.1-2.7-0.6-3.9-1.2
			c-0.6-0.3-1.3-0.6-2-0.7c-1.8-0.3-3.4,0.5-4.7,1.7c-1.1,1-1.9,2.2-2.8,3.4c-0.1,0.2-0.1,0.6-0.1,0.8c0.2-0.1,0.4-0.3,0.7-0.4
			c0.9-0.4,1.7-1,2.6-1.3c1.2-0.4,2.5-0.5,3.8-0.7c0.5-0.1,0.9-0.2,1.4-0.2c0.2,0,0.4,0.1,0.6,0.2c-0.1,0.2-0.2,0.5-0.4,0.6
			c-1,0.3-2.1,0.7-3.1,0.8c-1.5,0.3-3.1,0.3-4.4,1.5c-0.1,0.1-0.2,0.2-0.3,0.3c0.1,0.1,0.3,0.2,0.4,0.2c1.2,0.2,1.6,0.6,1.7,1.8
			c0,0.2,0.3,0.5,0.5,0.5c2.2-0.1,4.2-0.7,5.8-2.2C63,38.4,64.3,37,65.8,35.4 M24.9,37.5c1.5,0.8,2.9,1.7,4.4,2.5
			c0.2,0.1,0.7-0.1,0.8-0.3c0.8-1,1.7-0.8,2.7-0.5c0.2,0.1,0.4,0.1,0.6,0.2c0-0.2-0.1-0.4-0.1-0.6c-0.1-0.2-0.2-0.4-0.2-0.7
			c-0.4-1.7-2.3-3-4.2-2.3C28,36.1,27.1,36,26.2,36c-0.2,0-0.4-0.3-0.6-0.4c0.2-0.1,0.3-0.3,0.5-0.4c0.9-0.2,1.8-0.4,2.7-0.6
			c1.7-0.3,4.4,0.3,5.1,2.5c0.2,0.5,0.3,1.1,0.4,1.7c0,0.1,0.2,0.3,0.3,0.4c0.1-0.1,0.3-0.3,0.3-0.4c0.1-1.2,0.2-2.4,0.2-3.5
			c0-2.3-2.3-3.7-4.5-3c-2.7,0.8-5.5,1-8.3,0.4c-1-0.2-0.8,0.1-0.6,0.7C22.2,35,23.3,36.4,24.9,37.5 M25.3,75.3
			c0.2-0.2,0.5-0.5,0.7-0.7c-0.3,0-0.7-0.1-1-0.1c-1.4,0-2.7,0-4,0c-1,0-2.2,1.1-3.1-0.4c-1.7,0-3.5-0.3-5,0.9
			c-0.1,0.1-0.2,0.3-0.3,0.4c0.1,0.1,0.3,0.2,0.4,0.2c0.7,0,1.3,0,2,0c1.4,0.1,2.9,0.3,4.4,0.4c1.4,0,2.8-0.1,4.1-0.2
			C24.1,75.7,24.7,75.5,25.3,75.3 M67.5,48.4c-0.8-0.7-1.6-0.5-2.2,0.3c-0.5,0.6-0.9,1.3-1.1,2.1c-0.1,0.5,0.1,1.3,0.4,1.5
			s1.2,0,1.5-0.3c0.7-0.7,1.1-1.7,1.6-2.6C67.9,49.1,67.6,48.8,67.5,48.4 M19.9,87.9c0.3,0.4,0.5,1.1,0.8,1.1c0.7,0,1.5-0.2,2.2-0.4
			c0.1,0,0.1-0.3,0.1-0.4c-0.3-0.7-0.5-1.6-1-2.2s-1.8,0-1.9,0.9C20.1,87.2,19.9,87.4,19.9,87.9 M52,77.2c2,0.1,4,0.3,6,0.4
			c0.1,0,0.5-0.1,0.5-0.1c0-0.6-1.7-1.4-2.3-1.2c-0.6,0.1-1.2,0.3-1.8,0.3c-1.1-0.2-2.2-0.5-3.3-0.8c-0.2,0-0.4,0.1-0.6,0.2
			c0.1,0.1,0.1,0.3,0.2,0.4C51.1,76.7,51.4,76.9,52,77.2 M17.6,51.4c0.1-1.1,0.1-2.3,0.2-3.4c0-0.2-0.3-0.4-0.4-0.5
			c-0.1,0.1-0.4,0.2-0.4,0.4c-0.1,0.9-0.7,1.4-1.5,1.8C15,50,14.8,50.4,15.3,51C16,51.6,16.7,51.5,17.6,51.4 M49.6,40.4
			c0.7,0.1,1.2,0,1.3-0.9c0-0.6,0.3-1.1,0.4-1.7c0-0.3,0-0.7-0.2-0.8c-0.2-0.2-0.6-0.2-0.9-0.1C49.2,37.2,48.8,39.5,49.6,40.4
			 M51.4,87.8c0.3-0.1,0.5-0.4,0.8-0.4c1-0.1,0.9-0.8,0.8-1.5c0-0.1-0.1-0.3-0.1-0.5c-0.1-0.2-0.2-0.6-0.4-0.6s-0.6,0.1-0.7,0.3
			c-0.5,0.8-1,1.7-1.5,2.5c-0.1,0.3-0.1,0.6-0.2,0.8c0.3-0.1,0.6-0.2,1-0.4C51.1,88.1,51.1,88,51.4,87.8 M51,43.4
			c-0.1,0.8,0.5,0.7,0.8,0.5c0.8-0.8,1.5-1.6,2.2-2.5c0.1-0.1,0-0.4,0-0.6c-0.2,0-0.5,0-0.6,0.1c-0.7,0.4-1.4,0.9-2.1,1.4
			C51,42.5,51,43,51,43.4 M12.6,77.2c0.6,0.1,1.1,0.1,1.6,0.1c1.3,0.1,2.6,0.2,3.9,0.3c0.2,0,0.4-0.2,0.5-0.4c0,0-0.2-0.4-0.3-0.4
			c-0.6,0-1.2-0.1-1.7,0c-0.4,0-0.8,0.3-1.2,0.2c-0.9-0.1-1.9-0.4-2.8-0.6c-0.2,0-0.5,0.2-0.7,0.3C12.1,76.8,12.3,76.9,12.6,77.2
			 M32.9,43.1c0-0.7,0.1-1.4,0.1-2.1c0-0.3-0.6-0.6-0.9-0.6c-0.2,0-0.6,0.4-0.7,0.7c-0.3,0.5,0.3,2.2,0.8,2.4
			C32.4,43.5,32.6,43.2,32.9,43.1 M36.4,38.7c-0.2,0.4-0.5,0.8-0.6,1.2c-0.1,0.3-0.1,0.6-0.2,1c0.3-0.2,0.6-0.3,0.9-0.5
			c0.4-0.4,0.8-0.8,1-1.3s0.1-1,0.1-1.5c-0.3,0.3-0.7,0.5-1,0.8C36.5,38.4,36.5,38.5,36.4,38.7 M20.4,77.8c0.8-0.1,1.6-0.3,2.3-0.4
			c0.1,0,0.2-0.3,0.3-0.5c-0.2,0-0.3-0.1-0.5-0.1c-0.7,0-1.5,0-2.2,0c-0.3,0-0.5,0.3-0.7,0.5C19.9,77.4,20.1,77.6,20.4,77.8
			 M54.3,79.1c0.1-0.1,0.3-0.4,0.3-0.5c-0.1-0.2-0.3-0.3-0.5-0.4c-0.5,0-1,0-1.5,0c-0.2,0-0.4,0.2-0.5,0.3c0.2,0.2,0.3,0.5,0.6,0.6
			C53.1,79.2,53.6,79.1,54.3,79.1 M39.5,56.8c-0.3,0.1-0.6,0.1-1,0.2c0.3,0.3,0.5,0.8,0.8,0.8c0.5,0,1-0.3,1.5-0.4
			c0.1,0,0.1-0.2,0.2-0.4c-0.4-0.1-0.8-0.1-1.2-0.2C39.8,56.8,39.7,56.8,39.5,56.8 M55.6,79.3c0.4,0.1,0.7,0.2,1.1,0.2
			c0.3,0,0.5-0.3,0.7-0.5c-0.4-0.2-0.8-0.6-1.1-0.5S55.7,79,55.6,79.3 M58.4,79.5c0.2-0.2,0.5-0.3,0.7-0.5c-0.2-0.1-0.4-0.4-0.5-0.3
			c-0.3,0.1-0.7,0.3-1,0.5C57.8,79.3,58,79.4,58.4,79.5"/>
		<path class="st0" d="M63.8,73.4c1.9-1.8,3.5-3.7,4.7-5.9c0.4-0.7,0.6-1.5,1-2.2c0.1-0.3,0.4-0.5,0.6-0.7c0.2,0.4,0.6,0.8,0.5,1.1
			c-0.5,1.3-1,2.5-1.7,3.6c-0.9,1.3-2,2.5-3,3.7C65.3,73.5,64.6,73.8,63.8,73.4"/>
		<path class="st0" d="M7.2,67.8c-0.5-1.8-1-3.5-1.4-5.2c-0.1-0.6-0.1-1.2-0.1-1.7c0-0.2,0.1-0.4,0.2-0.6c0.2,0.2,0.6,0.3,0.7,0.5
			C6.9,61.5,7,62.2,7.3,63c0.6,1.9,1.2,3.8,1.7,5.8c0.1,0.6,0,1.2,0,1.8c-0.4-0.4-0.8-0.7-1-1.2C7.6,68.8,7.4,68.3,7.2,67.8"/>
		<path class="st0" d="M60.2,74.4C60,74.2,59.9,74,60,73.9c0.7-0.7,1.5-1.4,2.1-2.2c0.6-0.7,1.1-1.4,1.6-2.1c0.3-0.3,0.7-0.6,1-0.8
			c0,0.5,0.2,1.1,0,1.5c-0.3,0.7-0.8,1.2-1.3,1.8c-0.6,0.6-1.2,1.2-1.8,1.8C61.3,74.3,60.9,74.5,60.2,74.4"/>
		<path class="st0" d="M9.3,66c-0.1-0.6-0.2-1-0.2-1.5c0-0.2,0.2-0.4,0.3-0.6C9.6,64,10,64,10.1,64.2c0.2,0.5,0.3,1,0.4,1.5
			c0.2,1.1,0.9,1.8,1.8,2.4c0.2,0.1,0.3,0.3,0.5,0.5c-0.2,0.1-0.5,0.3-0.7,0.3c-1.1-0.1-1.7-0.8-2.2-1.6C9.7,66.9,9.5,66.5,9.3,66"
			/>
		<path class="st0" d="M40.4,54.5c-1.9,0.5-4.6-1-4.9-2.9c-0.1-0.7,0.2-0.8,0.9-0.7c1.4,0.1,2.9,0,4.3,0c1-0.1,2-0.3,3-0.3
			c0.8,0,1.1,0.4,0.5,1C43.2,52.6,42.3,54.1,40.4,54.5 M40.5,52c-0.9,0.1-1.8,0.1-2.8,0.2c-0.2,0-0.5,0.1-0.7,0.1
			c0.2,0.2,0.5,0.7,0.7,0.7c1.4-0.1,2.8-0.4,4.2-0.6c0.2,0,0.4-0.2,0.6-0.4c0.1-0.1-0.1-0.4-0.2-0.4C41.8,51.6,41.2,51.7,40.5,52"/>
		<path class="st0" d="M46.6,46.9c-0.1,0.4-0.3,0.7-0.4,1.1c-0.3-0.2-0.6-0.4-0.8-0.7c-1-1.5-1.3-1.6-2.8-0.6
			c-0.1,0-0.2,0.1-0.3,0.1c-0.4,0.1-0.9,0.2-1.4,0.3c0.3-0.4,0.5-1,0.9-1.4c1.2-1.2,2.6-1.2,3.9-0.2C46,45.7,46.3,46.3,46.6,46.9"/>
		<path class="st0" d="M36,45c1.1-0.5,2.2-0.8,3.3-0.1c0.6,0.4,0.9,0.8,0.4,1.4c-0.2,0.3-0.4,0.4-0.7,0.6c-0.2-0.2-0.4-0.4-0.5-0.7
			c-0.4-0.9-0.7-1-1.5-0.5c-0.6,0.4-1.2,0.8-1.8,1.2c-0.2,0.1-0.6-0.1-0.8-0.2c0.1-0.2,0.1-0.5,0.3-0.7C35.1,45.8,35.5,45.5,36,45"
			/>
		<path class="st0" d="M38.7,49.8c-0.5-0.1-0.8-0.1-0.4-0.6c0.7-0.7,1.8-0.8,2.5-0.3c0.1,0.1,0.2,0.3,0.2,0.4c0,0.1-0.2,0.2-0.3,0.3
			C40.1,49.7,39.5,49.8,38.7,49.8"/>
	</g>
	<path class="st1" d="M42,58.3c0.3,1.2,0.6,2.4,1,3.6c0.3,0.8,0.9,1.5,1.3,2.2c0.2,0.4,0.3,1,0.4,1.4c0.1,0.4,0.2,0.9,0.4,1.3
		c1.3,2.6,2.7,5.1,4.1,7.7c0.6,1.3,1.2,2.6,1.8,3.9c-0.1,0-0.3,0-0.4,0c-0.1-0.1-0.2-0.2-0.3-0.3c-1.6-2.6-3.2-5.3-4.7-7.9
		c-2-3.5-4.1-6.8-4.5-11c0-0.1-0.3-0.2-0.4-0.2c-0.7,0.6-1.3,0.6-2-0.1c-0.4-0.4-0.6-0.5-0.8,0.3c-0.5,2.2-0.8,4.5-2.3,6.4
		c-2.4,3.3-5.2,6.2-8.3,8.8c-2.2,1.8-4.6,3.3-6.9,5c-0.4,0.1-0.8,0.1-1.2,0.2c-0.3,0-0.7,0.1-1,0.1c0.5-0.3,1.1-0.6,1.5-1
		c0.6-0.6,1.2-1.2,2.2-1.3c0.2,0,0.4-0.3,0.5-0.4c-0.1-0.1-0.3-0.2-0.4-0.3c0-0.1,0-0.3,0-0.3c0.4-0.3,0.9-0.5,1.4-0.7
		c0.5-0.3,1.1-0.5,1.6-0.7c0.1-0.1,0.2-0.2,0.3-0.4c-0.1,0-0.3-0.1-0.4-0.1c-0.2-0.1-0.4-0.1-0.6-0.2c0.2-0.2,0.4-0.6,0.6-0.6
		c2.7,0.2,3.6-2.3,5.2-3.6c0.7-0.6,1.2-1.2,1.8-1.9c0.3-0.3,0.9-0.6,0.3-1.1c0,0,0.4-0.5,0.7-0.8s0.8-0.5,1-0.9
		c1.3-2.3,2.3-4.6,2.7-7.2c0.5,0,1,0,1.5,0c0.3,0,0.6,0,0.9,0C40,58.1,41.1,57.4,42,58.3z"/>
	<path class="st2" d="M50.6,78.5c0.1,0,0.3,0,0.4,0c0.4,0.3,0.8,0.7,1.3,1c0.1,0,0.1,0,0.1,0.1c0.2,0.2,0.4,0.3,0.6,0.5
		c0.1,0.5,0.2,1,0.3,1.5c0.2,1.1,0,1.3-1,1.1c-2-0.4-4.1-0.8-6.1-1.2c-0.1,0-0.3,0-0.4,0c-0.2,0-0.5,0.1-0.7,0.1
		c0.1,0.2,0.3,0.4,0.4,0.5c0.1,0.1,0.2,0.3,0.3,0.4c-0.1,0-0.3,0-0.4,0c-0.3-0.1-0.7-0.1-0.9-0.3c-1.5-1.3-3.3-1.3-5.1-1.2
		c-3.3,0.1-6.7,0.6-10,0.9c-0.7,0.1-1.5-0.1-2.2,0c-1.9,0-3.7,0.2-5.6,0.2c-1.7,0-3.3-0.2-5-0.3c-0.2,0-0.4-0.2-0.6-0.4
		c0.1-0.2,0.2-0.4,0.4-0.5c0.7-0.4,1.3-0.7,2-1c0.3,0,0.7-0.1,1-0.1c0.4-0.1,0.8-0.1,1.2-0.2c-0.5,0.3-1,0.6-1.5,0.9
		c-0.1,0.1-0.2,0.3-0.3,0.4c0.2,0.1,0.3,0.2,0.5,0.2s0.5,0,0.7,0c3.3-0.2,6.6-0.4,9.9-0.5c3.8-0.2,7.6-0.6,11.3-0.5
		c3.4,0.1,6.9,0.1,10.3,1.3c0.2,0.1,0.4,0,0.6,0c0-0.2-0.1-0.4-0.1-0.6C51.4,79.9,51,79.2,50.6,78.5z"/>
	<path class="st3" d="M28.1,40.6c-3.8-1.5-7.3-3.4-8.2-7.8c-0.1-0.7-0.1-1.5-0.2-2.3c0-0.1,0.2-0.2,0.3-0.2c3.1,2.1,6.3,1.3,9.6,0.6
		c2.9-0.6,5.2,0.4,6.1,2.9c0.2,0.7,0.3,1.4,0.5,2.1c-0.4,0.3-0.8,1.1-1.4,0.2c0-0.2,0-0.4,0-0.5c0-2.9-2-4.4-4.8-3.6
		c-2.6,0.7-5.1,0.9-7.8,0.5c-0.4-0.1-0.8,0-1.2,0c0.1,0.4,0.1,0.8,0.2,1.3c0,0.2,0.2,0.3,0.2,0.5c1.7,3.1,4.8,4.3,7.7,5.8
		C28.8,40.1,28.4,40.3,28.1,40.6z"/>
	<path class="st4" d="M55.4,42.9c-0.5,0.6-1.2,1-1.6,1.7c-0.6,1-1.3,1.4-2.3,1c-0.1-0.6-0.1-1.3-0.2-1.9c0.7-0.8,1.5-1.6,2.2-2.4
		c0.1-0.2,0.1-0.5,0.2-0.7c-0.3,0-0.6-0.1-0.8,0.1c-0.6,0.3-1.1,0.7-1.6,1c-1.4-0.1-1.7-0.4-1.8-1.6c0.3-0.3,0.7-0.5,0.9-0.8
		c0.2-0.4,0.2-0.8,0.3-1.3c0.2-0.6,0.3-1.2-0.4-1.5c-0.7-0.2-1.2,0.3-1.4,1c-0.1,0.6-0.1,1.3-0.2,2c-0.1,0-0.3,0-0.4,0
		c-0.5-0.3-0.9-0.7-1.3-1c0.4-2.9,2.8-4,5.1-2.2c0.1,0.2,0.2,0.4,0.2,0.5c-0.6,1.3-0.2,2.1,1.2,2.7c0.5,0.3,0.9,0.9,1.3,1.4
		c0.2,0.2,0.3,0.6,0.4,0.8C55.5,42.2,55.4,42.6,55.4,42.9z"/>
	<path class="st5" d="M56.1,31.9c2-1,4-1.1,5.9,0.1c1.4,0.9,2.9,1.4,4.5,1.3c0.1,0,0.2,0,0.3,0c0.4,0.1,0.8,0.3,1.1,0.4
		c-0.2,0.4-0.2,0.8-0.5,1.1c-2,2.1-3.9,4.2-5.9,6.2C60,42.4,58,42.7,56,42.9c0.3-0.4,0.6-0.8,0.9-1.2c0.3-0.1,0.7-0.1,1-0.2
		c0.1,0,0.2-0.1,0.3-0.1c3.4-1.2,5.2-4.1,7.5-6.5c0,0-0.1-0.4-0.2-0.4c-1.1-0.3-2.2-0.7-3.2-1c-1.2-0.4-2.5-0.9-3.7-1
		c-2.3-0.1-3.7,1.5-5.1,3.1c0.3-0.7,0.4-1.5,0.9-1.9C55.2,33.1,56,32.8,56.1,31.9z"/>
	<path class="st1" d="M34.9,41.2c-0.2,0.1-0.4,0.2-0.6,0.3c-0.3,0.1-0.5,0.3-0.8,0.4l0,0c-0.1,0.2-0.2,0.5-0.3,0.7
		c-0.2,0.4-0.4,0.7-0.7,1.1l0,0c-0.4,0.3-0.7,0.6-1.1,0.9c-0.1,0-0.2,0-0.3,0c-0.1-0.2-0.2-0.4-0.4-0.5c-1.4-0.6-2-1.6-2-3
		c0.7-0.8,1.4-1.5,2.1-2.3c0.4,0,0.9,0,1.2,0.2c0.6,0.2,0.8,0.1,0.7-0.5h0.1c0.3,0,0.6,0,0.9,0c0.1,0.2,0.3,0.3,0.4,0.5
		c0.1-0.2,0.2-0.4,0.3-0.6c0.1-0.2,0.1-0.5,0.1-0.8c0.6-0.4,1.2-0.8,1.8-1.1c1.4-0.2,1.9,0.2,2,1.6c0,0.3,0.1,0.5,0.2,0.7
		c-0.8,0.3-1.5,0.7-2.3,1c0.3-0.6,0.6-1.3,0.9-1.9c0.1-0.1,0-0.3-0.1-0.5c-0.2,0.1-0.4,0.1-0.4,0.2c-0.5,0.9-1,1.9-1.5,2.8
		C35.1,40.7,35,40.9,34.9,41.2z M32.7,41.1c-0.2-0.2-0.3-0.7-0.6-0.9c-0.2-0.1-0.8,0-0.8,0.1c-0.1,0.7-0.1,1.4,0,2.1
		c0,0.3,0.5,0.5,0.8,0.7c0.2-0.5,0.4-1,0.5-1.4C32.6,41.6,32.6,41.4,32.7,41.1z"/>
	<path class="st6" d="M56.1,31.9c-0.2,0.9-0.9,1.2-1.5,1.7c-0.5,0.4-0.6,1.3-0.9,1.9c-0.4,0.4-0.8,0.9-1.1,1.3
		c-0.1-0.2-0.2-0.4-0.2-0.5c-0.2-1.3,0.7-2.1,1.5-2.8C54.5,32.9,55.4,32.4,56.1,31.9z"/>
	<path class="st7" d="M49.6,40.2c0.1,1.2,0.4,1.5,1.8,1.6c-0.9,0.7-1.7,0.5-1.9-0.6c-0.2-0.7-0.5-1-1.2-1c-1.1-0.1-1.4-0.6-1-1.5
		c0.4,0.3,0.9,0.7,1.3,1c0.1,0.1,0.3,0,0.4,0C49.1,39.8,49.4,40,49.6,40.2z"/>
	<path class="st7" d="M36.4,39.8c0.8-0.3,1.5-0.7,2.3-1c0,0.2,0.1,0.5,0,0.5c-1.3,0.7-2.5,1.3-3.8,1.9c0.1-0.2,0.1-0.4,0.2-0.7
		C35.6,40.3,36,40,36.4,39.8z"/>
	<path class="st8" d="M52.3,79.5c-0.4-0.3-0.8-0.7-1.3-1c-0.6-1.3-1.2-2.6-1.8-3.9c0.3,0.6,0.7,1.1,1,1.7
		C50.9,77.3,51.6,78.4,52.3,79.5z"/>
	<path class="st8" d="M30.9,38.8c-0.7,0.8-1.4,1.5-2.1,2.3c-0.2-0.2-0.5-0.3-0.7-0.5c0.4-0.2,0.7-0.5,1.1-0.7
		C29.7,39.5,30.3,39.2,30.9,38.8z"/>
	<path class="st8" d="M51.4,43.7c0.1,0.6,0.1,1.3,0.2,1.9c-0.3-0.2-0.8-0.3-0.9-0.6c-0.2-0.4-0.1-0.9-0.1-1.4
		C50.8,43.7,51.1,43.7,51.4,43.7z"/>
	<path class="st8" d="M42,58.3c-0.9-1-2-0.2-3-0.3c0-0.1,0-0.2,0-0.2c0.7-0.1,1.3-0.3,2-0.4C41.7,57.3,42.2,57.6,42,58.3z"/>
	<path class="st7" d="M39,57.8c0,0.1,0,0.2,0,0.2c-0.3,0-0.6,0-0.9,0c-0.5-0.3-0.9-0.6-1.4-0.9c0-0.2,0-0.4,0-0.6
		c0.3,0,0.6,0,0.7,0.1C38,57,38.5,57.4,39,57.8z"/>
	<path class="st9" d="M36.5,36.4c-0.6,0.4-1.2,0.8-1.8,1.1c0-0.5,0.1-0.9,0.1-1.4c0.6,0.9,1,0.1,1.4-0.2
		C36.3,36.1,36.4,36.2,36.5,36.4z"/>
	<path class="st3" d="M57.1,41.6c-0.3,0.4-0.6,0.8-0.9,1.2c-0.2,0-0.5,0.1-0.7,0.1c0-0.4,0-0.7,0-1.1C56,41.7,56.5,41.7,57.1,41.6z"
		/>
	<path class="st8" d="M36.8,57.1c0.5,0.3,0.9,0.6,1.4,0.9c-0.5,0-1,0-1.5,0C36.7,57.7,36.7,57.4,36.8,57.1z"/>
	<path class="st7" d="M33.3,43.2c0,0.7-0.3,1.3-1.1,1.4c0.1-0.3,0.2-0.6,0.4-0.9l0,0C32.7,43.5,33,43.3,33.3,43.2z"/>
	<path class="st8" d="M32.5,43.7c-0.1,0.3-0.2,0.6-0.4,0.9l0,0c0,0,0,0-0.1,0c-0.2,0-0.4,0-0.6-0.1C31.8,44.3,32.1,44,32.5,43.7z"/>
	<path class="st8" d="M33.3,43.2c-0.3,0.2-0.5,0.4-0.8,0.5c0.2-0.4,0.4-0.7,0.7-1.1c0.1,0.1,0.1,0.1,0.2,0.2
		C33.3,42.9,33.3,43,33.3,43.2z"/>
	<path class="st7" d="M31.4,44.6c0.2,0,0.4,0,0.6,0.1c-0.2,0.1-0.5,0.3-0.7,0.4c-0.1-0.2-0.2-0.3-0.2-0.5
		C31.2,44.6,31.3,44.6,31.4,44.6z"/>
	<path class="st8" d="M53,80.1c-0.2-0.2-0.4-0.3-0.6-0.5c0.2,0.1,0.5,0.1,0.7,0.2c0.1,0,0.1,0.1,0.2,0.2C53.2,80,53.1,80,53,80.1z"
		/>
	<path class="st7" d="M33.5,41.9c0.3-0.1,0.5-0.3,0.8-0.4C34,41.6,33.8,41.7,33.5,41.9z"/>
	<path class="st7" d="M33.3,42.8c-0.1-0.1-0.1-0.1-0.2-0.2c0.1-0.2,0.2-0.5,0.3-0.7C33.4,42.2,33.4,42.5,33.3,42.8z"/>
	<path class="st3" d="M58.1,41.4c0.1,0,0.2-0.1,0.3-0.1C58.3,41.3,58.2,41.4,58.1,41.4z"/>
	<path class="st6" d="M32.9,38.4c-0.5-1.2-1-2.4-2.3-2.8c-0.7-0.2-1.4-0.1-2.1-0.1c-0.9,0-1.7,0.2-2.6,0.2c-0.2,0-0.4-0.2-0.6-0.3
		c0.1-0.1,0.2-0.3,0.3-0.4c2.1-0.6,4.3-1.3,6.4,0c1,0.6,1.6,1.5,1.7,2.6C33.5,37.8,33.2,38.1,32.9,38.4C33,38.4,32.9,38.4,32.9,38.4
		z"/>
	<path class="st9" d="M33,38.4c0.2-0.2,0.5-0.5,0.7-0.7c0.1,0.2,0.1,0.5,0.2,0.7C33.6,38.4,33.3,38.4,33,38.4z"/>
	<path class="st6" d="M60.1,35.9c0.1,0.1,0.4,0.2,0.6,0.4c-0.2,0.2-0.4,0.5-0.7,0.5c-1.3,0.3-2.5,0.6-3.8,0.9
		c-0.8,0.2-1.6,0.5-2.4,0.7c-0.3,0.1-0.6-0.1-0.9-0.2c0.2-0.2,0.3-0.3,0.5-0.5c1.6-1.1,3.4-1.3,5.2-1.6C59.1,36,59.5,36,60.1,35.9z"
		/>
	<g>
		<g>
			<path class="st10" d="M89.9,85.4c0.2-0.3,0.3-0.6,0.5-0.7c0.5-0.3,0.5-0.7,0.5-1.2c0.1-0.5,0.3-1.1,0.7-1.4
				c0.5-0.5,0.9,0,1.2,0.5c0.1,0.1,0.4,0.2,0.6,0.3c0.1-0.2,0.1-0.3,0.2-0.5s0.3-0.6,0.5-0.7s0.5,0.1,0.8,0.2c0.4,0.3,0.7,1,1.2,0.1
				c0.1-0.1,0.7-0.1,0.8,0c0.6,0.9,1.3,0.7,2.2,0.6c0.3,0,0.7,0.1,1.1,0.1c0.2,0,0.6-0.1,0.7-0.3c0.4-0.7,0.9-0.9,1.7-0.9
				c0.6,0,1.1-0.5,1.7,0c0.2,0.2,0.5,0.5,0.6,0.8c0.1,0.5,0.3,0.7,0.8,0.4c0.7-0.3,1.4-0.7,1.8,0.4c0.2,0.5,0.7,0.8,1.2,1.2
				c0.5,0.4,0.5,0.8,0.2,1.4c-0.1,0.2-0.1,0.4-0.1,0.6c0.2,0,0.4-0.1,0.6,0c0.4,0.1,1,0.2,1.2,0.5c0.2,0.2-0.2,0.8-0.2,1.2
				c0,0.2-0.1,0.4,0,0.6c0.2,0.7,0,1.1-0.6,1.4c-0.4,0.2-0.5,0.5-0.6,0.9c-0.3,0.9-0.3,1.4,0.6,1.8c0.1,0,0,0.9-0.3,1.1
				c-0.7,0.5-1.2,1.4-2.3,1.6c-0.7,0.2-1.3,0.9-1.9,1.3c-0.2,0.1-0.4,0.2-0.6,0.3c-0.5,0.1-1,0.2-1.5,0.3c-1,0.2-2,0.3-3,0.5
				c-0.6,0.1-1.2,0.2-1.7,0.3c-0.3,0.1-0.6,0.2-0.8,0.1c-0.7-0.5-1.4-0.1-2.1,0.1c-0.1,0-0.3,0.1-0.4,0c-0.3-0.3-0.6-0.7-1-0.8
				c-0.3-0.1-0.8,0.3-1.2,0.3c-0.1,0-0.3-0.4-0.4-0.7c-0.1-0.2-0.1-0.4-0.1-0.5c-0.2,0.1-0.4,0.1-0.4,0.3c-0.3,0.4-0.6,0.6-1,0.2
				C90.5,96.8,90.2,97,90,97c-0.4,0-0.9,0.1-1.2-0.1c-0.2-0.1-0.1-0.7-0.1-1.1c0-0.2-0.1-0.4-0.2-0.5c-0.9-0.7-1-1.1-0.5-2.1
				c0.1-0.1-0.1-0.4-0.2-0.6c-0.1-0.5-0.3-1.1-0.2-1.5c0.2-0.5,0.8-0.7,1.4-0.3c0.3,0.2,0.8,0.3,1.2,0.4c0.1,0,0.3,0,0.3,0
				c0-0.3,0-0.7-0.2-1s-0.5-0.5-0.8-0.7c-0.1-0.1-0.3-0.3-0.3-0.4c0.3-0.8-0.1-1.2-0.4-1.9c-0.4-0.7,0-1,0.8-1.1
				c0.2,0,0.3-0.4,0.4-0.6C90,85.5,89.9,85.4,89.9,85.4z M103.1,83.3c0.1-0.1,0.2-0.3,0.3-0.4c0.1-0.2,0.3-0.3,0.4-0.5
				c0.1-0.1,0-0.3,0-0.5c-0.2,0.3-0.5,0.7-0.7,1C103.1,83.1,103.1,83.2,103.1,83.3C103.1,83.3,103,83.3,103.1,83.3
				C103,83.3,103,83.3,103.1,83.3L103.1,83.3z M109.5,86.8C109.4,86.7,109.4,86.7,109.5,86.8c-0.1-0.1-0.1-0.1-0.2,0
				C109.4,86.7,109.4,86.8,109.5,86.8c-0.2,0.3-0.4,0.6-0.6,0.9c0,0.1-0.1,0.1-0.1,0.2c0.1,0,0.1-0.1,0.2-0.1
				c0.2-0.1,0.4-0.3,0.6-0.4c0.1-0.1,0.3-0.1,0.5-0.2C109.8,87.1,109.6,86.9,109.5,86.8z M105.3,90c-0.2,1-0.4,2.1-0.6,3.1
				c0,0.1,0,0.2,0.1,0.3c0.1-0.1,0.2-0.1,0.2-0.2C105.1,92.1,105.2,91.1,105.3,90c0-0.1,0.1-0.3,0.1-0.4c0,0-0.1,0-0.1-0.1
				C105.3,89.7,105.3,89.9,105.3,90z M96.2,85.2c-0.2,0.2-0.5,0.4-0.7,0.7l0.1,0.3c0.4,0,0.7,0,1.1,0c0.1,0,0.3-0.1,0.4-0.1
				c-0.1-0.1-0.3-0.2-0.4-0.3c-0.1-0.1-0.2-0.3-0.4-0.4c0-0.1,0.1-0.1,0.1-0.2C96.4,85.1,96.3,85.2,96.2,85.2z M92.1,84.7
				C92.1,84.7,92,84.6,92.1,84.7C92,84.6,92,84.6,92.1,84.7C92,84.7,92,84.7,92.1,84.7c0.1,0.7,0.3,1.4,0.4,2.1
				c0,0.1,0.1,0.2,0.1,0.3c0.1-0.1,0.1-0.1,0.2-0.2C93.2,86.2,92.9,85.1,92.1,84.7z M92.7,89.9c-0.1,0-0.1-0.1-0.2-0.1
				c0,0,0,0,0,0.1C92.5,89.8,92.6,89.9,92.7,89.9c0,0.1,0,0.2,0.1,0.3c0.5,0.5,1.2,0.7,1.8,0.9c0.6,0.3,1,0.5,1.4-0.1
				c0.1-0.1,0.2-0.2,0.3-0.3c-0.1,0-0.3-0.1-0.4-0.1C94.7,90.8,93.7,90.3,92.7,89.9z M95,85.5c-0.7,0.8-1.4,1.7-2.1,2.5
				c0,0.1-0.1,0.1-0.1,0.2c0.1,0,0.1-0.1,0.2-0.1c0.6-0.3,1.3-0.6,1.9-1c0.2-0.1,0.2-0.4,0.3-0.7C94.4,86.3,95,85.9,95,85.5
				c0,0,0.1,0,0.1-0.1C95.1,85.4,95.1,85.4,95,85.5z M99,86.1L99,86.1C99.1,86.1,99.1,86.1,99,86.1L99,86.1c-0.2-0.5-0.4-1-0.7-1.4
				c-0.1-0.2-0.7-0.2-0.9,0c-0.2,0.1-0.3,0.6-0.2,0.8C97.6,86.1,98.2,86.4,99,86.1z M103.1,81.8c-0.3,0.1-0.6,0.4-0.8,0.3
				c-1.1-0.4-1.1,0.8-1.6,1.2c-0.1,0.1,0,0.5,0.1,0.6s0.3,0.1,0.5,0.1c0-0.2,0-0.3,0-0.5c0-0.3,0.1-0.6,0.2-0.9
				c0-0.1,0.2-0.1,0.3-0.2c0.1,0.4,0.1,0.8,0.5,1c0,0,0,0.1-0.1,0.1c-0.4,0.5-0.1,0.6,0.3,0.8c0,0,0,0.1,0.1,0.1c0,0,0,0,0-0.1h-0.1
				C102.7,83.5,103,82.7,103.1,81.8c0.1,0,0.2,0,0.2-0.1C103.2,81.7,103.2,81.7,103.1,81.8z M106.8,86.8c0.1,0.3,0.1,0.6,0.2,0.9
				l0.1-0.1C107,87.3,106.9,87.1,106.8,86.8c-0.2-0.4-0.3-0.9-0.6-1.2c-0.2-0.3-0.6-1.3-0.9,0c0,0.1-0.2,0.2-0.4,0.3
				c-0.4,0.4-0.4,1.1,0.1,1.5c0,0.1,0,0.2,0.1,0.3c0,0,0.1,0,0-0.1c0-0.1-0.1-0.2-0.1-0.3c0-0.2,0.1-0.5,0.1-0.7
				c0.1,0,0.3,0.1,0.3,0.1c0.1,0.6,0.2,1.2,0.4,1.8c0,0.2,0.2,0.3,0.3,0.5c0.1-0.1,0.2-0.3,0.2-0.4c0-0.5,0-1.1,0-1.6
				C106.2,86.6,106.2,86.6,106.8,86.8z M102.9,92.4c0,0.1,0.1,0.1,0.1,0.2C103,92.5,103,92.4,102.9,92.4c0-0.5,0-1,0-1.5
				c0-0.2,0.1-0.3,0.2-0.5c0.1,0.2,0.2,0.3,0.2,0.5c0.1,0.9,0.3,1.9,0.4,2.8c0,0.1,0.1,0.2,0.1,0.3c0-0.1,0.1-0.2,0.1-0.3
				c0.6-1.5,0.1-2.9-0.3-4.3c0,0,0.1,0,0.1-0.1h-0.1v0.1c-0.5,0.4-1.1,0.8-1.6,1.2c-0.1,0.1-0.1,0.3,0,0.4
				C102.4,91.5,102.7,91.9,102.9,92.4z M90.5,94.2c-0.4,0.2-0.8,0.4-1.2,0.6c0.6-0.5,1.2-1,1.9-1.5c0.1-0.1,0.2-0.1,0.3-0.1
				c-0.1-0.1-0.2-0.2-0.3-0.2c-0.5-0.1-1.1-0.2-1.6-0.2c-0.2,0-0.4,0-0.5,0c0.1-0.2,0.2-0.4,0.4-0.5c0.2-0.1,0.5-0.2,0.7-0.2
				c0.3,0,0.5,0.1,0.8,0.2c-0.2-0.2-0.5-0.3-0.7-0.5c-0.1,0-0.1-0.1-0.2-0.1c-0.5-0.2-1-0.4-1.5-0.5c-0.2,0-0.5,0.2-0.5,0.4
				c0,0.3,0.1,0.6,0.3,0.8c0.3,0.4,0.7,0.7,0.3,1.2c-0.2,0.2-0.3,0.6-0.2,0.8c0.2,0.4,0.5,0.6,1,0.4c0,0.4,0,0.9-0.1,1.3
				c0,0.2-0.1,0.3-0.1,0.5c0.2,0,0.5,0.1,0.7,0c0.7-0.4,1.6,0,2.3-0.6c0.1,0,0.3,0.1,0.4,0.1S93,96,93,95.9c0-0.3-0.1-0.6-0.1-0.8
				c-0.1,0.1-0.2,0.2-0.2,0.2c-0.2,0.1-0.3,0.2-0.5,0.3c0-0.1-0.1-0.2-0.1-0.2c0.3-0.4,0.6-0.8,0.9-1.2c0.1-0.1,0.3-0.2,0.5-0.3
				c-0.3,0-0.6,0-0.8,0.1c-0.2,0.1-0.4,0.4-0.5,0.6c-0.2,0.4-0.4,0.8-0.6,1.1c-0.1,0.1-0.2,0.2-0.4,0.3c0-0.1,0-0.3,0-0.4
				c0.1-0.3,0.2-0.6,0.4-0.9c0.1-0.2,0.1-0.4,0.2-0.6c-0.2,0.1-0.4,0.3-0.6,0.4c0,0,0,0.1-0.1,0.1c-0.3,0.3-0.5,0.7-0.8,1
				C90.2,95,90.3,94.6,90.5,94.2C90.5,94.1,90.5,94.1,90.5,94.2C90.6,94.1,90.5,94.1,90.5,94.2C90.5,94.1,90.5,94.1,90.5,94.2z
				 M91.3,84.4c-0.5,0.4-1,0.8-0.8,1.6c0,0.1-0.4,0.4-0.6,0.6c-0.2,0.1-0.4,0.1-0.6,0.2c0.1,0.2,0.3,0.4,0.4,0.6
				c0.1,0.3,0.4,0.7,0.3,1c-0.1,0.6,0.1,1.1,0.7,1.3c0.1,0,0.2,0,0.2-0.1s0.1-0.3,0-0.4c0-0.1-0.1-0.1-0.2-0.1s-0.3,0-0.4,0
				c0.1-0.2,0.1-0.4,0.2-0.5c0.2-0.2,0.5-0.3,0.8-0.4c0.2-0.1,0.4-0.1,0.6-0.2c-0.2-0.1-0.4-0.2-0.6-0.3c-0.1,0-0.2,0-0.4,0
				c-0.2-0.1-0.5-0.2-0.7-0.2c0.3-0.1,0.6-0.3,0.9-0.3c0.1,0,0.3,0.1,0.5,0.1s0.4,0.1,0.7,0.1c-0.2-0.2-0.4-0.4-0.6-0.6
				c-0.1-0.1-0.2,0-0.3-0.1c-0.2-0.1-0.4-0.3-0.5-0.4c0.2,0,0.5-0.1,0.6,0c0.5,0.2,0.6-0.1,0.5-0.5C91.7,85.4,91.5,84.9,91.3,84.4
				c0.3-0.4,0.6-0.6,1-0.2h0.2c0.6-1,0.7,0,0.9,0.2c0.2,0.2,0.2,0.6,0.5,0.1c0.1-0.2,0.2-0.5,0.2-0.8c0-0.4-0.1-0.5-0.6-0.5
				c-0.3,0-0.8-0.3-1.1-0.5c-0.2-0.1-0.3-0.3-0.5-0.4c-0.2,0.2-0.5,0.5-0.5,0.7C91.3,83.6,91.3,84,91.3,84.4z M100.4,88.6
				c0.1,0,0.1,0.1,0.2,0.1C100.6,88.6,100.5,88.6,100.4,88.6c-0.1-0.3-0.2-0.4-0.4-0.6c-0.1-0.1-0.1-0.3-0.1-0.4c0.1,0,0.3,0,0.4,0
				c0.2,0.1,0.4,0.3,0.4,0.3c0.8-0.8,0.6,0.3,0.9,0.4c0.1,0,0.1,0.2,0.2,0.3c0-0.1,0-0.2,0-0.4c0-0.1-0.1-0.2-0.1-0.3
				c0-0.3,0-0.5-0.1-0.8c0.2,0.2,0.4,0.4,0.6,0.6c0.1,0.1,0.1,0.3,0.2,0.5l0.1,0.1c0-0.4,0-1.2-0.1-1.2c-1-0.1-2.1-0.4-2.9,0
				c-1,0.4-1.6,1.5-2,2.6c-0.3,0.7,0,0.8,0.6,0.7c0.1,0,0.2,0,0.4,0c0.2,0,0.4,0,0.6,0c-0.2-0.1-0.4-0.2-0.6-0.3
				c-0.2-0.1-0.3-0.3-0.5-0.4c0.2,0,0.4,0,0.6,0c0.9,0.1,1.8,0.3,2.7,0.5c0.1,0,0.4-0.1,0.4-0.1c0-0.1,0-0.4-0.2-0.4
				c-0.2-0.1-0.4-0.2-0.7-0.3c-0.6-0.2-1.2-0.3-1.7-0.5c-0.2-0.1-0.3-0.3-0.4-0.4c0.2,0,0.4-0.1,0.5-0.1
				C99.8,88.4,100.1,88.5,100.4,88.6z M103.1,94.3c-0.3-0.7-0.7-1.5-1.1-2.4c-0.3-0.6-0.6-1-1.3-0.6c-0.2,0.1-0.5,0-0.7-0.1
				c-0.1,0-0.1-0.1-0.2-0.1c0,0.6-1.1,0.5-0.8,1.3c0,0.1-0.7,0.3-0.8,0.6c-0.2,0.3-0.1,0.7-0.2,1.1c0,0.1-0.3,0.1-0.4,0.2
				s-0.3,0.2-0.3,0.3c0,0.2,0,0.4,0.1,0.5c0.2,0.2,0.5,0.3,0.7,0.4c0.3,0.1,0.6,0.1,0.9,0.1c-0.2-0.2-0.3-0.4-0.5-0.7
				c-0.1-0.2-0.1-0.4-0.2-0.6c0.2,0.1,0.4,0.2,0.6,0.3c0.5,0.4,1,0.9,1.5,1.1c0.6,0.2,1.2,0.1,1.9,0.2c0.1,0,0.3-0.3,0.3-0.3
				c-0.2-0.2-0.4-0.6-0.7-0.7c-1.1-0.3-2.3-0.1-3.2-0.9c-0.1-0.1-0.2-0.2-0.3-0.4c0.2,0,0.3-0.1,0.5,0c0.7,0.2,1.5,0.4,2.2,0.6
				c0.1,0,0.3,0,0.4,0c-0.1-0.1-0.2-0.3-0.4-0.4c-0.3-0.1-0.7-0.1-1-0.2c-0.2,0-0.3-0.2-0.4-0.3c0.1-0.1,0.3-0.1,0.4-0.2
				s0.2-0.1,0.2-0.2c0-0.2-0.1-0.3-0.2-0.5c0.2,0.1,0.4,0.2,0.6,0.3c0.3,0.3,0.6,0.6,0.9,0.9c-0.1-0.5-0.3-1-0.4-1.4c0,0,0,0,0-0.1
				c-0.1-0.2-0.1-0.4-0.1-0.6c0.2,0.1,0.5,0.2,0.5,0.3c0.3,0.7,0.5,1.4,0.7,2.1c0.1,0.3,0.4,0.6,0.6,0.9
				C102.9,94.7,102.9,94.6,103.1,94.3z M97.9,92.3c0,0.1,0.1,0.1,0.1,0.2c0.1-0.1,0.3-0.1,0.3-0.2c0.1-0.3,0.1-0.5,0-0.8
				c0-0.1-0.2-0.2-0.3-0.2c-0.5,0-1,0.1-1.5,0.1c-0.1,0-0.2,0-0.3,0.1l0.1,0.1c0.2,0.1,0.5,0.1,0.7,0.2c0.1,0,0.2,0.3,0.1,0.4
				c-0.4,0.4-0.9,0.9-1.3,1.3c-0.2,0.2-0.4,0.5-0.5,0.7c0,0.2,0.2,0.5,0.4,0.6c0.1,0.1,0.4,0,0.6-0.1c0,0-0.1-0.3,0-0.4
				c0.1-0.3,0.2-0.5,0.4-0.7c0,0,0.3,0.1,0.5,0.2s0.3,0.2,0.5,0.2c0-0.2-0.1-0.4-0.1-0.6c-0.1-0.2-0.2-0.5-0.1-0.7
				C97.5,92.5,97.8,92.4,97.9,92.3z M105.8,94.9c0.2-0.1,0.5-0.1,0.7-0.3c0.5-0.6,0.9-1.1,1.8-1c0.1,0,0.4-0.4,0.5-0.7
				c0,0-0.3-0.2-0.5-0.4c-0.2-0.2-0.4-0.4-0.7-0.7v-0.1c0,0.1-0.1,0.1-0.1,0.2c-0.6,0.9-1.3,1.8-1.9,2.7c0,0.1-0.1,0.1-0.1,0.2
				C105.6,94.8,105.7,94.9,105.8,94.9z M99.9,97.2c0.3-0.1,0.4-0.1,0.6-0.1c-0.1,0-0.1,0-0.2-0.1c-0.2-0.1-0.4-0.2-0.6-0.2
				c0.2-0.1,0.4-0.1,0.5-0.2s0.3-0.1,0.4-0.2c-0.1,0-0.3-0.1-0.4-0.1c-1.3,0-2.6,0.1-3.5-1c0,0-0.1-0.1-0.2-0.1
				c0,0.1-0.1,0.2-0.1,0.3c0.2,0.3,0.3,0.6,0.6,0.7C98,96.5,99.1,96.8,99.9,97.2z M104.9,89.1c-0.1-0.3-0.3-0.9-0.4-1.4
				c0-0.1-0.3-0.1-0.4-0.1c-0.7,0.7-0.2,1.3,0,2c0.2,0.5,0.4,0.9,0.5,1.3C104.8,90.4,104.8,89.8,104.9,89.1z M97.5,87.8
				c0,0.1,0.1,0.2,0.1,0.2c0.3-0.2,0.7-0.4,1-0.6c0.1-0.1,0.1-0.2,0.2-0.4c-0.1,0-0.2-0.1-0.3-0.1c-0.8,0.2-1.7,0.4-2.5,0.6
				c-0.1,0-0.2,0.2-0.1,0.3c0.1,0.1,0.2,0.2,0.3,0.2C96.6,88,97,87.9,97.5,87.8z M94.8,92.7C94.7,92.7,94.7,92.7,94.8,92.7
				c-0.1-0.1,0-0.2-0.1-0.2c-0.1-0.3-0.1-0.6-0.3-0.9c-0.1-0.1-0.6,0-0.6,0c-0.1,0.3-0.1,0.7-0.1,1c0,0.1,0,0.1,0.1,0.2
				c0.3,0.3,0.5,0.6,0.8,0.9C94.6,93.3,94.7,93,94.8,92.7z M105.1,84.5c-0.2-0.2-0.5-0.4-0.6-0.6c-0.1-0.4-0.2-0.3-0.4-0.1
				c-0.1,0.1-0.3,0.2-0.4,0.3c-0.2,0.1-0.3,0.3-0.4,0.5c0.3,0.1,0.5,0.1,0.8,0.2c0.2,0,0.3-0.1,0.5-0.1c-0.1,0.1-0.2,0.3-0.2,0.4
				c0,0.2,0,0.3,0,0.5c0.2-0.1,0.4-0.1,0.5-0.2C104.9,85.1,105,84.9,105.1,84.5z M107.2,85.2c0.1,0.2,0.3,0.6,0.5,0.9
				c0.2-0.4,0.7-0.9,0.6-1.2c-0.2-0.5-0.7-0.8-1.1-1.2c-0.1-0.1-0.2-0.1-0.4-0.2c0,0.1,0,0.1,0,0.2c0.1,0.1,0.2,0.2,0.3,0.4
				c0.1,0.2,0.3,0.3,0.3,0.5C107.3,84.7,107.2,84.9,107.2,85.2z M109.7,89c-0.2-0.3-0.4-0.7-0.6-0.7c-0.4,0-1.1,1.7-1,2.1v0.1v-0.1
				c0.3-0.3,0.7-0.6,1-0.9C109.4,89.3,109.5,89.2,109.7,89z M95.7,83.5c0-0.2,0-0.4,0-0.4c-0.4-0.3-0.8-0.6-1.2-0.8
				c0,0-0.3,0.2-0.3,0.3c0.1,0.4,0.3,0.7,0.5,1.1c0.1,0.1,0.1,0.2,0.2,0.3c0-0.1,0.1-0.2,0.1-0.3c0.1-0.1,0.2-0.2,0.3-0.3
				c0.1,0.1,0.2,0.2,0.2,0.2c0.1,0.1,0.1,0.2,0.1,0.3C95.6,83.7,95.7,83.6,95.7,83.5z M95.6,89.1c-0.1,0-0.3,0.1-0.5,0.1
				c0.2,0.1,0.3,0.2,0.5,0.3c0.2,0.2,0.3,0.4,0.5,0.5s0.5,0.3,0.7,0.2c0.2-0.1,0.2-0.4,0.3-0.6c0-0.1-0.2-0.3-0.3-0.3
				C96.4,89.2,96,89.2,95.6,89.1z M93.6,94.2c-0.2,0.3-0.3,0.6-0.4,0.8c0,0.3,0.1,0.7,0.1,1c0.3-0.3,0.7-0.7,1-1
				C94.4,94.9,94,94.5,93.6,94.2z M94.7,96.7c0-0.3,0-0.8-0.4-0.2h-0.2c-0.1-0.8-0.6,0.1-0.9-0.2c0,0-0.4,0.3-0.6,0.5
				c-0.1,0.1,0,0.3,0,0.4c0.2-0.1,0.4-0.3,0.6-0.3c0.3-0.1,0.7-0.1,1.1,0c0.1,0,0.2,0.1,0.3,0.2C94.7,96.9,94.7,96.8,94.7,96.7z
				 M92.4,91c0.2,0.3,0.4,0.6,0.6,0.9c0.2-0.1,0.3-0.2,0.5-0.4c-0.3-0.3-0.6-0.6-0.9-0.9C92.6,90.7,92.5,90.8,92.4,91z M97,83.2
				c-0.2-0.3-0.4-0.5-0.6-0.8c-0.1,0.2-0.3,0.4-0.3,0.5c0,0.2,0.2,0.6,0.4,0.6C96.6,83.5,96.9,83.3,97,83.2z M95.2,90.2
				c0.1,0,0.3,0,0.5-0.1c-0.2-0.1-0.3-0.2-0.5-0.3c-0.1-0.1-0.2-0.2-0.4-0.3c-0.2-0.1-0.4-0.2-0.6-0.2c0,0.1-0.1,0.1,0,0.1
				c0.1,0.2,0.2,0.5,0.4,0.7C94.8,90.2,95,90.2,95.2,90.2z M100.5,85.3C100.5,85.3,100.4,85.3,100.5,85.3c0,0.1,0,0.2,0,0.4
				c0,0.2,0.1,0.4,0.2,0.6h0.2c0-0.2,0.1-0.4,0.1-0.6s-0.1-0.4-0.1-0.6s-0.1-0.3-0.1-0.5c-0.1,0.2-0.1,0.4-0.1,0.6
				C100.4,85.1,100.5,85.2,100.5,85.3z M100,84.7c-0.3-0.1-0.6-0.2-0.8-0.3c-0.1,0-0.2,0.1-0.3,0.2c0.3,0.2,0.6,0.5,0.8,0.7
				C99.8,85.2,99.9,85.1,100,84.7z M106.5,83c-0.1-0.1-0.2-0.2-0.3-0.2c-0.3,0.1-0.6,0.3-0.9,0.5c0.3,0.1,0.5,0.4,0.8,0.4
				C106.2,83.7,106.3,83.3,106.5,83z M95.2,92.9c0.3-0.4,0.6-0.8,0.9-1.2L96,91.6c-0.3,0.1-0.6,0.2-0.7,0.4
				c-0.2,0.2-0.2,0.5-0.3,0.8C95,92.8,95.1,92.9,95.2,92.9z M96,96.2c-0.5-0.4-0.8-0.6-1-0.8c0,0.1-0.1,0.2-0.1,0.2
				c0.2,0.3,0.4,0.6,0.6,0.9C95.5,96.5,95.8,96.3,96,96.2z M96.2,92.5C96.2,92.5,96.1,92.4,96.2,92.5c-0.1,0-0.2,0-0.2,0.1
				c0,0,0.1,0,0.1,0.1C96.2,92.6,96.2,92.5,96.2,92.5z M92.9,84.7C92.9,84.7,93,84.6,92.9,84.7c0-0.1-0.1-0.1-0.1-0.2
				C92.8,84.5,92.8,84.6,92.9,84.7C92.8,84.6,92.8,84.6,92.9,84.7z"/>
			<path class="st10" d="M91.4,71.9c0.9,0,1.8,0,2.3,0.9c0,0.1,0.3,0.1,0.4,0.1c0.6-0.4,1.5-0.4,1.3-1.5c0-0.2,0.2-0.4,0.4-0.6
				c0.1,0.2,0.1,0.4,0.2,0.5c0,0,0,0.1,0.1,0.1l0.1-0.1c-0.1-0.5,0-1,0.5-1.4c0.1-0.1,0.3-0.2,0.3-0.2c0.6,0.5,0.9,0,1.3-0.3
				c0.1-0.1,0.4,0,0.6,0s0.5-0.2,0.5-0.3c-0.1-0.6,0.4-0.6,0.8-0.6c0.5,0,1.1,0,1.6,0c0.1,0,0.2-0.1,0.2-0.1
				c0.1-0.8,0.7-0.8,1.3-0.9c0.3,0,0.6,0,0.8,0.1c0.5,0.3,0.5,0,0.6-0.3c0.2,0.1,0.3,0.1,0.5,0.3c0.1,0.1,0.1,0.2,0.1,0.4
				c0.1-0.1,0.1-0.2,0.2-0.3c0.1-0.1,0.3-0.2,0.4-0.4c0.1,0.2,0.2,0.3,0.3,0.5c0.1,0.1,0.1,0.1,0.2,0.2c0-0.1,0-0.2,0-0.2
				c0.2-0.2,0.5-0.4,0.7-0.6c0.2,0.2,0.4,0.4,0.5,0.6c0.1,0.5,0.2,0.9,0.3,1.4c0,0.1,0.1,0.3,0.2,0.3c1.4,0.3,0.4,1.8,1.2,2.4
				c-0.3,0.2-0.5,0.4-0.8,0.6c0.2,0.2,0.5,0.3,0.6,0.5c0,0.3-0.1,0.6-0.3,0.9c0,0.1-0.2,0.2-0.3,0.2c-0.3,0-0.6,0-0.9,0
				c-0.1,0-0.3,0-0.4,0.1c0.1,0.1,0.2,0.1,0.4,0.2c0.2,0.1,0.4,0.1,0.6,0.1c-0.2,0.3-0.3,0.8-0.6,0.9c-0.3,0.1-0.8,0-1.1,0
				c-0.3,0-0.8-0.4-0.5,0.4c0,0.1,0,0.2,0,0.2c-0.5,0-0.8,0.1-0.3,0.6c-0.1,0-0.2,0.1-0.3,0.1c-0.2-0.1-0.5-0.3-0.7-0.5
				s-0.4-0.3-0.6-0.5c0,0.1-0.1,0.2-0.1,0.3c0,0.2,0.1,0.3,0.2,0.5c-0.2-0.1-0.5-0.1-0.6-0.2c-0.2-0.1-0.2-0.4-0.4-0.6
				c-0.2-0.2-0.4-0.3-0.6-0.4c-0.1,0.2-0.1,0.4-0.2,0.6c-0.1,0.1-0.3,0.4-0.5,0.3c-0.6-0.2-1.4-0.3-1.8-0.7c-0.8-1-1.6-1.2-2.8-0.8
				c-0.4,0.1-0.9-0.1-1.3-0.2c-0.6-0.1-0.9-0.1-1.2,0.6c-0.5,1.2-1.5,2.1-2.7,2.5c-1.9,0.6-3.8,1.2-5.7,1.7
				c-0.9,0.2-1.8,0.3-2.7,0.4c-1.4,0.1-2.8,0.2-4.3,0.3c-1.2,0.1-2.4,0.3-3.6,0.5c-0.1,0-0.2,0.1-0.3,0.1c-0.3,0-0.6-0.1-0.9-0.2
				c0.3-0.1,0.5-0.3,0.8-0.4c1.3-0.6,2.6-1,3.8-1.7c1.8-0.9,3.5-1.9,5.2-2.9c1.5-0.9,2.9-1.9,4.4-2.7c0.9-0.5,1.9-0.7,2.9-1.1
				C91.3,71.8,91.4,71.8,91.4,71.9z M103.3,70c-0.6,0.1-1.1,0.3-1.3,0.9c0,0.1-0.1,0.1-0.1,0.2c0.1,0,0.1-0.1,0.2-0.1
				c0.5,0.5,0.6,0.1,0.8-0.3C103,70.5,103.1,70.3,103.3,70c0.1,0,0.3-0.1,0.4-0.1v-0.1C103.5,69.9,103.4,70,103.3,70z M103.1,73
				c0.2,0,0.5,0,0.6-0.1c0.2-0.2,0.3-0.5,0.5-0.8c-0.2-0.1-0.3-0.1-0.5-0.2C103.8,72.5,102.6,72.1,103.1,73c-0.2,0-0.4,0-0.5,0
				c0,0,0,0.1,0.1,0.1C102.8,73.1,103,73,103.1,73z M88.4,73.4c-0.2,0.1-0.5,0.2-0.7,0.3c-0.5,0.3-0.9,0.7-1.4,1
				c-1.9,1.1-3.8,2.1-5.7,3.2c-0.7,0.4-1.4,0.9-2.1,1.3c-0.1,0-0.2,0-0.2,0s0,0,0,0.1c0.1,0,0.1-0.1,0.2-0.1c0.6,0,1.2,0,1.8,0
				c0.3,0,0.7,0.1,0.4-0.5c0-0.1,0.1-0.2,0.1-0.2c0.1,0,0.3,0,0.3,0.1c0.3,0.4,0.6,0.4,1.1,0.2c0.4-0.2,1-0.4,1.4-0.3
				c0.8,0.1,0.6-0.3,0.5-0.7c-0.1-0.2-0.2-0.5-0.3-0.7c0-0.1,0-0.3,0-0.4c0.1-0.1,0.3-0.1,0.4,0s0.2,0.3,0.2,0.4
				c0.2,0.4,0.8,0.9,1.2,0.9c0.5,0,0.9,0,1.4-0.3c0.7-0.5,1.6-0.6,2.4-0.9c0.4-0.2,0.9-0.1,1.4-0.3c0.5-0.3,1.2-0.3,1.7-0.6
				c0.3-0.2,0.5-0.7,0.7-1.1c0.3-0.3,0.7-0.6,0.2-1.1c-0.3-0.3-0.6-0.7-0.9-1.1c-0.1-0.1-0.4-0.1-0.5-0.1c0.1,0.1,0.1,0.3,0.2,0.4
				c0,0.2,0,0.4,0.1,0.5c-0.1-0.1-0.3-0.1-0.4-0.3c-0.8-0.9-2.1-1-3.1-0.3c-0.1,0,0,0.3,0,0.4c0.2,0.4,0.5,0.8,0.7,1.3
				c0,0-0.2,0.2-0.3,0.3C89.1,74.5,88.7,73.9,88.4,73.4C88.4,73.4,88.5,73.4,88.4,73.4C88.5,73.3,88.4,73.3,88.4,73.4L88.4,73.4z
				 M106.9,68.6c-0.1-0.3-0.2-0.5-0.3-0.7c-0.1,0.2-0.2,0.3-0.3,0.5c-0.3,0.5-0.5,0.5-0.9,0.1h-0.2c-0.4,0.3-0.9,0.6-1.3,0.9
				c-0.1,0.1-0.1,0.1-0.2,0.2c0.1,0,0.2,0.1,0.3,0.1c0.9-0.3,1.8-0.5,2.6-0.8C106.8,68.8,106.8,68.7,106.9,68.6z M105.1,71.3
				c-0.3,0-0.5,0-0.6,0s-0.3,0-0.4,0c0.1,0.1,0.3,0.2,0.4,0.2c0.5,0,0.6,0.2,0.3,0.6c0,0.1,0,0.2-0.1,0.3h0.1
				c0.2-0.4,0.5-0.7,0.7-1.1C105.4,71.4,105.2,71.3,105.1,71.3z M107.4,70c-0.4,0.2-0.6,0.3-0.8,0.4c0.1,0.1,0.2,0.3,0.2,0.3
				c0.3,0,0.8-0.2,1,0.3l0.1-0.1C107.8,70.5,107.6,70.3,107.4,70z M98.3,72.3c-0.4,0.1-0.5,0.1-0.6,0.2c-0.4,0.1-0.8,0.3-1.2,0.4
				c0.4,0,0.9-0.1,1.3-0.1C98,72.8,98,72.6,98.3,72.3z M96.3,73c-0.1,0-0.2,0-0.3,0c-0.1,0-0.1,0-0.1,0.1C96,73.1,96.1,73.1,96.3,73
				C96.2,73.1,96.2,73,96.3,73z"/>
			<path class="st10" d="M67.3,90.4c0.3-1.1,0.7-2.2,1-3.3c0.2-0.9,0.4-1.8,0.6-2.8c0-0.1,0-0.2,0-0.3c-0.1,0.1-0.2,0.1-0.3,0.2
				c-1.4,0.4-2.7,0.7-4.1,1.1c-0.1,0-0.2-0.1-0.3-0.1c0.1-0.1,0.1-0.3,0.2-0.4c1.4-0.7,2.8-1.3,4.1-2c0.3-0.1,0.5-0.4,0.7-0.7
				c0.1-0.1,0.3-0.4,0.4-0.4c0.2,0,0.5,0.2,0.6,0.4c0.2,0.5,0.6,0.7,0.9,1.1c0.4,0.5,0.6,1.2,0.9,1.8c0.4,1,0.9,1.9,1.4,2.9
				c0.1,0.1,0.3,0.2,0.5,0.1c1.9-0.3,3.7-0.1,5.3,1.2c1.1,0.9,1.1,2.5,0.1,3.4c-1.6,1.3-3.3,1.5-5.2,0.9c-0.2-0.1-0.6,0-0.8,0.1
				c-1.5,0.8-3,0.8-4.3-0.1C67.7,92.7,67.4,91.7,67.3,90.4z M68.4,83.5c-0.1,0-0.3,0-0.4,0.1c-0.5,0.2-1,0.5-1.5,0.7
				c0.5-0.1,1.1-0.3,1.6-0.4c0.2-0.1,0.3-0.2,0.5-0.3c0-0.1,0.1-0.1,0.1-0.2C68.5,83.5,68.4,83.5,68.4,83.5z M68.7,90.7
				c0.1,0,0.3,0,0.4,0c0.1-0.2,0.2-0.4,0.3-0.6c0.3-0.6,0.4-1.3,0.8-1.8c0.2-0.2,0.7-0.4,1-0.3c1.1,0.5,2,2.8,1.5,3.9
				c-0.2,0.4-0.4,1.1-1.1,0.4l-0.2,0.1c-0.8,0.6-1.1,0.5-1.3-0.4c0-0.1-0.3-0.3-0.5-0.3c-0.1-0.1-0.3,0-0.5,0
				c-0.1,0-0.3-0.1-0.3-0.1c-0.1,0.2-0.3,0.4-0.2,0.5c0.3,0.3,0.5,0.7,0.9,0.8c0.6,0.2,1.2,0.2,1.8,0.3c0.7,0.1,1.4,0.1,1.7-0.8
				c0.1-0.4,0.1-0.9,0.3-1.3c0.6-1.2-0.2-2.2-0.7-3.2s-1.1-2-1.4-3c-0.2-0.7,0.3-1.4-1.1-1.3c-0.8,0-0.7,0.4-0.8,0.8
				c-0.3,1.9-0.5,3.8-0.8,5.7C68.5,90.3,68.6,90.5,68.7,90.7z M74.7,88.3c-1.3,0-1.3,0-0.9,1c0,0.1,0.1,0.1,0.1,0.2s0,0.2,0,0.3
				c0-0.1,0.1-0.2,0.1-0.3c1-1,3.5-0.7,4.2,0.5c0.1,0.1,0.1,0.3,0.1,0.4c0.2-0.2,0.4-0.4,0.5-0.6c0,0-0.2-0.3-0.3-0.4
				C77.4,88.5,75.9,88.4,74.7,88.3z M73.9,91.7c0.1,0.1,0.2,0.2,0.4,0.3c0.4,0.2,0.9,0.4,1.3,0.5c0.3,0.1,0.7,0.2,1.1,0.1
				s0.8-0.4,1.2-0.5c0.2-0.1,0.4-0.2,0.6-0.3c-0.3-0.1-0.5-0.2-0.8-0.2c-0.1,0-0.3,0.1-0.4,0.1c-1.1,0.4-2.1,0.3-3-0.3
				c-0.1-0.1-0.2-0.1-0.3-0.2C74,91.3,74,91.4,73.9,91.7z M75.8,91.7c0.1-0.1,0.1-0.1,0.2-0.2c0.3-0.1,0.6-0.1,0.8-0.2
				c0.1,0,0.3-0.1,0.4-0.2c-0.2-0.1-0.3-0.2-0.5-0.2c-0.8,0.1-1.1-0.4-1.4-1c-0.1-0.2-0.5-0.5-0.7-0.4c-0.5,0.2-0.7,0.7-0.3,1.1
				C74.8,91.1,75.4,91.3,75.8,91.7z M79.6,91c-0.1-0.3-0.2-0.6-0.3-0.8c0-0.1-0.2-0.1-0.3-0.1c0,0.1,0.1,0.2,0.1,0.3
				c0,0.3-0.1,0.5-0.2,0.8c0,0.2-0.2,0.3-0.2,0.5c0.2,0,0.5,0,0.6-0.1C79.4,91.4,79.5,91.2,79.6,91z"/>
			<path class="st10" d="M80.2,68.7c0.1-1.3,0.8-1.4,1.4-1.8c0.3-0.1,0.5-0.5,0.7-0.7L82.2,66c-0.3,0-0.8,0-0.9,0.2
				c-0.4,0.9-1.4,0.6-2,1.2s-1.3,0.7-2,0.4c-0.3-0.1-0.6-0.4-0.8-0.6c-0.1-0.1,0.2-0.5,0.4-0.7c0.2-0.3,0.5-0.7,0.8-0.9
				c0.4-0.3,0.8-0.5,1.2-0.7c0.1-0.1,0.3-0.1,0.3-0.2c-0.1-0.3-0.2-0.8-0.4-0.9c-0.5-0.3-0.7-0.9-0.4-1.2c0.3-0.3,0.9-0.5,1.4-0.5
				s0.9,0.3,1.4,0.4c0.1,0,0.4-0.1,0.5-0.3c0.4-0.8,1.2-1.1,1.9-1.4c0.1-0.1,0.6,0.2,0.6,0.3c0,0.6,0.3,0.3,0.6,0.3
				c0.4-0.1,0.8-0.1,1.2-0.1c0.1,0,0.3,0.2,0.4,0.3c0.4,0.9-0.4,2.7-1.3,3.1c-0.3,0.1-0.6,0.3-0.9,0.5c-0.1,0-0.1,0.1-0.1,0.1
				c0.1,0,0.1,0.1,0.2,0.1c0.2,0.1,0.4,0.1,0.6,0.2c1.4,0.6,1.9,1.8,1.3,3.2c-0.2,0.5-0.1,0.6,0.3,0.7c0.2,0,0.3,0.1,0.5,0.2
				c0.1,0.1,0.3,0.3,0.4,0.4c-0.2,0-0.3,0-0.5,0C86,70,85.1,70,84.2,69.9c-0.1,0-0.3,0.1-0.4,0.2c-0.7,0.6-1.6,0.7-2.3,0.2
				C80.9,69.8,80.5,69.1,80.2,68.7z M84.3,68.7c0.2,0.3,0.3,0.4,0.4,0.5c0,0,0.2,0,0.2-0.1c0.1-0.3,0.3-0.6,0.4-0.9s0-0.6,0.1-0.9
				c-0.2,0.1-0.4,0.2-0.5,0.3C84.7,67.9,84.5,68.2,84.3,68.7z M80.1,64.3c-0.3-0.6-0.5-1.2-0.8-1.7c0,0-0.4,0-0.5,0.1
				c-0.1,0,0,0.3,0,0.4c0.2,0.3,0.4,0.7,0.6,1c0.1,0.1,0.3,0.2,0.4,0.3C80,64.4,80.1,64.3,80.1,64.3z M83.2,63.9
				c0,0.1,0.1,0.3,0.2,0.4c0.1-0.1,0.2-0.2,0.3-0.4c0.1-0.3,0.2-0.6,0.2-1l-0.2-0.1C83.5,63.2,83.4,63.5,83.2,63.9z"/>
			<path class="st10" d="M89.3,76.1c-0.1,0.3-0.2,0.4-0.3,0.5c-0.2-0.3-0.5-0.7-0.7-1c0,0,0.1-0.2,0.2-0.3
				C88.7,75.6,89,75.8,89.3,76.1z"/>
			<path class="st10" d="M86.7,77.3c-0.1,0.2-0.2,0.4-0.3,0.5c-0.2-0.3-0.4-0.6-0.6-1c0-0.1,0.2-0.2,0.2-0.3
				C86.3,76.8,86.5,77,86.7,77.3z"/>
			<path class="st10" d="M86.6,75.1c0.3,0.4,0.5,0.6,0.6,0.9c0.1,0.1-0.1,0.3-0.2,0.5c-0.2-0.3-0.5-0.6-0.7-0.9
				C86.3,75.5,86.4,75.4,86.6,75.1z"/>
			<path class="st10" d="M91.5,74.7c-0.2,0.2-0.3,0.3-0.4,0.4c-0.2-0.3-0.4-0.5-0.6-0.8l0.2-0.2C90.9,74.3,91.1,74.5,91.5,74.7z"/>
		</g>
	</g>
	<path class="st0" d="M116.2,55.4c-4.8-0.1-9.5-0.8-14.1-2c-0.8-0.2-1.6-0.5-2.4-0.6c-0.3,0-0.8,0.2-1,0.4c-2.6,2.4-5.5,3.6-9,3.5
		c-0.7,0-1.4-0.1-2.1-0.2c-0.4-0.1-0.9-0.3-1-0.6s0.2-0.8,0.4-1c1.4-1.5,2.7-3.1,3.5-5c0.3-0.8,0.4-1.3-0.6-1.8
		c-3.3-1.8-6.1-4.2-7.5-7.8c-0.6-1.4-1-3-1.1-4.5c-0.4-5.7,0.4-11.2,2.3-16.5c1.6-4.5,4.5-8.1,8.1-11c1.5-1.2,3.5-1.9,5.3-2.4
		c2.6-0.7,5.2-1.2,7.9-1.5c3.4-0.4,6.7,0.3,9.9,1.5c4.5,1.7,9.1,3.4,13.5,5.4c6.9,3.2,10.6,8.9,11.5,16.3c0.9,7.3-1,13.8-5.3,19.7
		c-1.6,2.2-3.9,3.7-6.3,4.9c-3.4,1.6-6.8,3.2-10.8,3.3C117,55.4,116.6,55.4,116.2,55.4z M89.5,43.3c1,0.9,0.2,2.9,2.2,3.4
		c-0.2-0.8-0.3-1.5-0.5-2.2c0.3,0.2,0.5,0.5,0.6,0.8c0.2,0.8,0.2,1.8,1.3,2.1c0.1,0,0.2,0.6,0.1,0.9c-0.7,1.4-1.3,2.7-2.1,4
		C90.5,53.2,89.8,54,89,55c0.9-0.1,1.8,0.4,1.8-0.8c0.3,0.2,0.7,0.3,1,0.5c0.1-0.6,0.3-1.1,0.4-1.7c0.2,0.4,0.3,0.9,0.5,1.4
		c0.6-0.1,1.2-0.1,1.1-1c-0.1-0.5-0.2-1.1-0.3-1.6c0.1,0,0.2,0,0.3-0.1c0.2,0.6,0.3,1.3,0.5,2c2-0.8,0.4-2.3,0.9-3.5
		c0.3,0.9,0.5,1.7,0.7,2.4c1.5-0.5,0.7-1.6,0.8-2.8c0.3,0.6,0.5,1,0.8,1.6c0.5-0.8,0.9-1.5,1.3-2.2c0.3,0.5,0.2,1.8,1.7,1.5
		c-0.2-1.1-0.5-2.1-0.7-3.2c0.1,0,0.2-0.1,0.3-0.1c0.2,0.7,0.5,1.5,0.7,2.2c0.4,1.4,0.3,1.4,1.3,1.5c-0.3-1.1-0.5-2.3-0.8-3.4
		c0.1,0,0.2,0,0.3-0.1c0.7,1.2,0.4,2.9,1.4,3.9c0.1,0,0.2-0.1,0.3-0.1c-0.2-0.9-0.4-1.8-0.7-2.9c1.2,1,0.3,3.3,2.6,3.4
		c-0.3-1.3-0.6-2.5-0.9-3.6c0.1,0,0.2-0.1,0.3-0.1c0.3,1,0.7,2.1,0.9,3.1c0.2,0.8,0.6,1.1,1.4,0.9c-0.2-0.8-0.3-1.5-0.5-2.3
		c0.1,0,0.2,0,0.3,0c0.2,0.6,0.4,1.2,0.5,1.8c0.2,0.8,0.7,1,1.6,0.8c-0.3-1.5-0.7-2.9-1-4.3c0.1,0,0.3-0.1,0.4-0.1
		c0.3,1.3,0.6,2.6,0.9,3.9c0.2,0.7,0.5,1,1.2,0.6c-0.2-0.9-0.4-1.8-0.6-2.7c0.1,0,0.2,0,0.3-0.1c0.2,0.6,0.3,1.3,0.5,1.9
		c0.2,0.6,0.1,1.6,1.3,1.1c-0.1-0.7-0.2-1.4-0.3-2.1c1.4,2.4,1.4,2.4,2.1,2.2c-0.2-1-0.4-1.9-0.7-2.9c0.1,0,0.2-0.1,0.3-0.1
		c0.2,0.7,0.4,1.3,0.6,2s0.3,1.5,1.5,1c-0.2-1.1-0.5-2.3-0.7-3.4c0.1,0,0.2,0,0.3-0.1c0.2,0.9,0.5,1.7,0.6,2.6
		c0.1,1,0.6,1.3,1.6,0.8c-0.3-1.4-0.7-2.8-1-4.2c0.1,0,0.2-0.1,0.3-0.1c0.3,1.1,0.7,2.2,0.9,3.4c0.2,1,0.6,1.2,1.5,0.8
		c-0.2-1.2-0.4-2.4-0.6-3.6c0.1,0,0.2,0,0.3-0.1c0.2,0.9,0.3,1.8,0.6,2.8c0.1,0.3,0.4,0.6,0.7,0.8c0.1-0.4,0.4-0.7,0.4-1.1
		c-0.1-0.9-0.3-1.9-0.5-2.8c0.1,0,0.2,0,0.3-0.1c0.3,1.2,0.6,2.4,0.9,3.8c0.5-0.2,0.8-0.3,1.1-0.4c-0.3-1.4-0.6-2.7-0.9-4.1
		c0.1,0,0.2-0.1,0.4-0.1c0.4,1.3,0.7,2.6,1.1,4.1c0.5-0.2,0.9-0.4,1.4-0.5c-0.4-1.4-0.7-2.8-1-4.1c0.1,0,0.2-0.1,0.3-0.1
		c0.4,1.3,0.8,2.6,1.2,4c1.2-0.5,1.3-0.5,1-1.6c-0.2-1.1-0.5-2.2-0.8-3.4c0.1,0,0.3-0.1,0.4-0.1c0.3,1.4,0.7,2.8,1.1,4.3
		c1.4-0.8,0.5-1.8,0.4-2.6c-0.1-1-0.4-1.9-0.7-2.9c0.1,0,0.2-0.1,0.3-0.1c0.4,1.5,0.9,3.1,1.3,4.6c0.8-0.2,1-0.5,0.8-1.3
		c-0.3-1.2-0.6-2.5-0.8-3.7c0.1,0,0.2,0,0.4-0.1c0.3,1.4,0.7,2.7,1,4.1c0.1,0,0.3-0.1,0.4-0.1c0.2-1.6-0.9-3.1-0.9-4.7
		c0.1,0,0.2,0,0.3-0.1c0.4,1.3,0.8,2.7,1.3,4.1c1.2-0.8,1.2-0.8,0.8-1.9c-0.3-0.9-0.5-1.7-0.8-2.6c0.1,0,0.2-0.1,0.3-0.1
		c0.3,1.1,0.7,2.1,1.1,3.3c1.2-1.2-0.1-2.2,0.2-3.5c0.3,0.9,0.5,1.5,0.8,2.2c0.9-1.5-0.4-2.8-0.1-4.3c0.3,1.1,0.6,2.1,1,3.2
		c0.1,0,0.3,0,0.4-0.1c0.6-1.8-0.7-3.5-0.5-5.3c0.4,1.3,0.7,2.6,1.1,3.9c0.8-1.7-0.5-3.1-0.2-4.8c0.3,1.1,0.6,2.3,1,3.5
		c1.5-1.8-0.1-3.3,0.1-5c0.3,0.9,0.6,1.8,0.9,2.8c1.1-1.8-0.4-3.3,0-4.9c0.2,0.8,0.5,1.7,0.7,2.5c0.7-1.9-0.5-3.5-0.5-5.3
		c0.4,1,0.7,2.1,1.1,3.1c0.7-2.5-0.9-4.6-1.3-7c0.1,0,0.2-0.1,0.3-0.1c0.5,1.1,0.9,2.3,1.4,3.4c0.1-0.1,0.2-0.2,0.2-0.2
		c0-0.2,0-0.5,0-0.7c0-4.8-1.4-9.2-4.8-12.6C125.4,9,115.8,4.9,104.5,5.7c-6.9,0.4-12.8,3.3-16.9,9c-3.4,4.8-5.1,10.2-5.2,16.1
		c0,3.3,0.7,6.5,2.5,9.4c0.2,0.3,0.6,0.5,1.1,0.9c0.2,0.4,0.5,1.1,0.9,1.7c0.1,0,0.2-0.1,0.3-0.1c0-0.4-0.1-0.7-0.1-1.1
		c0.8,1,0.6,2.7,2.4,3.1C89.8,44.8,89.6,44,89.5,43.3z M132.2,14.5c3.6,3.7,5.9,8,7,13C138.5,22.3,136.3,17.9,132.2,14.5z M94.7,8.5
		c-3.6,1.3-6.5,3.3-7.7,7.1C89,12.7,91.6,10.3,94.7,8.5z M123.3,53.5c-2.9,0.4-6.4,0.8-9.5,1.2C117,55,120.5,54.5,123.3,53.5z
		 M82.6,37.7c0.7,2.4,1.7,4.4,3.5,6.2C84.9,41.9,83.8,39.9,82.6,37.7z M97.6,53.4c-0.1-0.1-0.1-0.1-0.2-0.2
		c-1.3,0.7-2.6,1.4-3.9,2.2c0,0.1,0.1,0.2,0.1,0.2C94.9,54.9,96.3,54.1,97.6,53.4z"/>
	<g>
		<path class="st0" d="M92.3,23.3l-1-2.7H92l0.7,2l0.7-2H94l-1,2.7H92.3z"/>
		<path class="st0" d="M94,22.4c0-0.6,0.4-1,1-1s1,0.4,1,1.1v0.1h-1.4c0,0.2,0.2,0.4,0.6,0.4c0.2,0,0.4-0.1,0.5-0.2l0.2,0.3
			c-0.2,0.2-0.5,0.3-0.8,0.3C94.4,23.4,94,23,94,22.4z M95,21.8c-0.3,0-0.5,0.2-0.5,0.4h1C95.4,22,95.3,21.8,95,21.8z"/>
		<path class="st0" d="M96.3,23.3v-1.9h0.5v0.3c0.1-0.2,0.4-0.3,0.6-0.3v0.5h-0.1c-0.2,0-0.4,0.1-0.5,0.2v1.3h-0.5V23.3z"/>
		<path class="st0" d="M97.6,22.4c0-0.6,0.4-1,1-1s1,0.4,1,1.1v0.1h-1.4c0,0.2,0.2,0.4,0.6,0.4c0.2,0,0.4-0.1,0.5-0.2l0.2,0.3
			c-0.2,0.2-0.5,0.3-0.8,0.3C98.1,23.4,97.6,23,97.6,22.4z M98.6,21.8c-0.3,0-0.5,0.2-0.5,0.4h1C99.1,22,98.9,21.8,98.6,21.8z"/>
		<path class="st0" d="M99.9,20.9c0-0.2,0.1-0.3,0.3-0.3c0.2,0,0.3,0.1,0.3,0.3c0,0.2-0.1,0.3-0.3,0.3C100,21.2,99.9,21.1,99.9,20.9
			z M99.9,23.3v-1.9h0.5v1.9H99.9z"/>
		<path class="st0" d="M102.3,23.3v-1.2c0-0.3-0.1-0.4-0.4-0.4c-0.2,0-0.4,0.1-0.4,0.2v1.3H101v-1.9h0.5v0.2
			c0.1-0.1,0.4-0.3,0.7-0.3c0.4,0,0.6,0.2,0.6,0.6v1.4L102.3,23.3L102.3,23.3z"/>
		<path class="st0" d="M104.4,23.3v-0.2c-0.1,0.2-0.4,0.3-0.6,0.3c-0.3,0-0.7-0.2-0.7-0.6c0-0.5,0.4-0.6,0.7-0.6
			c0.3,0,0.5,0.1,0.6,0.2v-0.2c0-0.2-0.2-0.3-0.4-0.3c-0.2,0-0.4,0.1-0.6,0.2l-0.2-0.4c0.2-0.2,0.5-0.3,0.8-0.3
			c0.4,0,0.8,0.2,0.8,0.7v1.2C104.8,23.3,104.4,23.3,104.4,23.3z M104.4,22.9v-0.2c-0.1-0.1-0.2-0.2-0.4-0.2c-0.2,0-0.4,0.1-0.4,0.3
			c0,0.2,0.2,0.3,0.4,0.3C104.2,23,104.4,23,104.4,22.9z"/>
		<path class="st0" d="M105.4,23.3v-2.7h0.5v1c0.2-0.2,0.4-0.3,0.6-0.3c0.5,0,0.9,0.4,0.9,1s-0.4,1-0.9,1c-0.2,0-0.4-0.1-0.6-0.3
			v0.2L105.4,23.3L105.4,23.3z M106.4,22.9c0.3,0,0.5-0.2,0.5-0.6c0-0.3-0.2-0.6-0.5-0.6c-0.2,0-0.4,0.1-0.4,0.2v0.7
			C106,22.8,106.2,22.9,106.4,22.9z"/>
		<path class="st0" d="M107.8,23.3v-1.9h0.5v0.3c0.1-0.2,0.4-0.3,0.6-0.3v0.5h-0.1c-0.2,0-0.4,0.1-0.5,0.2v1.3h-0.5V23.3z"/>
		<path class="st0" d="M109.1,22.4c0-0.6,0.4-1,1-1s1,0.4,1,1.1v0.1h-1.4c0,0.2,0.2,0.4,0.6,0.4c0.2,0,0.4-0.1,0.5-0.2l0.2,0.3
			c-0.2,0.2-0.5,0.3-0.8,0.3C109.6,23.4,109.1,23,109.1,22.4z M110.1,21.8c-0.3,0-0.5,0.2-0.5,0.4h1C110.6,22,110.4,21.8,110.1,21.8
			z"/>
		<path class="st0" d="M112.7,23.3v-1.2c0-0.3-0.1-0.4-0.4-0.4c-0.2,0-0.4,0.1-0.4,0.2v1.3h-0.5v-1.9h0.5v0.2
			c0.1-0.1,0.4-0.3,0.7-0.3c0.4,0,0.6,0.2,0.6,0.6v1.4L112.7,23.3L112.7,23.3z"/>
		<path class="st0" d="M114.6,23l0.3-0.4c0.2,0.2,0.5,0.4,0.8,0.4s0.5-0.1,0.5-0.3c0-0.5-1.5-0.1-1.5-1.1c0-0.4,0.4-0.8,1-0.8
			c0.4,0,0.8,0.1,1,0.4l-0.3,0.4c-0.2-0.2-0.5-0.3-0.8-0.3c-0.2,0-0.4,0.1-0.4,0.3c0,0.4,1.5,0.1,1.5,1.1c0,0.5-0.4,0.9-1.1,0.9
			C115.2,23.4,114.9,23.2,114.6,23z"/>
		<path class="st0" d="M117.1,20.9c0-0.2,0.1-0.3,0.3-0.3c0.2,0,0.3,0.1,0.3,0.3c0,0.2-0.1,0.3-0.3,0.3
			C117.3,21.2,117.1,21.1,117.1,20.9z M117.2,23.3v-1.9h0.5v1.9H117.2z"/>
		<path class="st0" d="M118.1,22.4c0-0.6,0.4-1,1-1s1,0.4,1,1.1v0.1h-1.4c0,0.2,0.2,0.4,0.6,0.4c0.2,0,0.4-0.1,0.5-0.2l0.2,0.3
			c-0.2,0.2-0.5,0.3-0.8,0.3C118.5,23.4,118.1,23,118.1,22.4z M119.1,21.8c-0.3,0-0.5,0.2-0.5,0.4h1C119.5,22,119.4,21.8,119.1,21.8
			z"/>
		<path class="st0" d="M122.7,23.3v-1.2c0-0.3-0.1-0.4-0.4-0.4c-0.2,0-0.4,0.1-0.4,0.2v1.3h-0.5v-1.9h0.5v0.2
			c0.1-0.1,0.4-0.3,0.7-0.3c0.4,0,0.6,0.2,0.6,0.6v1.4L122.7,23.3L122.7,23.3z"/>
		<path class="st0" d="M123.6,22.4c0-0.5,0.4-1,1-1s1,0.5,1,1s-0.4,1-1,1S123.6,22.9,123.6,22.4z M125.2,22.4c0-0.3-0.2-0.6-0.5-0.6
			s-0.5,0.3-0.5,0.6c0,0.3,0.2,0.6,0.5,0.6C125,22.9,125.2,22.7,125.2,22.4z"/>
		<path class="st0" d="M125.9,22.4c0-0.6,0.4-1,1-1c0.4,0,0.6,0.2,0.8,0.3l-0.3,0.3c-0.1-0.1-0.2-0.2-0.4-0.2
			c-0.3,0-0.5,0.2-0.5,0.6c0,0.3,0.2,0.6,0.5,0.6c0.2,0,0.3-0.1,0.4-0.2l0.3,0.3c-0.1,0.2-0.4,0.4-0.8,0.4
			C126.4,23.4,125.9,23,125.9,22.4z"/>
		<path class="st0" d="M129.4,23.3v-1.2c0-0.3-0.1-0.4-0.4-0.4c-0.2,0-0.4,0.1-0.4,0.2v1.3h-0.5v-2.7h0.5v1c0.1-0.1,0.4-0.3,0.7-0.3
			c0.4,0,0.6,0.2,0.6,0.6v1.4h-0.5V23.3z"/>
		<path class="st0" d="M88.7,27.7v-1.2c0-0.3-0.1-0.4-0.4-0.4c-0.2,0-0.4,0.1-0.4,0.2v1.3h-0.5v-2.7h0.5v1c0.1-0.1,0.4-0.3,0.7-0.3
			c0.4,0,0.6,0.2,0.6,0.6v1.4h-0.5V27.7z"/>
		<path class="st0" d="M89.6,26.8c0-0.6,0.4-1,1-1s1,0.4,1,1.1V27h-1.4c0,0.2,0.2,0.4,0.6,0.4c0.2,0,0.4-0.1,0.5-0.2l0.2,0.3
			c-0.2,0.2-0.5,0.3-0.8,0.3C90,27.8,89.6,27.4,89.6,26.8z M90.6,26.2c-0.3,0-0.5,0.2-0.5,0.4h1C91,26.4,90.9,26.2,90.6,26.2z"/>
		<path class="st0" d="M93.2,27.7v-0.2c-0.1,0.1-0.4,0.3-0.7,0.3c-0.4,0-0.6-0.2-0.6-0.6v-1.4h0.5V27c0,0.3,0.1,0.4,0.4,0.4
			c0.2,0,0.4-0.1,0.4-0.2v-1.3h0.5v1.9L93.2,27.7L93.2,27.7z"/>
		<path class="st0" d="M94.3,27.2v-1H94v-0.4h0.3v-0.5h0.5v0.5h0.4v0.4h-0.4v0.9c0,0.1,0.1,0.2,0.2,0.2s0.1,0,0.2-0.1l0.1,0.4
			c-0.1,0.1-0.2,0.1-0.4,0.1C94.5,27.8,94.3,27.6,94.3,27.2z"/>
		<path class="st0" d="M95.5,26.8c0-0.6,0.4-1,1-1s1,0.4,1,1.1V27H96c0,0.2,0.2,0.4,0.6,0.4c0.2,0,0.4-0.1,0.5-0.2l0.2,0.3
			c-0.2,0.2-0.5,0.3-0.8,0.3C95.9,27.8,95.5,27.4,95.5,26.8z M96.5,26.2c-0.3,0-0.5,0.2-0.5,0.4h1C96.9,26.4,96.8,26.2,96.5,26.2z"
			/>
		<path class="st0" d="M98.7,26.8c0-0.6,0.4-1,1-1s1,0.4,1,1.1V27h-1.4c0,0.2,0.2,0.4,0.6,0.4c0.2,0,0.4-0.1,0.5-0.2l0.2,0.3
			c-0.2,0.2-0.5,0.3-0.8,0.3C99.2,27.8,98.7,27.4,98.7,26.8z M99.7,26.2c-0.3,0-0.5,0.2-0.5,0.4h1C100.2,26.4,100,26.2,99.7,26.2z"
			/>
		<path class="st0" d="M101,25.3c0-0.2,0.1-0.3,0.3-0.3c0.2,0,0.3,0.1,0.3,0.3c0,0.2-0.1,0.3-0.3,0.3C101.1,25.6,101,25.5,101,25.3z
			 M101,27.7v-1.9h0.5v1.9H101z"/>
		<path class="st0" d="M103.4,27.7v-1.2c0-0.3-0.1-0.4-0.4-0.4c-0.2,0-0.4,0.1-0.4,0.2v1.3h-0.5v-1.9h0.5V26
			c0.1-0.1,0.4-0.3,0.7-0.3c0.4,0,0.6,0.2,0.6,0.6v1.4H103.4z"/>
		<path class="st0" d="M104.2,26.8c0-0.6,0.4-1,1-1s1,0.4,1,1.1V27h-1.4c0,0.2,0.2,0.4,0.6,0.4c0.2,0,0.4-0.1,0.5-0.2l0.2,0.3
			c-0.2,0.2-0.5,0.3-0.8,0.3C104.7,27.8,104.2,27.4,104.2,26.8z M105.2,26.2c-0.3,0-0.5,0.2-0.5,0.4h1
			C105.7,26.4,105.6,26.2,105.2,26.2z"/>
		<path class="st0" d="M107.6,27.7V25h1.2c0.6,0,0.9,0.4,0.9,0.9s-0.3,0.9-0.9,0.9h-0.7v1L107.6,27.7L107.6,27.7z M109.2,25.9
			c0-0.2-0.2-0.4-0.4-0.4h-0.6v0.7h0.6C109,26.3,109.2,26.1,109.2,25.9z"/>
		<path class="st0" d="M110.1,27.7v-1.9h0.5v0.3c0.1-0.2,0.4-0.3,0.6-0.3v0.5h-0.1c-0.2,0-0.4,0.1-0.5,0.2v1.3h-0.5V27.7z"/>
		<path class="st0" d="M111.4,26.8c0-0.5,0.4-1,1-1s1,0.5,1,1s-0.4,1-1,1S111.4,27.3,111.4,26.8z M112.9,26.8c0-0.3-0.2-0.6-0.5-0.6
			s-0.5,0.3-0.5,0.6c0,0.3,0.2,0.6,0.5,0.6C112.8,27.3,112.9,27.1,112.9,26.8z"/>
		<path class="st0" d="M113.9,27.7V25h0.5v1c0.2-0.2,0.4-0.3,0.6-0.3c0.5,0,0.9,0.4,0.9,1s-0.4,1-0.9,1c-0.2,0-0.4-0.1-0.6-0.3v0.2
			L113.9,27.7L113.9,27.7z M114.8,27.3c0.3,0,0.5-0.2,0.5-0.6c0-0.3-0.2-0.6-0.5-0.6c-0.2,0-0.4,0.1-0.4,0.2V27
			C114.4,27.2,114.6,27.3,114.8,27.3z"/>
		<path class="st0" d="M116.1,26.8c0-0.6,0.4-1,1-1s1,0.4,1,1.1V27h-1.4c0,0.2,0.2,0.4,0.6,0.4c0.2,0,0.4-0.1,0.5-0.2l0.2,0.3
			c-0.2,0.2-0.5,0.3-0.8,0.3C116.5,27.8,116.1,27.4,116.1,26.8z M117.1,26.2c-0.3,0-0.5,0.2-0.5,0.4h1
			C117.5,26.4,117.4,26.2,117.1,26.2z"/>
		<path class="st0" d="M118.4,27.7V25h0.5v2.7H118.4z"/>
		<path class="st0" d="M119.4,25.3c0-0.2,0.1-0.3,0.3-0.3c0.2,0,0.3,0.1,0.3,0.3c0,0.2-0.1,0.3-0.3,0.3
			C119.5,25.6,119.4,25.5,119.4,25.3z M119.4,27.7v-1.9h0.5v1.9H119.4z"/>
		<path class="st0" d="M120.3,26.8c0-0.6,0.4-1,1-1s1,0.4,1,1.1V27h-1.4c0,0.2,0.2,0.4,0.6,0.4c0.2,0,0.4-0.1,0.5-0.2l0.2,0.3
			c-0.2,0.2-0.5,0.3-0.8,0.3C120.7,27.8,120.3,27.4,120.3,26.8z M121.3,26.2c-0.3,0-0.5,0.2-0.5,0.4h1
			C121.8,26.4,121.6,26.2,121.3,26.2z"/>
		<path class="st0" d="M122.8,27.7v-1.5h-0.3v-0.4h0.3v-0.1c0-0.4,0.3-0.7,0.6-0.7c0.2,0,0.4,0.1,0.5,0.2l-0.2,0.3
			c-0.1,0-0.1-0.1-0.2-0.1s-0.2,0.1-0.2,0.3v0.1h0.4v0.4h-0.4v1.5C123.3,27.7,122.8,27.7,122.8,27.7z"/>
		<path class="st0" d="M123.8,26.8c0-0.6,0.4-1,1-1s1,0.4,1,1.1V27h-1.4c0,0.2,0.2,0.4,0.6,0.4c0.2,0,0.4-0.1,0.5-0.2l0.2,0.3
			c-0.2,0.2-0.5,0.3-0.8,0.3C124.3,27.8,123.8,27.4,123.8,26.8z M124.8,26.2c-0.3,0-0.5,0.2-0.5,0.4h1
			C125.3,26.4,125.2,26.2,124.8,26.2z"/>
		<path class="st0" d="M126.2,27.7v-1.9h0.5v0.3c0.1-0.2,0.4-0.3,0.6-0.3v0.5h-0.1c-0.2,0-0.4,0.1-0.5,0.2v1.3h-0.5V27.7z"/>
		<path class="st0" d="M128.9,27.7v-0.2c-0.1,0.1-0.4,0.3-0.7,0.3c-0.4,0-0.6-0.2-0.6-0.6v-1.4h0.5V27c0,0.3,0.1,0.4,0.4,0.4
			c0.2,0,0.4-0.1,0.4-0.2v-1.3h0.5v1.9L128.9,27.7L128.9,27.7z"/>
		<path class="st0" d="M131.2,27.7v-1.2c0-0.3-0.1-0.4-0.4-0.4c-0.2,0-0.4,0.1-0.4,0.2v1.3h-0.5v-1.9h0.5V26
			c0.1-0.1,0.4-0.3,0.7-0.3c0.4,0,0.6,0.2,0.6,0.6v1.4H131.2z"/>
		<path class="st0" d="M132.2,28.2l0.2-0.4c0.2,0.2,0.4,0.2,0.6,0.2c0.2,0,0.5-0.1,0.5-0.5v-0.2c-0.2,0.2-0.4,0.3-0.6,0.3
			c-0.5,0-0.9-0.3-0.9-1c0-0.6,0.4-1,0.9-1c0.2,0,0.4,0.1,0.6,0.3v-0.2h0.5v1.8c0,0.7-0.6,0.9-1,0.9
			C132.7,28.5,132.4,28.4,132.2,28.2z M133.6,27v-0.6c-0.1-0.1-0.3-0.2-0.4-0.2c-0.3,0-0.5,0.2-0.5,0.5s0.2,0.5,0.5,0.5
			C133.3,27.3,133.5,27.2,133.6,27z"/>
		<path class="st0" d="M87.9,32.1v-1.5h-0.3v-0.4h0.3v-0.1c0-0.4,0.3-0.7,0.6-0.7c0.2,0,0.4,0.1,0.5,0.2l-0.2,0.3
			c-0.1,0-0.1-0.1-0.2-0.1s-0.2,0.1-0.2,0.3v0.1h0.4v0.4h-0.4v1.5H87.9z"/>
		<path class="st0" d="M90.4,32.1v-0.2c-0.1,0.1-0.4,0.3-0.7,0.3c-0.4,0-0.6-0.2-0.6-0.6v-1.4h0.5v1.2c0,0.3,0.1,0.4,0.4,0.4
			c0.2,0,0.4-0.1,0.4-0.2v-1.3h0.5v1.9L90.4,32.1L90.4,32.1z M89.6,30c-0.2,0-0.3-0.1-0.3-0.3c0-0.2,0.1-0.3,0.3-0.3
			c0.2,0,0.3,0.1,0.3,0.3C89.9,29.8,89.7,30,89.6,30z M90.4,30c-0.1,0-0.3-0.1-0.3-0.3c0-0.2,0.1-0.3,0.3-0.3c0.2,0,0.3,0.1,0.3,0.3
			C90.7,29.8,90.6,30,90.4,30z"/>
		<path class="st0" d="M91.4,32.1v-1.9h0.5v0.3c0.1-0.2,0.4-0.3,0.6-0.3v0.5h-0.1c-0.2,0-0.4,0.1-0.5,0.2v1.3h-0.5V32.1z"/>
		<path class="st0" d="M93.9,32.1v-2.7h0.6v2.7H93.9z"/>
		<path class="st0" d="M96.3,32.1V31c0-0.3-0.1-0.4-0.4-0.4c-0.2,0-0.4,0.1-0.4,0.2v1.3H95v-2.7h0.5v1c0.1-0.1,0.4-0.3,0.7-0.3
			c0.4,0,0.6,0.2,0.6,0.6v1.4C96.8,32.1,96.3,32.1,96.3,32.1z"/>
		<path class="st0" d="M97.3,32.1v-1.9h0.5v0.3c0.1-0.2,0.4-0.3,0.6-0.3v0.5h-0.1c-0.2,0-0.4,0.1-0.5,0.2v1.3h-0.5V32.1z"/>
		<path class="st0" d="M98.6,31.2c0-0.6,0.4-1,1-1s1,0.4,1,1.1v0.1h-1.4c0,0.2,0.2,0.4,0.6,0.4c0.2,0,0.4-0.1,0.5-0.2l0.2,0.3
			c-0.2,0.2-0.5,0.3-0.8,0.3C99.1,32.2,98.6,31.8,98.6,31.2z M99.6,30.6c-0.3,0-0.5,0.2-0.5,0.4h1C100.1,30.8,100,30.6,99.6,30.6z"
			/>
		<path class="st0" d="M103.6,32.1l-0.8-1.1l-0.2,0.3v0.8H102v-2.7h0.6v1.2l0.9-1.2h0.7l-1.1,1.3l1.1,1.4H103.6z"/>
		<path class="st0" d="M104.5,32.1v-2.7h0.6v2.7H104.5z"/>
		<path class="st0" d="M106.2,32.1V30h-0.8v-0.5h2.1V30h-0.8v2.2h-0.5V32.1z"/>
		<path class="st0" d="M109.5,32.1l-0.2-0.5h-1.1l-0.2,0.5h-0.6l1-2.7h0.7l1,2.7H109.5z M108.8,30l-0.4,1.1h0.8L108.8,30z"/>
		<path class="st0" d="M110.3,31.4V31h1v0.4H110.3z"/>
		<path class="st0" d="M112.5,30.8c0-0.8,0.6-1.4,1.4-1.4c0.6,0,0.9,0.3,1.1,0.6l-0.5,0.3c-0.1-0.2-0.4-0.3-0.6-0.3
			c-0.5,0-0.8,0.4-0.8,0.9s0.4,0.9,0.8,0.9c0.2,0,0.5-0.1,0.6-0.2v-0.3h-0.7v-0.5h1.3v1c-0.3,0.3-0.7,0.5-1.1,0.5
			C113.2,32.2,112.5,31.6,112.5,30.8z"/>
		<path class="st0" d="M115.5,32.1v-1.9h0.5v0.3c0.1-0.2,0.4-0.3,0.6-0.3v0.5h-0.1c-0.2,0-0.4,0.1-0.5,0.2v1.3h-0.5V32.1z"/>
		<path class="st0" d="M118.3,32.1v-0.2c-0.1,0.1-0.4,0.3-0.7,0.3c-0.4,0-0.6-0.2-0.6-0.6v-1.4h0.5v1.2c0,0.3,0.1,0.4,0.4,0.4
			c0.2,0,0.4-0.1,0.4-0.2v-1.3h0.5v1.9L118.3,32.1L118.3,32.1z"/>
		<path class="st0" d="M119.8,31.9v1h-0.5v-2.7h0.5v0.2c0.1-0.2,0.4-0.3,0.6-0.3c0.5,0,0.9,0.4,0.9,1s-0.4,1-0.9,1
			C120.2,32.2,120,32.1,119.8,31.9z M120.7,31.2c0-0.3-0.2-0.6-0.5-0.6c-0.2,0-0.3,0.1-0.4,0.2v0.7c0.1,0.1,0.3,0.2,0.4,0.2
			C120.5,31.7,120.7,31.5,120.7,31.2z"/>
		<path class="st0" d="M122.1,31.9v1h-0.5v-2.7h0.5v0.2c0.1-0.2,0.4-0.3,0.6-0.3c0.5,0,0.9,0.4,0.9,1s-0.4,1-0.9,1
			C122.5,32.2,122.3,32.1,122.1,31.9z M123.1,31.2c0-0.3-0.2-0.6-0.5-0.6c-0.2,0-0.3,0.1-0.4,0.2v0.7c0.1,0.1,0.3,0.2,0.4,0.2
			C122.9,31.7,123.1,31.5,123.1,31.2z"/>
		<path class="st0" d="M123.8,31.2c0-0.6,0.4-1,1-1s1,0.4,1,1.1v0.1h-1.4c0,0.2,0.2,0.4,0.6,0.4c0.2,0,0.4-0.1,0.5-0.2l0.2,0.3
			c-0.2,0.2-0.5,0.3-0.8,0.3C124.3,32.2,123.8,31.8,123.8,31.2z M124.8,30.6c-0.3,0-0.5,0.2-0.5,0.4h1
			C125.3,30.8,125.2,30.6,124.8,30.6z"/>
		<path class="st0" d="M128.5,32.1v-0.2c-0.1,0.1-0.4,0.3-0.7,0.3c-0.4,0-0.6-0.2-0.6-0.6v-1.4h0.5v1.2c0,0.3,0.1,0.4,0.4,0.4
			c0.2,0,0.4-0.1,0.4-0.2v-1.3h0.5v1.9L128.5,32.1L128.5,32.1z"/>
		<path class="st0" d="M130.8,32.1V31c0-0.3-0.1-0.4-0.4-0.4c-0.2,0-0.4,0.1-0.4,0.2v1.3h-0.5v-1.9h0.5v0.2c0.1-0.1,0.4-0.3,0.7-0.3
			c0.4,0,0.6,0.2,0.6,0.6v1.4C131.3,32.1,130.8,32.1,130.8,32.1z"/>
		<path class="st0" d="M133.2,32.1v-0.2c-0.2,0.2-0.4,0.3-0.6,0.3c-0.5,0-0.9-0.4-0.9-1s0.4-1,0.9-1c0.2,0,0.4,0.1,0.6,0.3v-1h0.5
			v2.7L133.2,32.1L133.2,32.1z M133.2,31.5v-0.7c-0.1-0.1-0.3-0.2-0.4-0.2c-0.3,0-0.5,0.2-0.5,0.6c0,0.3,0.2,0.6,0.5,0.6
			C132.9,31.7,133.1,31.6,133.2,31.5z"/>
		<path class="st0" d="M98.1,36.5v-0.2c-0.1,0.1-0.4,0.3-0.7,0.3c-0.4,0-0.6-0.2-0.6-0.6v-1.4h0.5v1.2c0,0.3,0.1,0.4,0.4,0.4
			c0.2,0,0.4-0.1,0.4-0.2v-1.3h0.5v1.9h-0.5V36.5z M97.3,34.4c-0.2,0-0.3-0.1-0.3-0.3s0.1-0.3,0.3-0.3c0.2,0,0.3,0.1,0.3,0.3
			C97.6,34.2,97.5,34.4,97.3,34.4z M98.2,34.4c-0.1,0-0.3-0.1-0.3-0.3s0.1-0.3,0.3-0.3c0.2,0,0.3,0.1,0.3,0.3
			C98.5,34.2,98.3,34.4,98.2,34.4z"/>
		<path class="st0" d="M99.2,36.5v-2.7h0.5v1c0.2-0.2,0.4-0.3,0.6-0.3c0.5,0,0.9,0.4,0.9,1s-0.4,1-0.9,1c-0.2,0-0.4-0.1-0.6-0.3v0.2
			L99.2,36.5L99.2,36.5z M100.1,36.1c0.3,0,0.5-0.2,0.5-0.6c0-0.3-0.2-0.6-0.5-0.6c-0.2,0-0.4,0.1-0.4,0.2v0.7
			C99.8,36,99.9,36.1,100.1,36.1z"/>
		<path class="st0" d="M101.4,35.6c0-0.6,0.4-1,1-1s1,0.4,1,1.1v0.1H102c0,0.2,0.2,0.4,0.6,0.4c0.2,0,0.4-0.1,0.5-0.2l0.2,0.3
			c-0.2,0.2-0.5,0.3-0.8,0.3C101.8,36.6,101.4,36.2,101.4,35.6z M102.4,35c-0.3,0-0.5,0.2-0.5,0.4h1C102.8,35.2,102.7,35,102.4,35z"
			/>
		<path class="st0" d="M103.7,36.5v-1.9h0.5v0.3c0.1-0.2,0.4-0.3,0.6-0.3V35h-0.1c-0.2,0-0.4,0.1-0.5,0.2v1.3H103.7z"/>
		<path class="st0" d="M105.1,36.5v-0.4L106,35h-0.9v-0.4h1.6V35l-0.9,1.1h0.9v0.4H105.1z"/>
		<path class="st0" d="M106.9,35.6c0-0.6,0.4-1,1-1s1,0.4,1,1.1v0.1h-1.4c0,0.2,0.2,0.4,0.6,0.4c0.2,0,0.4-0.1,0.5-0.2l0.2,0.3
			c-0.2,0.2-0.5,0.3-0.8,0.3C107.4,36.6,106.9,36.2,106.9,35.6z M107.9,35c-0.3,0-0.5,0.2-0.5,0.4h1C108.4,35.2,108.3,35,107.9,35z"
			/>
		<path class="st0" d="M110.6,36.5v-0.2c-0.1,0.1-0.4,0.3-0.7,0.3c-0.4,0-0.6-0.2-0.6-0.6v-1.4h0.5v1.2c0,0.3,0.1,0.4,0.4,0.4
			c0.2,0,0.4-0.1,0.4-0.2v-1.3h0.5v1.9h-0.5V36.5z"/>
		<path class="st0" d="M111.6,37l0.2-0.4c0.2,0.2,0.4,0.2,0.6,0.2s0.5-0.1,0.5-0.5v-0.2c-0.2,0.2-0.4,0.3-0.6,0.3
			c-0.5,0-0.9-0.3-0.9-1c0-0.6,0.4-1,0.9-1c0.2,0,0.4,0.1,0.6,0.3v-0.2h0.5v1.8c0,0.7-0.6,0.9-1,0.9C112.1,37.3,111.8,37.2,111.6,37
			z M112.9,35.8v-0.6c-0.1-0.1-0.3-0.2-0.4-0.2c-0.3,0-0.5,0.2-0.5,0.5s0.2,0.5,0.5,0.5C112.7,36.1,112.8,36,112.9,35.8z"/>
		<path class="st0" d="M113.8,35.6c0-0.6,0.4-1,1-1s1,0.4,1,1.1v0.1h-1.4c0,0.2,0.2,0.4,0.6,0.4c0.2,0,0.4-0.1,0.5-0.2l0.2,0.3
			c-0.2,0.2-0.5,0.3-0.8,0.3C114.3,36.6,113.8,36.2,113.8,35.6z M114.8,35c-0.3,0-0.5,0.2-0.5,0.4h1C115.3,35.2,115.2,35,114.8,35z"
			/>
		<path class="st0" d="M117.5,36.5v-1.2c0-0.3-0.1-0.4-0.4-0.4c-0.2,0-0.4,0.1-0.4,0.2v1.3h-0.5v-1.9h0.5v0.2
			c0.1-0.1,0.4-0.3,0.7-0.3c0.4,0,0.6,0.2,0.6,0.6v1.4h-0.5V36.5z"/>
		<path class="st0" d="M119.3,36.2l0.3-0.4c0.2,0.2,0.5,0.4,0.8,0.4s0.5-0.1,0.5-0.3c0-0.5-1.5-0.1-1.5-1.1c0-0.4,0.4-0.8,1-0.8
			c0.4,0,0.8,0.1,1,0.4l-0.3,0.4c-0.2-0.2-0.5-0.3-0.8-0.3c-0.2,0-0.4,0.1-0.4,0.3c0,0.4,1.5,0.1,1.5,1.1c0,0.5-0.4,0.9-1.1,0.9
			C119.9,36.6,119.6,36.4,119.3,36.2z"/>
		<path class="st0" d="M121.8,34.1c0-0.2,0.1-0.3,0.3-0.3c0.2,0,0.3,0.1,0.3,0.3s-0.1,0.3-0.3,0.3C122,34.4,121.8,34.3,121.8,34.1z
			 M121.9,36.5v-1.9h0.5v1.9H121.9z"/>
		<path class="st0" d="M122.8,35.6c0-0.6,0.4-1,1-1s1,0.4,1,1.1v0.1h-1.4c0,0.2,0.2,0.4,0.6,0.4c0.2,0,0.4-0.1,0.5-0.2l0.2,0.3
			c-0.2,0.2-0.5,0.3-0.8,0.3C123.2,36.6,122.8,36.2,122.8,35.6z M123.8,35c-0.3,0-0.5,0.2-0.5,0.4h1C124.2,35.2,124.1,35,123.8,35z"
			/>
		<path class="st0" d="M100.8,40.7l0.2-0.4c0.1,0.1,0.4,0.3,0.7,0.3c0.2,0,0.3-0.1,0.3-0.2c0-0.3-1.1-0.1-1.1-0.8
			c0-0.3,0.3-0.6,0.8-0.6c0.3,0,0.6,0.1,0.8,0.3l-0.2,0.4c-0.1-0.1-0.3-0.2-0.6-0.2c-0.2,0-0.3,0.1-0.3,0.2c0,0.3,1.1,0,1.1,0.8
			c0,0.4-0.3,0.6-0.8,0.6C101.3,41,101,40.9,100.8,40.7z"/>
		<path class="st0" d="M102.8,38.5c0-0.2,0.1-0.3,0.3-0.3c0.2,0,0.3,0.1,0.3,0.3s-0.1,0.3-0.3,0.3C103,38.8,102.8,38.7,102.8,38.5z
			 M102.9,40.9V39h0.5v1.9H102.9z"/>
		<path class="st0" d="M103.8,40c0-0.6,0.4-1,1-1c0.4,0,0.6,0.2,0.8,0.3l-0.3,0.3c-0.1-0.1-0.2-0.2-0.4-0.2c-0.3,0-0.5,0.2-0.5,0.6
			c0,0.3,0.2,0.6,0.5,0.6c0.2,0,0.3-0.1,0.4-0.2l0.3,0.3c-0.1,0.2-0.4,0.4-0.8,0.4C104.2,41,103.8,40.6,103.8,40z"/>
		<path class="st0" d="M107.2,40.9v-1.2c0-0.3-0.1-0.4-0.4-0.4c-0.2,0-0.4,0.1-0.4,0.2v1.3h-0.5v-2.7h0.5v1c0.1-0.1,0.4-0.3,0.7-0.3
			c0.4,0,0.6,0.2,0.6,0.6v1.4h-0.5V40.9z"/>
		<path class="st0" d="M109.1,40.7l0.2-0.4c0.1,0.1,0.4,0.3,0.7,0.3c0.2,0,0.3-0.1,0.3-0.2c0-0.3-1.1-0.1-1.1-0.8
			c0-0.3,0.3-0.6,0.8-0.6c0.3,0,0.6,0.1,0.8,0.3l-0.2,0.4c-0.1-0.1-0.3-0.2-0.6-0.2c-0.2,0-0.3,0.1-0.3,0.2c0,0.3,1.1,0,1.1,0.8
			c0,0.4-0.3,0.6-0.8,0.6C109.6,41,109.3,40.9,109.1,40.7z"/>
		<path class="st0" d="M111,40c0-0.6,0.4-1,1-1s1,0.4,1,1.1v0.1h-1.4c0,0.2,0.2,0.4,0.6,0.4c0.2,0,0.4-0.1,0.5-0.2l0.2,0.3
			c-0.2,0.2-0.5,0.3-0.8,0.3C111.5,41,111,40.6,111,40z M112,39.4c-0.3,0-0.5,0.2-0.5,0.4h1C112.5,39.6,112.4,39.4,112,39.4z"/>
		<path class="st0" d="M113.4,40.9v-2.7h0.5v2.7H113.4z"/>
		<path class="st0" d="M114.4,40.9v-2.7h0.5v1c0.2-0.2,0.4-0.3,0.6-0.3c0.5,0,0.9,0.4,0.9,1s-0.4,1-0.9,1c-0.2,0-0.4-0.1-0.6-0.3
			v0.2L114.4,40.9L114.4,40.9z M115.3,40.5c0.3,0,0.5-0.2,0.5-0.6c0-0.3-0.2-0.6-0.5-0.6c-0.2,0-0.4,0.1-0.4,0.2v0.7
			C115,40.4,115.1,40.5,115.3,40.5z"/>
		<path class="st0" d="M116.5,40.7l0.2-0.4c0.1,0.1,0.4,0.3,0.7,0.3c0.2,0,0.3-0.1,0.3-0.2c0-0.3-1.1-0.1-1.1-0.8
			c0-0.3,0.3-0.6,0.8-0.6c0.3,0,0.6,0.1,0.8,0.3l-0.2,0.4c-0.1-0.1-0.3-0.2-0.6-0.2c-0.2,0-0.3,0.1-0.3,0.2c0,0.3,1.1,0,1.1,0.8
			c0,0.4-0.3,0.6-0.8,0.6C117.1,41,116.7,40.9,116.5,40.7z"/>
		<path class="st0" d="M118.7,40.4v-1h-0.3V39h0.3v-0.5h0.5V39h0.4v0.4h-0.4v0.9c0,0.1,0.1,0.2,0.2,0.2s0.1,0,0.2-0.1l0.1,0.4
			c-0.1,0.1-0.2,0.1-0.4,0.1C118.9,41,118.7,40.8,118.7,40.4z"/>
		<path class="st0" d="M119.9,40.7c0-0.2,0.1-0.3,0.3-0.3s0.3,0.1,0.3,0.3s-0.1,0.3-0.3,0.3S119.9,40.8,119.9,40.7z M120,40.1
			l-0.1-1.8h0.6l-0.1,1.8H120z"/>
	</g>
</g>
</svg>
