<?xml version="1.0" encoding="utf-8"?>
<!-- Generator: Adobe Illustrator 24.0.0, SVG Export Plug-In . SVG Version: 6.00 Build 0)  -->
<svg version="1.1" xmlns="http://www.w3.org/2000/svg" xmlns:xlink="http://www.w3.org/1999/xlink" x="0px" y="0px"
	 viewBox="0 0 119.9 44.6" style="enable-background:new 0 0 119.9 44.6;" xml:space="preserve">
<style type="text/css">
	.st0{fill:#4A494A;}
	.st1{fill:#010202;}
	.st2{fill:#FFFFFF;}
	.st3{fill:#93C251;}
	.st4{fill:#ED6D4F;}
	.st5{fill:#ED6C4D;}
	.st6{fill:#F5E318;}
	.st7{fill:#EE7255;}
	.st8{fill:#F5E112;}
	.st9{fill:#F6E328;}
	.st10{fill:#F2937C;}
	.st11{fill:#F1876D;}
	.st12{fill:#F6E250;}
	.st13{fill:#94C251;}
</style>
<g id="Ebene_2">
</g>
<g id="Ebene_1">
	<g id="Form_71_1_">
		<path class="st13" d="M31.7,33c0.1,0.2,0.3,0.4,0.4,0.5c0.6,0.6,1.3,1.2,1.9,1.9c0.5,0.6,0.4,1.7,0,2.4c-0.4,0.6-0.8,1.2-1.3,1.8
			c-0.5,0.5-1.2,0.9-1.9,1.4c-0.8,0.6-1.7,0.8-2.7,0.9c-0.5,0-1-0.1-1.5-0.2c-0.7-0.2-1.4-0.3-2.1-0.6c-0.8-0.3-1.4-0.8-1.3-1.3
			c0.1-0.5,0-1.2,0.6-1.6c0.1,0,0.1-0.1,0.1-0.1c0.8-0.1,0.5-0.6,0.4-1c-0.1-0.9-0.3-1.7-0.4-2.6c-0.1-0.9-0.2-1.7-0.3-2.6
			c0,0-0.1,0-0.2,0c-0.8,0.4-1.7,0.1-1.9-0.7c-0.1-0.3,0.1-0.7,0.2-0.9c0.3-0.4,0.8-0.8,1.2-1.1c0.1-0.1,0.2-0.3,0.4-0.4
			c0.2-0.2,0.4-0.4,0.5-0.4c0.9,0.1,1.7-0.5,2.5-0.8c1.3-0.4,2.5-0.9,3.9-0.9c1.2,0,2.9,1.2,2.8,2.8c0,1.2-0.4,2.3-1.3,3.1
			C31.9,32.7,31.8,32.8,31.7,33 M28.1,29.2c-0.3,0.1-0.6,0.3-0.9,0.4c-1,0.5-1,0.5-0.8,1.6c0.1,0.7,0.2,1.4,0.3,2.1
			c0,0.1,0.1,0.2,0.2,0.3c0-0.1,0.1-0.2,0.1-0.3c0.1-0.6,0.7-0.7,1.1-0.8c1.5-0.5,2.5-1.5,3.1-2.8c0.3-0.6,0-0.9-0.7-1
			C29.7,28.7,29,29,28.1,29.2 M30.4,35.7c-0.5-0.3-1-0.4-1.6-0.4c-0.3,0-0.7,0.1-1,0c-0.6-0.2-0.5,0.2-0.5,0.5
			c0.2,1,0.3,2.1,0.5,3.1c0.1,0.4,0.2,0.8,0.7,0.6c1.2-0.3,2.1-0.8,2.5-2.1C31.4,36.6,31.2,36.2,30.4,35.7 M25.5,39.2
			c0.1,0,0.1-0.1,0.2-0.1c0,0,0-0.1,0-0.1C25.5,39.1,25.5,39.1,25.5,39.2"/>
		<path class="st13" d="M60.2,15.2c0.4-0.1,0.9-0.2,1.3-0.3c0.3-0.1,0.6-0.2,0.7,0.1c0.1,0.3,0.1,0.9-0.1,1.1
			c-0.4,0.4-0.9,0.6-1.4,0.8c-0.3,0.2-0.6,0.2-1,0.3c-0.6,0.2-0.9,0.6-1.1,1.2c-0.7,1.6-1.6,3.2-2.6,4.7c-0.5,0.7-0.9,1.4-1.7,1.9
			c-0.5,0.3-1.1,0.5-1.6,0.5c-0.7,0-1.5-0.2-2.2-0.4c-0.8-0.2-1.4-0.7-1.9-1.3c-0.1-0.2-0.2-0.4-0.2-0.6c0.2-1.1,0.5-2.3,1.4-3.1
			c0.9-0.7,1.8-1.4,2.9-1.9c1.4-0.8,2.8-1.4,4.2-2c0.5-0.2,0.5-0.6,0.7-1c1.1-2.3,1.6-4.8,2.4-7.1c0.1-0.4,0.1-0.5-0.3-0.4
			c-0.3,0-0.5,0-0.8,0c-0.7,0-1.1-0.4-1.4-1.1c-0.2-0.4-0.1-0.8,0.4-0.9c0.3-0.1,0.6-0.1,0.9-0.1c0.9-0.1,1.7-0.2,2.6-0.2
			c0.7,0,1.4,0.1,1.8,0.7c0.3,0.4,0.3,0.8,0,1.1c-1,1.1-1.3,2.5-1.8,3.8c-0.4,1.3-0.9,2.5-1.4,3.8C60.2,15,60.2,15.1,60.2,15.2
			c-0.1,0-0.1,0.1-0.1,0.1C60.2,15.2,60.2,15.2,60.2,15.2 M52.4,23.7c0.3-0.2,0.7-0.2,0.9-0.5c0.5-0.6,1-1.3,1.5-2
			c0.4-0.6,0.9-1.2,1.3-1.9c0.1-0.1,0.1-0.3,0.1-0.4c-0.1,0-0.3,0-0.4,0.1c-0.2,0.1-0.4,0.2-0.7,0.4c-1,0.6-2,1.2-2.9,1.8
			c-0.4,0.3-0.9,0.7-0.5,1.3c0,0.1,0,0.2,0,0.3C51.6,23.4,51.7,23.6,52.4,23.7"/>
		<path class="st13" d="M48.7,36.5c0.4,0.8,0,1.2-0.8,1.3c-0.8,0.1-1.6-0.3-2.3-0.6c-0.9-0.3-1.7-0.6-2.6-0.9
			c-0.5-0.2-1.1-0.2-1.7-0.3c-0.3,0-0.7,0-1,0.1c-0.4,0.1-0.3,0.4-0.3,0.7c0.1,0.4,0.1,0.8,0.2,1.2c0.1,0.4-0.2,0.6-0.5,0.7
			c-0.4,0.1-0.7-0.1-0.8-0.4c-0.4-1.1-0.7-2.2-1-3.3c-0.1-0.3,0-0.6-0.1-0.9c-0.1-0.5-0.6-0.6-1-0.7c-0.6,0-1-0.1-1.3-0.6
			c-0.3-0.5-0.1-1,0.1-1.5c0.7-1.6,1.8-3,3.5-3.7c0.8-0.4,1.6-0.9,2.5-1.1c1.1-0.3,2.2-0.4,3.4-0.1c0.9,0.2,1.5,0.8,2,1.5
			c0.5,0.7,0.7,1.7,0.3,2.6c-0.4,0.8-0.9,1.6-1.4,2.4c-0.2,0.3-0.7,0.5-1,0.8c-0.1,0.1-0.2,0.1-0.2,0.1c-0.1,0.1-0.1,0.2-0.2,0.2
			c0.1,0,0.2,0.1,0.3,0.1c0.9,0.2,1.7,0.3,2.6,0.5C47.9,35,48.4,35.7,48.7,36.5 M43,28.4c-0.3,0.2-0.7,0.4-1,0.7
			c-1,0.7-1.9,1.4-2.6,2.5c-0.3,0.5-0.1,1.2,0.3,1.3c0.8,0.2,1.6,0.1,2.4-0.2c0.8-0.3,1.4-0.7,1.8-1.4c0.4-0.7,0.5-1.3,0.6-2
			c0.1-0.7-0.3-1.1-0.9-0.9C43.4,28.3,43.2,28.3,43,28.4"/>
		<path class="st13" d="M36.9,14.5c-0.2,0.9-0.4,1.8-0.6,2.7c-0.2,0.8-0.4,1.5-0.6,2.3c-0.2,0.5-0.6,0.7-1.2,0.6
			c-0.4-0.1-0.8-0.5-0.7-0.9c0.2-1.2,0.4-2.3,0.6-3.4c0.1-0.7,0.3-1.4,0.3-2.1c0.2-1.6,0.3-3.3,0.4-4.9c0.1-0.6,0.1-1.2,0.1-1.8
			c0-0.6,0.3-0.9,0.9-0.8c0.9,0.2,1.6,0.6,1.5,1.8c-0.1,1.3-0.2,2.6-0.3,3.9c0,0.3,0,0.5,0.4,0.5c0.7,0,1.5,0,2.2,0
			c0.4,0,0.5-0.3,0.5-0.6c0.2-1.2,0.4-2.4,0.6-3.6c0.1-0.8,0.2-1.5,0.2-2.3c0-0.4,0.1-0.8,0.5-1.1c0.3-0.2,1,0.1,1.3,0.4
			c0.5,0.5,0.5,1,0.4,1.6c-0.1,0.7-0.2,1.3-0.3,2c-0.1,0.8-0.3,1.7-0.5,2.5c-0.1,0.3,0,0.4,0.3,0.4c0.1,0,0.3,0,0.5,0
			c0.3,0,0.6,0,0.7,0.3c0.1,0.4,0.1,0.8-0.3,1c-0.3,0.2-0.7,0.4-1.1,0.6c-0.4,0.2-0.7,0.5-0.7,0.9c-0.3,1.4-0.6,2.8-0.9,4.2
			c-0.1,0.4-0.4,0.7-0.9,0.7c-0.5,0-0.7-0.3-0.7-0.6c0-0.8-0.1-1.6,0-2.4c0.1-0.6,0.2-1.2,0.3-1.8c0-0.1-0.1-0.2-0.2-0.2
			c-0.8-0.1-1.6-0.1-2.4-0.1C37.3,14.1,37.1,14.3,36.9,14.5"/>
		<path class="st13" d="M8.3,18.7c-0.5,0.2-0.9,0.4-1.4,0.5c-1.1,0.1-1.9-0.5-2.6-1.3c-1-1.3-1.2-2.8-1.1-4.4
			c0.1-1.2,0.4-2.3,0.8-3.4c0.1-0.3-0.1-0.8-0.1-1.2c0-0.3,0-0.7,0.2-1c0.7-1.2,1.8-1.6,3-1.6c1-0.1,2,0.1,2.9,0.4
			c1.1,0.4,1.6,1.1,1.8,2.3c0.1,0.8,0.4,1.6,0.4,2.4c0,0.8-0.1,1.6-0.4,2.4c-0.7,1.7-1.6,3.2-3,4.5C8.7,18.4,8.5,18.5,8.3,18.7
			 M9.9,11.7c0.2-1.1,0-2.1-0.2-3.1C9.5,7.9,8.9,7.6,8.2,7.9C8.1,7.9,8,8.2,7.9,8.3C7.8,8.6,7.7,9,7.5,9.2c-0.6,0.7-1.1,1.5-1.4,2.4
			c-0.5,1.2-0.6,2.5-0.5,3.8c0,0.5,0.2,1,0.4,1.5c0.2,0.5,0.5,0.5,0.9,0.2c1.3-1.2,2.2-2.6,2.8-4.2C9.8,12.4,9.8,12.1,9.9,11.7"/>
		<path class="st13" d="M32.2,14c-1.2,1.8-2.5,3.4-4.5,4.3c-1.2,0.5-2.4,0.8-3.7,0.4c-1.4-0.5-2.5-2-2-3.6c0.3-1.3,0.5-2.6,0.8-3.8
			c0.5-1.6,1.5-2.8,3.1-3.4c0.5-0.2,1.1-0.1,1.6-0.1c0.9-0.1,1.8,0.1,2.6,0.4c1.5,0.6,2.9,2.1,2.9,3.9c0,0.2-0.1,0.5-0.2,0.7
			C32.7,13.1,32.4,13.5,32.2,14 M27.8,15.8c0.8-0.8,1.7-1.6,2.3-2.7c0.3-0.6,0.6-1.2,0.6-1.8c-0.1-1-0.7-1.8-1.8-2
			c-0.9-0.2-1.8,0.2-2.3,1c-0.1,0.1-0.2,0.2-0.3,0.4c-0.3,0.3-0.6,0.5-0.8,0.9c-0.6,1.5-1,3.1-1,4.8c0,0.8,0.3,0.9,1,0.8
			C26.3,16.9,27,16.4,27.8,15.8"/>
		<path class="st13" d="M64,19.5c-0.5,0.8-1.3,1-1.9,0.4c-0.1-0.1-0.3-0.2-0.4-0.3c-0.3-0.3-0.2-0.7,0.1-1.2
			c1.3-1.8,2.6-3.5,3.6-5.5c0.5-1,1.1-1.9,1.6-2.8c0.4-0.6,0.6-0.7,1.4-0.5c0.1,0,0.4,0,0.4-0.1c0.2-0.3,0.4-0.8,0.9-0.7
			c0.6,0.1,1.1,0.4,1.4,0.9c0.9,1.7,1.7,3.3,2.3,5.2c0.2,0.7,0.4,1.5,0.5,2.3c0.1,0.6-0.2,1-0.6,1.1c-0.4,0.1-1.2-0.3-1.3-0.8
			c-0.2-0.6-0.2-1.1-0.3-1.7c0,0,0-0.1,0-0.1c-0.1-0.2-0.1-0.4-0.2-0.6c-0.2,0.1-0.3,0.2-0.5,0.4c-0.6,0.5-1.3,0.7-2.1,0.7
			c-0.7,0.1-1.4,0-2.2,0c-0.2,0-0.4,0.2-0.5,0.4C65.5,17.6,64.8,18.6,64,19.5 M68.1,14c-0.1,0-0.1,0.1-0.2,0.1
			c-0.1,0.1-0.2,0.2-0.3,0.3c0.1,0,0.3,0.1,0.4,0c0.9-0.2,1.8-0.3,2.7-0.5c0,0,0.1-0.2,0.1-0.2c-0.2-0.6-0.5-1.2-0.7-1.7
			c-0.1-0.3-0.3-0.2-0.4,0C69.2,12.6,68.7,13.2,68.1,14"/>
		<path class="st13" d="M13,11.9c0.4-1.2,0.8-2.4,1.7-3.3c0.5-0.5,1.1-0.8,1.9-0.6c0.6,0.2,1.3,0.1,2,0.2c1.1,0.2,1.9,0.8,2.5,1.7
			c0.8,1.2,0.6,2.4,0.4,3.6c-0.3,1.6-1.3,2.9-2.5,3.9c-1.1,1-2.4,1.6-3.9,1.5c-1.5-0.1-3.5-1.9-2.9-3.8C12.4,14,12.7,13,13,11.9
			 M17.7,9.7c-0.4,0-0.8,0.1-1.1,0.4c-0.4,0.6-0.8,1.2-1.1,1.8c-0.5,1.2-0.9,2.5-1.1,3.8c-0.1,0.5-0.1,1.1,0.3,1.4
			c0.4,0.3,0.8,0,1.1-0.1c0.7-0.3,1.3-0.8,1.8-1.4c1.2-1.2,1.8-2.6,1.7-4.3C19.4,10.5,18.8,9.5,17.7,9.7"/>
		<path class="st13" d="M96.1,15.6c0,0.4,0,0.7-0.1,1c-0.1,0.2-0.4,0.6-0.6,0.6c-0.3,0-0.6-0.2-0.8-0.5c-0.4-0.5-0.3-1.1-0.3-1.7
			c0-0.2,0-0.3,0-0.5c-0.1-0.4-0.3-0.3-0.6-0.2c-0.8,0.3-1.6,0.7-2.4,0.9c-0.4,0.1-0.9,0.2-1.3,0.1c-0.6-0.2-0.6,0.2-0.8,0.4
			c-0.4,0.7-0.7,1.4-1.1,2c-0.3,0.5-1,0.7-1.5,0.4c-0.5-0.3-0.6-0.7-0.3-1.4c0.6-1.2,1.2-2.4,1.7-3.6c0.5-1.1,1.1-2.2,1.6-3.2
			c0.6-1.1,1.2-2.2,1.9-3.2c0.2-0.4,1-0.4,1.5,0c0.4,0.3,0.6,0.7,0.7,1.1c0.4,1.1,0.8,2.2,1.2,3.3c0.1,0.2,0.4,0.4,0.6,0.5
			c0.8,0.1,1.1,0.4,0.7,1c-0.6,0.9-0.1,1.7-0.3,2.6C96.1,15.4,96.1,15.5,96.1,15.6 M91.2,12.8c0.6-0.2,1.2-0.4,1.7-0.6
			c0.3-0.1,0.4-0.2,0.3-0.6c-0.3-0.6-0.5-1.2-0.8-1.8c0-0.1-0.1-0.2-0.2-0.3c-0.1,0.1-0.2,0.2-0.3,0.3c-0.5,1-1.1,2-1.6,3
			c0,0.1,0.1,0.2,0.1,0.2C90.7,13,90.9,12.9,91.2,12.8"/>
		<path class="st13" d="M75.2,16.8c-0.2-0.8,0.4-1.4,0.6-2.1c0.7-1.7,1.3-3.4,2.1-5.1c0.5-1.2,1.2-2.4,1.9-3.6
			c0.2-0.3,0.5-0.4,0.9-0.2c0.6,0.3,1.1,0.7,1.4,1.3c0.5,1.2,1,2.5,1.5,3.7c0.5,1.3,0.9,2.6,0.9,4c0,0.3,0.1,0.7,0.1,1
			c0,0.2-0.2,0.6-0.3,0.7c-0.3,0.1-0.7,0-0.9-0.2c-0.3-0.3-0.5-0.8-0.6-1.2c-0.2-0.5-0.2-1.1-0.3-1.7c-0.1-0.5-0.3-0.4-0.6-0.3
			c-0.7,0.2-1.4,0.5-2.1,0.8c-0.2,0.1-0.5,0.1-0.7,0.1c-0.5-0.1-0.7,0.2-0.9,0.6c-0.2,0.7-0.5,1.3-0.7,2c-0.2,0.5-0.4,0.9-1,0.9
			C76.1,17.6,75.5,17.3,75.2,16.8 M80.9,11.4c0.2-0.1,0.3-0.2,0.5-0.2c0.4-0.1,0.4-0.2,0.3-0.5c-0.3-0.6-0.5-1.3-0.7-1.9
			c0-0.1-0.1-0.1-0.2-0.2c0,0.1-0.1,0.1-0.1,0.2c-0.2,0.4-0.3,0.7-0.5,1.1c-0.3,0.6-0.6,1.2-0.9,1.9c0,0.1-0.1,0.1-0.2,0.2
			c0.1,0,0.2,0.1,0.3,0C79.8,11.8,80.3,11.6,80.9,11.4"/>
		<path class="st13" d="M72.2,30.9c0.9-1.1,1.9-2.2,2.8-3.2c0.5-0.5,0.9-0.6,1.3-0.4c0.4,0.2,0.7,1,0.5,1.5c-0.1,0.4-0.4,0.7-0.7,1
			c-0.6,0.5-1,1-1.5,1.6c-0.5,0.6-0.9,1.1-1.4,1.7c-0.1,0.1-0.2,0.3-0.2,0.3c0.1,0.1,0.2,0.2,0.3,0.2c1.3,0.3,2.6,0.7,3.8,1
			c0.6,0.2,1.2,0.4,1.3,1.2c0,0.3,0.1,0.8-0.1,0.9c-0.2,0.2-0.7,0.3-1,0.2c-1.2-0.3-2.4-0.7-3.6-1c-0.3-0.1-0.6-0.2-0.9-0.3
			c-0.7-0.3-0.7-0.3-0.7,0.5c0,0.3-0.1,0.6-0.3,0.9c-0.4,0.4-1.2,0.3-1.4-0.2c-0.1-0.2-0.2-0.5-0.2-0.8C70.4,35,70,34,69.7,33
			c-0.3-1-0.6-2-0.9-2.9c-0.1-0.4-0.4-0.7-0.6-1c-0.1-0.2-0.3-0.5-0.3-0.8c0.1-0.6,0.5-0.8,1.1-0.5c0.8,0.5,1.3,1.2,1.6,2.1
			c0.2,0.6,0.3,1.2,0.5,1.8c0,0.1,0.1,0.2,0.2,0.2c0.1,0,0.2-0.1,0.2-0.1C71.7,31.5,71.9,31.2,72.2,30.9"/>
		<path class="st13" d="M68,35.2c0.9,0.3,1.7,0.7,2.1,1.6c0.1,0.2,0.2,0.5,0.3,0.7c0.1,0.4-0.1,0.6-0.5,0.8c-0.4,0.2-0.7,0.1-1-0.1
			c-0.3-0.3-0.5-0.6-0.9-0.7c-0.5-0.2-1-0.4-1.5-0.5c-0.8-0.2-1.7-0.3-2.5-0.4c-0.3-0.1-0.3,0.1-0.3,0.2c0,0.1,0,0.2,0,0.3
			c0.1,0.8-0.3,1-0.9,1c-0.4,0.1-0.9-0.5-0.9-1c0-0.7-0.2-1.2-0.6-1.8c-0.4-0.5-0.6-1.2-0.2-1.9c0.3-0.5,0-1.1-0.2-1.6
			c-0.2-0.9-0.5-1.8-0.8-2.7c-0.1-0.2-0.1-0.5,0-0.7c0.1-0.3,0.3-0.4,0.6-0.3c0.6,0.2,0.9,0.6,1.1,1.2c0.2,0.7,0.4,1.3,0.6,2
			c0,0.1,0.1,0.2,0.2,0.2c0,0,0.1-0.1,0.2-0.1c0.6-0.7,1.3-1.5,1.9-2.2c0.3-0.3,0.5-0.6,0.8-0.9c0.6-0.7,1.5-0.4,1.8,0.4
			c0.2,0.5,0.1,1-0.4,1.4c-1.2,1.2-2.3,2.4-3.4,3.6c-0.1,0.1-0.2,0.3-0.2,0.5c0.2,0,0.3,0,0.5,0.1c0.9,0.2,1.8,0.3,2.7,0.5
			C66.9,34.9,67.4,35.1,68,35.2"/>
		<path class="st13" d="M51,30.7c0.3-0.3,0.5-0.7,0.8-1c0.3-0.4,0.6-0.4,1.1-0.3c0.3,0.1,0.6,0,0.9,0.1c0.5,0,1.1,0.1,1.6,0.1
			c1.9,0.2,2.5,1.6,3.1,3.2c0.3,1,0.2,1.9-0.1,2.8c-0.1,0.3-0.5,0.6-0.9,0.8c-1.4,0.8-2.9,1.1-4.5,0.9c-1.8-0.2-3-1.7-3-3.4
			c0-1.1,0.4-2,0.9-2.9C50.9,31,50.9,30.8,51,30.7 M53.3,31.6c-0.2,0.1-0.4,0.3-0.5,0.4c-0.2,0.3-0.4,0.6-0.6,0.9
			c-0.2,0.3-0.4,0.7-0.5,1c-0.2,0.6,0,1,0.6,1.2c0.4,0.1,0.8,0.2,1.2,0.3c0.8,0.1,1.5-0.1,2.2-0.4c1.1-0.4,1.7-1,1.3-2.2
			c-0.2-0.5-0.3-1.2-0.9-1.3C55.2,31.2,54.3,31.1,53.3,31.6"/>
		<path class="st13" d="M84.6,36c-0.6,0.1-1.2,0.2-1.7,0.3c-1.5,0.2-2.7-0.9-3-2.4c-0.4-1.8,0.3-3.3,1.3-4.7
			c0.2-0.3,0.6-0.6,0.9-0.7c0.2-0.1,0.7-0.1,0.8,0c0.5,0.5,1,0.6,1.6,0.6c1.6,0.2,3,2,2.9,3.3c-0.2,1.6-0.8,2.8-2.4,3.3
			C84.9,35.8,84.8,35.9,84.6,36 M82.7,34.2c0.3-0.1,0.7-0.1,1-0.2c0.8-0.2,1.4-0.6,1.9-1.3c0.4-0.5,0.3-1.1-0.3-1.3
			c-0.7-0.3-1.4-0.4-2.1-0.5c-0.5-0.1-1.1,0.4-1.3,0.9c-0.1,0.3-0.2,0.6-0.3,0.9C81.3,33.7,81.6,34.2,82.7,34.2 M84.2,29.8
			C84.2,29.9,84.2,29.9,84.2,29.8C84.2,29.9,84.2,29.9,84.2,29.8 M84.4,29.7C84.4,29.8,84.4,29.8,84.4,29.7
			C84.4,29.8,84.4,29.8,84.4,29.7"/>
		<path class="st13" d="M88.2,30.1c0.4-1.3,0.9-2.6,1.3-3.8c0.1-0.2,0.1-0.4,0.2-0.6c0.2-0.6,0.6-0.7,1.1-0.2
			c0.5,0.5,0.6,1.2,0.4,1.8c-0.3,1-0.7,1.9-1.1,2.9c-0.2,0.7-0.4,1.4-0.5,2c-0.1,0.5,0.1,0.7,0.7,0.7c1.2-0.1,2.4-0.3,3.6-0.6
			c0.4-0.1,0.9-0.3,1.3-0.4c0.6-0.2,0.9,0,1,0.7c0,0.8-0.4,1.4-1.3,1.6c-1,0.3-2,0.4-3,0.6c-0.5,0.1-1.1,0.2-1.7,0.3
			c-0.9,0.1-1.9-0.5-2.1-1.5C87.9,32.4,87.9,31.2,88.2,30.1"/>
		<path class="st13" d="M104.8,24.2c1-0.2,1.9-0.3,2.7-0.9c0.3-0.2,0.9,0.1,1.3,0.5c0.3,0.4,0.3,0.8,0.1,1.1
			c-0.6,1.2-1.3,2.3-1.9,3.5c-0.3,0.6-0.6,1.2-1,1.8c-0.4,0.5-0.9,0.5-1.3-0.1c-0.2-0.2-0.2-0.5-0.3-0.7c-0.2-0.9-0.9-1.3-1.5-1.9
			c-0.7-0.6-1.1-1.5-1.2-2.4c-0.1-0.6,0.3-0.9,0.9-0.9c0.6,0,1.2,0,1.7,0C104.4,24.3,104.6,24.3,104.8,24.2 M104.7,27
			c0.2,0.2,0.4,0.6,0.7,0.2c0.2-0.3,0.4-0.6,0.5-1c0,0-0.1-0.2-0.1-0.2c-0.6,0.1-1.3,0.1-1.9,0.2c-0.1,0-0.1,0.1-0.1,0.1
			c0,0,0.1,0.1,0.1,0.1C104.2,26.7,104.4,26.9,104.7,27"/>
		<path class="st13" d="M112,28.5c-0.4,0.3-0.7,0.7-1.3,0.6c-0.3-0.1-0.3-0.2-0.3-0.3c0-0.4,0.1-0.8-0.5-0.9
			c-0.4-0.1-0.6-0.4-0.6-0.8c0-0.4,0.2-0.6,0.6-0.7c0.3-0.1,0.5-0.3,0.8-0.3c0.5,0,0.4-0.3,0.3-0.6c-0.1-0.3-0.2-0.6-0.2-0.9
			c0.1-0.5,0.8-0.6,1.2-0.3c0.7,0.5,0.8,0.6,1.3-0.2c0.3-0.4,0.5-0.5,0.9-0.3c0.4,0.2,0.5,0.5,0.3,0.9c-0.1,0.3-0.1,0.4,0.3,0.4
			c0.5,0,1-0.1,1.6,0c0.4,0.1,0.5,0.4,0.2,0.7c-0.5,0.6-1.3,0.9-2.1,1.2c-0.3,0.1-0.5,0.2-0.3,0.6c0.1,0.3,0.2,0.6-0.2,0.8
			c-0.3,0.2-0.6,0.2-0.9-0.1C112.5,28,112.4,28,112,28.5"/>
		<path class="st13" d="M98.5,25.3c0.6,0.9,0.7,1.8,0.8,2.8c0.1,1.1,0.3,2.1,0.4,3.2c0.1,1.1,0.5,2.3,0,3.4
			c-0.1,0.3-0.4,0.6-0.6,0.7c-0.5,0.1-0.8-0.2-0.9-1c-0.1-1.4-0.3-2.8-0.4-4.2c-0.1-0.9-0.1-1.7-0.2-2.6c0-0.3-0.2-0.7-0.2-1
			c-0.1-0.2-0.1-0.5-0.2-0.7c-0.1-0.4,0.1-0.8,0.5-0.9C97.9,24.7,98.2,25.1,98.5,25.3"/>
		<path class="st13" d="M99.6,17.9c-0.5,1.1-1.1,2.2-1.6,3.3c-0.1,0.2-0.4,0.4-0.7,0.4c-0.2,0-0.4-0.3-0.5-0.5
			c-0.3-0.5-0.2-1.1,0-1.6c0.4-0.9,0.8-1.7,1.2-2.6c0.3-0.6,0.8-0.7,1.3-0.2C99.6,17.1,99.8,17.4,99.6,17.9"/>
		<path class="st13" d="M105.9,35.3c-0.7,0.9-1.2,0.8-1.9,0.4c-0.6-0.4-0.7-1.4-0.1-2c0.1-0.1,0.4-0.1,0.6,0
			c0.3,0.1,0.6,0.3,0.9,0.5C105.9,34.5,106,34.9,105.9,35.3"/>
	</g>
</g>
</svg>
